font.ufo
<glyph name="exclam" format="1">
  <advance width="419"/>
  <unicode hex="0021"/>
  <outline>
    <contour>
      <point x="158" y="235" type="line"/>
      <point x="276" y="235" type="line"/>
      <point x="292" y="751" type="line"/>
      <point x="142" y="751" type="line"/>
    </contour>
    <contour>
      <point x="220" y="0" type="curve" smooth="yes"/>
      <point x="265" y="0"/>
      <point x="301" y="35"/>
      <point x="301" y="80" type="curve" smooth="yes"/>
      <point x="301" y="125"/>
      <point x="265" y="160"/>
      <point x="220" y="160" type="curve" smooth="yes"/>
      <point x="176" y="160"/>
      <point x="140" y="125"/>
      <point x="140" y="80" type="curve" smooth="yes"/>
      <point x="140" y="35"/>
      <point x="176" y="0"/>
    </contour>
  </outline>
</glyph>
<glyph name="quotedbl" format="1">
  <advance width="364"/>
  <unicode hex="0022"/>
  <outline>
    <contour>
      <point x="50" y="586" type="line"/>
      <point x="145" y="586" type="line"/>
      <point x="158" y="799" type="line"/>
      <point x="37" y="799" type="line"/>
    </contour>
    <contour>
      <point x="219" y="586" type="line"/>
      <point x="314" y="586" type="line"/>
      <point x="327" y="799" type="line"/>
      <point x="206" y="799" type="line"/>
    </contour>
  </outline>
</glyph>
<glyph name="numbersign" format="1">
  <advance width="898"/>
  <unicode hex="0023"/>
  <outline>
    <contour>
      <point x="141" y="0" type="line"/>
      <point x="273" y="0" type="line"/>
      <point x="431" y="740" type="line"/>
      <point x="299" y="740" type="line"/>
    </contour>
    <contour>
      <point x="456" y="0" type="line"/>
      <point x="588" y="0" type="line"/>
      <point x="746" y="740" type="line"/>
      <point x="614" y="740" type="line"/>
    </contour>
    <contour>
      <point x="23" y="165" type="line"/>
      <point x="776" y="165" type="line"/>
      <point x="776" y="290" type="line"/>
      <point x="23" y="290" type="line"/>
    </contour>
    <contour>
      <point x="85" y="454" type="line"/>
      <point x="838" y="454" type="line"/>
      <point x="838" y="579" type="line"/>
      <point x="85" y="579" type="line"/>
    </contour>
  </outline>
</glyph>
<glyph name="dollar" format="1">
  <advance width="647"/>
  <unicode hex="0024"/>
  <outline>
    <contour>
      <point x="285" y="-87" type="line"/>
      <point x="343" y="-87" type="line"/>
      <point x="343" y="788" type="line"/>
      <point x="285" y="788" type="line"/>
    </contour>
    <contour>
      <point x="206" y="508" type="curve" smooth="yes"/>
      <point x="206" y="569"/>
      <point x="253" y="595"/>
      <point x="310" y="595" type="curve" smooth="yes"/>
      <point x="368" y="595"/>
      <point x="408" y="558"/>
      <point x="413" y="508" type="curve"/>
      <point x="560" y="508" type="line"/>
      <point x="553" y="647"/>
      <point x="453" y="708"/>
      <point x="314" y="708" type="curve" smooth="yes"/>
      <point x="172" y="708"/>
      <point x="60" y="627"/>
      <point x="60" y="499" type="curve" smooth="yes"/>
      <point x="60" y="246"/>
      <point x="419" y="352"/>
      <point x="419" y="195" type="curve" smooth="yes"/>
      <point x="419" y="143"/>
      <point x="380" y="105"/>
      <point x="315" y="105" type="curve" smooth="yes"/>
      <point x="250" y="105"/>
      <point x="215" y="138"/>
      <point x="210" y="197" type="curve"/>
      <point x="60" y="197" type="line"/>
      <point x="60" y="65"/>
      <point x="166" y="-7"/>
      <point x="315" y="-7" type="curve" smooth="yes"/>
      <point x="470" y="-7"/>
      <point x="564" y="93"/>
      <point x="564" y="203" type="curve" smooth="yes"/>
      <point x="564" y="458"/>
      <point x="206" y="347"/>
    </contour>
  </outline>
</glyph>
<glyph name="ampersand" format="1">
  <advance width="688"/>
  <unicode hex="0026"/>
  <outline>
    <contour>
      <point x="153" y="212" type="curve" smooth="yes"/>
      <point x="153" y="269"/>
      <point x="197" y="314"/>
      <point x="252" y="314" type="curve" smooth="yes"/>
      <point x="307" y="314"/>
      <point x="352" y="269"/>
      <point x="352" y="212" type="curve" smooth="yes"/>
      <point x="352" y="154"/>
      <point x="307" y="108"/>
      <point x="252" y="108" type="curve" smooth="yes"/>
      <point x="197" y="108"/>
      <point x="153" y="154"/>
    </contour>
    <contour>
      <point x="146" y="566" type="curve" smooth="yes"/>
      <point x="146" y="519"/>
      <point x="166" y="477"/>
      <point x="209" y="416" type="curve" smooth="yes"/>
      <point x="278" y="395" type="line"/>
      <point x="265" y="413"/>
      <point x="253" y="424"/>
      <point x="230" y="424" type="curve" smooth="yes"/>
      <point x="126" y="424"/>
      <point x="33" y="335"/>
      <point x="33" y="210" type="curve" smooth="yes"/>
      <point x="33" y="86"/>
      <point x="130" y="-7"/>
      <point x="251" y="-7" type="curve" smooth="yes"/>
      <point x="352" y="-7"/>
      <point x="435" y="62"/>
      <point x="457" y="148" type="curve"/>
      <point x="412" y="146" type="line"/>
      <point x="518" y="0" type="line"/>
      <point x="682" y="0" type="line"/>
      <point x="313" y="492" type="line" smooth="yes"/>
      <point x="290" y="523"/>
      <point x="283" y="540"/>
      <point x="283" y="563" type="curve" smooth="yes"/>
      <point x="283" y="594"/>
      <point x="306" y="621"/>
      <point x="341" y="621" type="curve" smooth="yes"/>
      <point x="376" y="621"/>
      <point x="400" y="596"/>
      <point x="400" y="561" type="curve" smooth="yes"/>
      <point x="400" y="548"/>
      <point x="397" y="533"/>
      <point x="391" y="522" type="curve"/>
      <point x="526" y="522" type="line"/>
      <point x="534" y="538"/>
      <point x="538" y="559"/>
      <point x="538" y="579" type="curve" smooth="yes"/>
      <point x="538" y="660"/>
      <point x="468" y="740"/>
      <point x="341" y="740" type="curve" smooth="yes"/>
      <point x="213" y="740"/>
      <point x="146" y="655"/>
    </contour>
  </outline>
</glyph>
<glyph name="parenleft" format="1">
  <advance width="511"/>
  <unicode hex="0028"/>
  <outline>
    <contour>
      <point x="368" y="-186" type="curve"/>
      <point x="510" y="-186" type="line"/>
      <point x="510" y="-173" type="line"/>
      <point x="321" y="-20"/>
      <point x="235" y="184"/>
      <point x="235" y="402" type="curve"/>
      <point x="235" y="620"/>
      <point x="321" y="825"/>
      <point x="510" y="977" type="curve"/>
      <point x="510" y="990" type="line"/>
      <point x="368" y="990" type="line"/>
      <point x="212" y="873"/>
      <point x="99" y="658"/>
      <point x="99" y="403" type="curve" smooth="yes"/>
      <point x="99" y="146"/>
      <point x="212" y="-69"/>
    </contour>
  </outline>
</glyph>
<glyph name="parenright" format="1">
  <advance width="512"/>
  <unicode hex="0029"/>
  <outline>
    <contour>
      <point x="144" y="990" type="curve"/>
      <point x="3" y="990" type="line"/>
      <point x="3" y="977" type="line"/>
      <point x="191" y="825"/>
      <point x="277" y="620"/>
      <point x="277" y="402" type="curve" smooth="yes"/>
      <point x="277" y="184"/>
      <point x="191" y="-20"/>
      <point x="3" y="-173" type="curve"/>
      <point x="3" y="-186" type="line"/>
      <point x="144" y="-186" type="line"/>
      <point x="301" y="-69"/>
      <point x="413" y="146"/>
      <point x="413" y="403" type="curve" smooth="yes"/>
      <point x="413" y="658"/>
      <point x="301" y="873"/>
    </contour>
  </outline>
</glyph>
<glyph name="asterisk" format="1">
  <advance width="518"/>
  <unicode hex="002A"/>
  <outline>
    <contour>
      <point x="313" y="738" type="line"/>
      <point x="208" y="738" type="line"/>
      <point x="231" y="598" type="line"/>
      <point x="120" y="687" type="line"/>
      <point x="69" y="595" type="line"/>
      <point x="198" y="550" type="line"/>
      <point x="68" y="503" type="line"/>
      <point x="123" y="408" type="line"/>
      <point x="230" y="498" type="line"/>
      <point x="208" y="360" type="line"/>
      <point x="312" y="360" type="line"/>
      <point x="289" y="498" type="line"/>
      <point x="396" y="409" type="line"/>
      <point x="449" y="502" type="line"/>
      <point x="318" y="549" type="line"/>
      <point x="449" y="596" type="line"/>
      <point x="399" y="687" type="line"/>
      <point x="289" y="598" type="line"/>
    </contour>
  </outline>
</glyph>
<glyph name="plus" format="1">
  <advance width="685"/>
  <unicode hex="002B"/>
  <outline>
    <contour>
      <point x="275" y="611" type="line"/>
      <point x="275" y="101" type="line"/>
      <point x="409" y="101" type="line"/>
      <point x="409" y="611" type="line"/>
    </contour>
    <contour>
      <point x="87" y="292" type="line"/>
      <point x="597" y="292" type="line"/>
      <point x="597" y="419" type="line"/>
      <point x="87" y="419" type="line"/>
    </contour>
  </outline>
</glyph>
<glyph name="comma" format="1">
  <advance width="220"/>
  <unicode hex="002C"/>
  <outline>
    <contour>
      <point x="33" y="91" type="line"/>
      <point x="33" y="-39" type="line"/>
      <point x="98" y="-39" type="line"/>
      <point x="98" y="-58" type="line" smooth="yes"/>
      <point x="98" y="-99"/>
      <point x="81" y="-112"/>
      <point x="48" y="-112" type="curve"/>
      <point x="48" y="-168" type="line"/>
      <point x="186" y="-168"/>
      <point x="203" y="-38"/>
      <point x="156" y="91" type="curve"/>
    </contour>
  </outline>
</glyph>
<glyph name="period" format="1">
  <advance width="245"/>
  <unicode hex="002E"/>
  <outline>
    <contour>
      <point x="122" y="0" type="curve" smooth="yes"/>
      <point x="168" y="0"/>
      <point x="203" y="35"/>
      <point x="203" y="80" type="curve" smooth="yes"/>
      <point x="203" y="125"/>
      <point x="168" y="160"/>
      <point x="122" y="160" type="curve" smooth="yes"/>
      <point x="78" y="160"/>
      <point x="43" y="125"/>
      <point x="43" y="80" type="curve" smooth="yes"/>
      <point x="43" y="35"/>
      <point x="78" y="0"/>
    </contour>
  </outline>
</glyph>
<glyph name="slash" format="1">
  <advance width="486"/>
  <unicode hex="002F"/>
  <outline>
    <contour>
      <point x="37" y="-181" type="line"/>
      <point x="174" y="-181" type="line"/>
      <point x="444" y="947" type="line"/>
      <point x="307" y="947" type="line"/>
    </contour>
  </outline>
</glyph>
<glyph name="zero" format="1">
  <advance width="646"/>
  <unicode hex="0030"/>
  <outline>
    <contour>
      <point x="323" y="727" type="curve" smooth="yes"/>
      <point x="529" y="727"/>
      <point x="592" y="569"/>
      <point x="592" y="365" type="curve"/>
      <point x="592" y="161"/>
      <point x="529" y="2"/>
      <point x="323" y="2" type="curve" smooth="yes"/>
      <point x="117" y="2"/>
      <point x="53" y="161"/>
      <point x="53" y="365" type="curve"/>
      <point x="53" y="569"/>
      <point x="117" y="727"/>
    </contour>
    <contour>
      <point x="323" y="597" type="curve" smooth="yes"/>
      <point x="205" y="597"/>
      <point x="191" y="486"/>
      <point x="191" y="365" type="curve" smooth="yes"/>
      <point x="191" y="244"/>
      <point x="205" y="132"/>
      <point x="323" y="132" type="curve" smooth="yes"/>
      <point x="441" y="132"/>
      <point x="455" y="244"/>
      <point x="455" y="365" type="curve"/>
      <point x="455" y="486"/>
      <point x="441" y="597"/>
    </contour>
  </outline>
</glyph>
<glyph name="one" format="1">
  <advance width="383"/>
  <unicode hex="0031"/>
  <outline>
    <contour>
      <point x="143" y="0" type="line"/>
      <point x="287" y="0" type="line"/>
      <point x="287" y="710" type="line"/>
      <point x="37" y="710" type="line"/>
      <point x="37" y="581" type="line"/>
      <point x="143" y="581" type="line"/>
    </contour>
  </outline>
</glyph>
<glyph name="two" format="1">
  <advance width="574"/>
  <unicode hex="0032"/>
  <outline>
    <contour>
      <point x="46" y="10" type="line"/>
      <point x="539" y="10" type="line"/>
      <point x="539" y="125" type="line"/>
      <point x="248" y="125" type="line"/>
      <point x="362" y="231"/>
      <point x="522" y="352"/>
      <point x="522" y="514" type="curve" smooth="yes"/>
      <point x="522" y="633"/>
      <point x="443" y="732"/>
      <point x="283" y="732" type="curve" smooth="yes"/>
      <point x="154" y="732"/>
      <point x="46" y="656"/>
      <point x="44" y="493" type="curve"/>
      <point x="180" y="493" type="line"/>
      <point x="181" y="567"/>
      <point x="218" y="613"/>
      <point x="283" y="613" type="curve" smooth="yes"/>
      <point x="352" y="613"/>
      <point x="381" y="571"/>
      <point x="381" y="507" type="curve" smooth="yes"/>
      <point x="381" y="382"/>
      <point x="209" y="258"/>
      <point x="46" y="113" type="curve"/>
    </contour>
  </outline>
</glyph>
<glyph name="three" format="1">
  <advance width="599"/>
  <unicode hex="0033"/>
  <outline>
    <contour>
      <point x="56" y="538" type="curve"/>
      <point x="193" y="538" type="line"/>
      <point x="197" y="573"/>
      <point x="221" y="625"/>
      <point x="294" y="625" type="curve" smooth="yes"/>
      <point x="357" y="625"/>
      <point x="393" y="590"/>
      <point x="393" y="536" type="curve" smooth="yes"/>
      <point x="393" y="464"/>
      <point x="333" y="441"/>
      <point x="251" y="441" type="curve" smooth="yes"/>
      <point x="222" y="441" type="line"/>
      <point x="222" y="326" type="line"/>
      <point x="251" y="326" type="line" smooth="yes"/>
      <point x="357" y="326"/>
      <point x="407" y="296"/>
      <point x="407" y="215" type="curve" smooth="yes"/>
      <point x="407" y="156"/>
      <point x="371" y="112"/>
      <point x="301" y="112" type="curve" smooth="yes"/>
      <point x="225" y="112"/>
      <point x="184" y="157"/>
      <point x="181" y="220" type="curve"/>
      <point x="45" y="220" type="line"/>
      <point x="49" y="67"/>
      <point x="161" y="-4"/>
      <point x="301" y="-4" type="curve" smooth="yes"/>
      <point x="455" y="-4"/>
      <point x="542" y="81"/>
      <point x="542" y="203" type="curve" smooth="yes"/>
      <point x="542" y="301"/>
      <point x="495" y="359"/>
      <point x="422" y="384" type="curve"/>
      <point x="422" y="388" type="line"/>
      <point x="468" y="404"/>
      <point x="529" y="459"/>
      <point x="529" y="553" type="curve" smooth="yes"/>
      <point x="529" y="660"/>
      <point x="448" y="745"/>
      <point x="300" y="745" type="curve" smooth="yes"/>
      <point x="159" y="745"/>
      <point x="60" y="671"/>
    </contour>
  </outline>
</glyph>
<glyph name="four" format="1">
  <advance width="661"/>
  <unicode hex="0034"/>
  <outline>
    <contour>
      <point x="397" y="0" type="line"/>
      <point x="537" y="0" type="line"/>
      <point x="537" y="142" type="line"/>
      <point x="625" y="142" type="line"/>
      <point x="625" y="264" type="line"/>
      <point x="537" y="264" type="line"/>
      <point x="537" y="720" type="line"/>
      <point x="374" y="720" type="line"/>
      <point x="48" y="252" type="line"/>
      <point x="48" y="142" type="line"/>
      <point x="397" y="142" type="line"/>
    </contour>
    <contour>
      <point x="206" y="264" type="line"/>
      <point x="406" y="568" type="line"/>
      <point x="406" y="264" type="line"/>
    </contour>
  </outline>
</glyph>
<glyph name="five" format="1">
  <advance width="644"/>
  <unicode hex="0035"/>
  <outline>
    <contour>
      <point x="91" y="731" type="line"/>
      <point x="91" y="301" type="line"/>
      <point x="225" y="301" type="line"/>
      <point x="238" y="345"/>
      <point x="276" y="378"/>
      <point x="335" y="378" type="curve" smooth="yes"/>
      <point x="414" y="378"/>
      <point x="455" y="331"/>
      <point x="455" y="251" type="curve" smooth="yes"/>
      <point x="455" y="173"/>
      <point x="418" y="116"/>
      <point x="335" y="116" type="curve" smooth="yes"/>
      <point x="268" y="116"/>
      <point x="224" y="150"/>
      <point x="212" y="201" type="curve"/>
      <point x="74" y="201" type="line"/>
      <point x="89" y="86"/>
      <point x="179" y="0"/>
      <point x="333" y="0" type="curve" smooth="yes"/>
      <point x="502" y="0"/>
      <point x="590" y="105"/>
      <point x="590" y="255" type="curve" smooth="yes"/>
      <point x="590" y="361"/>
      <point x="535" y="496"/>
      <point x="356" y="496" type="curve" smooth="yes"/>
      <point x="297" y="496"/>
      <point x="245" y="471"/>
      <point x="219" y="442" type="curve"/>
      <point x="219" y="608" type="line"/>
      <point x="538" y="608" type="line"/>
      <point x="538" y="731" type="line"/>
    </contour>
  </outline>
</glyph>
<glyph name="seven" format="1">
  <advance width="560"/>
  <unicode hex="0037"/>
  <outline>
    <contour>
      <point x="41" y="724" type="line"/>
      <point x="41" y="608" type="line"/>
      <point x="383" y="608" type="line"/>
      <point x="100" y="0" type="line"/>
      <point x="253" y="0" type="line"/>
      <point x="523" y="620" type="line"/>
      <point x="523" y="724" type="line"/>
    </contour>
  </outline>
</glyph>
<glyph name="colon" format="1">
  <advance width="313"/>
  <unicode hex="003A"/>
  <outline>
    <contour>
      <point x="154" y="0" type="curve" smooth="yes"/>
      <point x="199" y="0"/>
      <point x="234" y="35"/>
      <point x="234" y="80" type="curve" smooth="yes"/>
      <point x="234" y="125"/>
      <point x="199" y="160"/>
      <point x="154" y="160" type="curve" smooth="yes"/>
      <point x="109" y="160"/>
      <point x="74" y="125"/>
      <point x="74" y="80" type="curve" smooth="yes"/>
      <point x="74" y="35"/>
      <point x="109" y="0"/>
    </contour>
    <contour>
      <point x="154" y="410" type="curve" smooth="yes"/>
      <point x="199" y="410"/>
      <point x="234" y="445"/>
      <point x="234" y="489" type="curve" smooth="yes"/>
      <point x="234" y="535"/>
      <point x="199" y="570"/>
      <point x="154" y="570" type="curve" smooth="yes"/>
      <point x="109" y="570"/>
      <point x="74" y="535"/>
      <point x="74" y="489" type="curve" smooth="yes"/>
      <point x="74" y="445"/>
      <point x="109" y="410"/>
    </contour>
  </outline>
</glyph>
<glyph name="less" format="1">
  <advance width="585"/>
  <unicode hex="003C"/>
  <outline>
    <contour>
      <point x="258" y="356" type="line"/>
      <point x="477" y="580" type="line"/>
      <point x="300" y="580" type="line"/>
      <point x="82" y="356" type="line"/>
      <point x="300" y="132" type="line"/>
      <point x="477" y="132" type="line"/>
    </contour>
  </outline>
</glyph>
<glyph name="equal" format="1">
  <advance width="777"/>
  <unicode hex="003D"/>
  <outline>
    <contour>
      <point x="116" y="173" type="line"/>
      <point x="661" y="173" type="line"/>
      <point x="661" y="298" type="line"/>
      <point x="116" y="298" type="line"/>
    </contour>
    <contour>
      <point x="116" y="413" type="line"/>
      <point x="661" y="413" type="line"/>
      <point x="661" y="539" type="line"/>
      <point x="116" y="539" type="line"/>
    </contour>
  </outline>
</glyph>
<glyph name="greater" format="1">
  <advance width="576"/>
  <unicode hex="003E"/>
  <outline>
    <contour>
      <point x="90" y="132" type="line"/>
      <point x="266" y="132" type="line"/>
      <point x="484" y="356" type="line"/>
      <point x="266" y="580" type="line"/>
      <point x="90" y="580" type="line"/>
      <point x="308" y="356" type="line"/>
    </contour>
  </outline>
</glyph>
<glyph name="question" format="1">
  <advance width="641"/>
  <unicode hex="003F"/>
  <outline>
    <contour>
      <point x="93" y="543" type="curve"/>
      <point x="226" y="543" type="line"/>
      <point x="226" y="602"/>
      <point x="262" y="638"/>
      <point x="322" y="638" type="curve" smooth="yes"/>
      <point x="381" y="638"/>
      <point x="417" y="600"/>
      <point x="417" y="542" type="curve" smooth="yes"/>
      <point x="417" y="451"/>
      <point x="352" y="434"/>
      <point x="248" y="434" type="curve" smooth="yes"/>
      <point x="191" y="434" type="line"/>
      <point x="191" y="232" type="line"/>
      <point x="323" y="232" type="line"/>
      <point x="323" y="341" type="line"/>
      <point x="467" y="343"/>
      <point x="553" y="394"/>
      <point x="553" y="541" type="curve" smooth="yes"/>
      <point x="553" y="675"/>
      <point x="457" y="754"/>
      <point x="321" y="754" type="curve" smooth="yes"/>
      <point x="176" y="754"/>
      <point x="91" y="664"/>
    </contour>
    <contour>
      <point x="180" y="77" type="curve" smooth="yes"/>
      <point x="180" y="32"/>
      <point x="216" y="-3"/>
      <point x="260" y="-3" type="curve" smooth="yes"/>
      <point x="305" y="-3"/>
      <point x="341" y="32"/>
      <point x="341" y="77" type="curve" smooth="yes"/>
      <point x="341" y="122"/>
      <point x="305" y="157"/>
      <point x="260" y="157" type="curve" smooth="yes"/>
      <point x="216" y="157"/>
      <point x="180" y="122"/>
    </contour>
  </outline>
</glyph>
<glyph name="at" format="1">
  <advance width="1231"/>
  <unicode hex="0040"/>
  <outline>
    <contour>
      <point x="743" y="277" type="curve" smooth="yes"/>
      <point x="729" y="174"/>
      <point x="652" y="113"/>
      <point x="583" y="113" type="curve" smooth="yes"/>
      <point x="513" y="113"/>
      <point x="454" y="174"/>
      <point x="469" y="277" type="curve" smooth="yes"/>
      <point x="483" y="379"/>
      <point x="559" y="440"/>
      <point x="629" y="440" type="curve" smooth="yes"/>
      <point x="698" y="440"/>
      <point x="758" y="380"/>
    </contour>
    <contour>
      <point x="331" y="278" type="curve" smooth="yes"/>
      <point x="307" y="108"/>
      <point x="414" y="-8"/>
      <point x="545" y="-8" type="curve" smooth="yes"/>
      <point x="652" y="-8"/>
      <point x="721" y="61"/>
      <point x="762" y="153" type="curve"/>
      <point x="743" y="152" type="line"/>
      <point x="737" y="59"/>
      <point x="779" y="-8"/>
      <point x="887" y="-8" type="curve" smooth="yes"/>
      <point x="1039" y="-8"/>
      <point x="1189" y="147"/>
      <point x="1189" y="359" type="curve" smooth="yes"/>
      <point x="1189" y="635"/>
      <point x="989" y="803"/>
      <point x="694" y="803" type="curve" smooth="yes"/>
      <point x="331" y="803"/>
      <point x="43" y="568"/>
      <point x="43" y="221" type="curve" smooth="yes"/>
      <point x="43" y="-73"/>
      <point x="255" y="-258"/>
      <point x="570" y="-261" type="curve"/>
      <point x="598" y="-150" type="line"/>
      <point x="335" y="-147"/>
      <point x="186" y="-4"/>
      <point x="186" y="221" type="curve" smooth="yes"/>
      <point x="186" y="483"/>
      <point x="390" y="692"/>
      <point x="677" y="692" type="curve" smooth="yes"/>
      <point x="906" y="692"/>
      <point x="1045" y="558"/>
      <point x="1045" y="359" type="curve" smooth="yes"/>
      <point x="1045" y="204"/>
      <point x="955" y="113"/>
      <point x="897" y="113" type="curve" smooth="yes"/>
      <point x="871" y="113"/>
      <point x="858" y="131"/>
      <point x="862" y="164" type="curve" smooth="yes"/>
      <point x="882" y="300" type="line" smooth="yes"/>
      <point x="904" y="459"/>
      <point x="802" y="561"/>
      <point x="653" y="561" type="curve" smooth="yes"/>
      <point x="492" y="561"/>
      <point x="354" y="448"/>
    </contour>
  </outline>
</glyph>
<glyph name="A" format="1">
  <advance width="705"/>
  <unicode hex="0041"/>
  <outline>
    <contour>
      <point x="353" y="700" type="move" name="top"/>
    </contour>
    <contour>
      <point x="682" y="0" type="move" name="ogonek"/>
    </contour>
    <contour>
      <point x="269" y="700" type="line"/>
      <point x="22" y="0" type="line"/>
      <point x="171" y="0" type="line"/>
      <point x="385" y="625" type="line"/>
      <point x="320" y="625" type="line"/>
      <point x="533" y="0" type="line"/>
      <point x="682" y="0" type="line"/>
      <point x="436" y="700" type="line"/>
    </contour>
    <contour>
      <point x="126" y="131" type="line"/>
      <point x="568" y="131" type="line"/>
      <point x="532" y="239" type="line"/>
      <point x="162" y="239" type="line"/>
    </contour>
  </outline>
</glyph>
<glyph name="B" format="1">
  <advance width="650"/>
  <unicode hex="0042"/>
  <outline>
    <contour>
      <point x="445" y="499" type="curve" smooth="yes"/>
      <point x="445" y="440"/>
      <point x="404" y="409"/>
      <point x="343" y="409" type="curve" smooth="yes"/>
      <point x="216" y="409" type="line"/>
      <point x="216" y="590" type="line"/>
      <point x="343" y="590" type="line" smooth="yes"/>
      <point x="404" y="590"/>
      <point x="445" y="558"/>
    </contour>
    <contour>
      <point x="604" y="183" type="curve" smooth="yes"/>
      <point x="604" y="275"/>
      <point x="535" y="356"/>
      <point x="426" y="359" type="curve"/>
      <point x="409" y="347" type="line"/>
      <point x="518" y="366"/>
      <point x="588" y="420"/>
      <point x="588" y="514" type="curve" smooth="yes"/>
      <point x="588" y="617"/>
      <point x="505" y="698"/>
      <point x="358" y="698" type="curve" smooth="yes"/>
      <point x="75" y="698" type="line"/>
      <point x="75" y="0" type="line"/>
      <point x="374" y="0" type="line" smooth="yes"/>
      <point x="518" y="0"/>
      <point x="604" y="76"/>
    </contour>
    <contour>
      <point x="462" y="204" type="curve" smooth="yes"/>
      <point x="462" y="144"/>
      <point x="420" y="108"/>
      <point x="358" y="108" type="curve" smooth="yes"/>
      <point x="216" y="108" type="line"/>
      <point x="216" y="301" type="line"/>
      <point x="357" y="301" type="line" smooth="yes"/>
      <point x="418" y="301"/>
      <point x="462" y="265"/>
    </contour>
  </outline>
</glyph>
<glyph name="C" format="1">
  <advance width="769"/>
  <unicode hex="0043"/>
  <outline>
    <contour>
      <point x="384" y="700" type="move" name="top"/>
    </contour>
    <contour>
      <point x="384" y="0" type="move" name="bottom"/>
    </contour>
    <contour>
      <point x="36" y="351" type="curve" smooth="yes"/>
      <point x="36" y="141"/>
      <point x="195" y="-6"/>
      <point x="393" y="-6" type="curve" smooth="yes"/>
      <point x="542" y="-6"/>
      <point x="670" y="72"/>
      <point x="722" y="214" type="curve"/>
      <point x="553" y="214" type="line"/>
      <point x="520" y="151"/>
      <point x="465" y="122"/>
      <point x="393" y="122" type="curve" smooth="yes"/>
      <point x="267" y="122"/>
      <point x="179" y="212"/>
      <point x="179" y="351" type="curve" smooth="yes"/>
      <point x="179" y="490"/>
      <point x="267" y="579"/>
      <point x="393" y="579" type="curve" smooth="yes"/>
      <point x="465" y="579"/>
      <point x="520" y="551"/>
      <point x="553" y="487" type="curve"/>
      <point x="722" y="487" type="line"/>
      <point x="670" y="630"/>
      <point x="542" y="708"/>
      <point x="393" y="708" type="curve" smooth="yes"/>
      <point x="195" y="708"/>
      <point x="36" y="560"/>
    </contour>
  </outline>
</glyph>
<glyph name="D" format="1">
  <advance width="723"/>
  <unicode hex="0044"/>
  <outline>
    <contour>
      <point x="362" y="700" type="move" name="top"/>
    </contour>
    <contour>
      <point x="312" y="698" type="curve" smooth="yes"/>
      <point x="75" y="698" type="line"/>
      <point x="75" y="0" type="line"/>
      <point x="312" y="0" type="line" smooth="yes"/>
      <point x="535" y="0"/>
      <point x="687" y="136"/>
      <point x="687" y="348" type="curve" smooth="yes"/>
      <point x="687" y="560"/>
      <point x="535" y="698"/>
    </contour>
    <contour>
      <point x="216" y="107" type="line"/>
      <point x="216" y="589" type="line"/>
      <point x="312" y="589" type="line" smooth="yes"/>
      <point x="460" y="589"/>
      <point x="544" y="495"/>
      <point x="544" y="348" type="curve" smooth="yes"/>
      <point x="544" y="201"/>
      <point x="460" y="107"/>
      <point x="312" y="107" type="curve" smooth="yes"/>
    </contour>
  </outline>
</glyph>
<glyph name="E" format="1">
  <advance width="547"/>
  <unicode hex="0045"/>
  <outline>
    <contour>
      <point x="273" y="700" type="move" name="top"/>
    </contour>
    <contour>
      <point x="478" y="0" type="move" name="ogonek"/>
    </contour>
    <contour>
      <point x="273" y="0" type="move" name="bottom"/>
    </contour>
    <contour>
      <point x="478" y="700" type="line"/>
      <point x="75" y="700" type="line"/>
      <point x="75" y="0" type="line"/>
      <point x="478" y="0" type="line"/>
      <point x="478" y="108" type="line"/>
      <point x="216" y="108" type="line"/>
      <point x="216" y="301" type="line"/>
      <point x="448" y="301" type="line"/>
      <point x="448" y="409" type="line"/>
      <point x="216" y="409" type="line"/>
      <point x="216" y="592" type="line"/>
      <point x="478" y="592" type="line"/>
    </contour>
  </outline>
</glyph>
<glyph name="F" format="1">
  <advance width="543"/>
  <unicode hex="0046"/>
  <outline>
    <contour>
      <point x="75" y="0" type="line"/>
      <point x="216" y="0" type="line"/>
      <point x="216" y="299" type="line"/>
      <point x="438" y="299" type="line"/>
      <point x="438" y="407" type="line"/>
      <point x="216" y="407" type="line"/>
      <point x="216" y="590" type="line"/>
      <point x="507" y="590" type="line"/>
      <point x="507" y="698" type="line"/>
      <point x="75" y="698" type="line"/>
    </contour>
  </outline>
</glyph>
<glyph name="H" format="1">
  <advance width="732"/>
  <unicode hex="0048"/>
  <outline>
    <contour>
      <point x="75" y="0" type="line"/>
      <point x="216" y="0" type="line"/>
      <point x="216" y="698" type="line"/>
      <point x="75" y="698" type="line"/>
    </contour>
    <contour>
      <point x="516" y="0" type="line"/>
      <point x="657" y="0" type="line"/>
      <point x="657" y="698" type="line"/>
      <point x="516" y="698" type="line"/>
    </contour>
    <contour>
      <point x="196" y="299" type="line"/>
      <point x="542" y="299" type="line"/>
      <point x="542" y="407" type="line"/>
      <point x="196" y="407" type="line"/>
    </contour>
  </outline>
</glyph>
<glyph name="I" format="1">
  <advance width="291"/>
  <unicode hex="0049"/>
  <outline>
    <contour>
      <point x="146" y="700" type="move" name="top"/>
    </contour>
    <contour>
      <point x="216" y="0" type="move" name="ogonek"/>
    </contour>
    <contour>
      <point x="75" y="0" type="line"/>
      <point x="216" y="0" type="line"/>
      <point x="216" y="698" type="line"/>
      <point x="75" y="698" type="line"/>
    </contour>
  </outline>
</glyph>
<glyph name="J" format="1">
  <advance width="578"/>
  <unicode hex="004A"/>
  <outline>
    <contour>
      <point x="332" y="208" type="line"/>
      <point x="332" y="150"/>
      <point x="303" y="118"/>
      <point x="255" y="118" type="curve" smooth="yes"/>
      <point x="207" y="118"/>
      <point x="179" y="150"/>
      <point x="178" y="208" type="curve"/>
      <point x="37" y="208" type="line"/>
      <point x="37" y="70"/>
      <point x="130" y="-7"/>
      <point x="255" y="-7" type="curve" smooth="yes"/>
      <point x="379" y="-7"/>
      <point x="472" y="70"/>
      <point x="472" y="208" type="curve" smooth="yes"/>
      <point x="472" y="698" type="line"/>
      <point x="332" y="698" type="line"/>
    </contour>
  </outline>
</glyph>
<glyph name="K" format="1">
  <advance width="674"/>
  <unicode hex="004B"/>
  <outline>
    <contour>
      <point x="337" y="700" type="move" name="top"/>
    </contour>
    <contour>
      <point x="337" y="0" type="move" name="bottom"/>
    </contour>
    <contour>
      <point x="75" y="0" type="line"/>
      <point x="216" y="0" type="line"/>
      <point x="216" y="698" type="line"/>
      <point x="75" y="698" type="line"/>
    </contour>
    <contour>
      <point x="185" y="348" type="line"/>
      <point x="469" y="0" type="line"/>
      <point x="652" y="0" type="line"/>
      <point x="335" y="364" type="line"/>
      <point x="327" y="323" type="line"/>
      <point x="652" y="698" type="line"/>
      <point x="468" y="698" type="line"/>
    </contour>
  </outline>
</glyph>
<glyph name="L" format="1">
  <advance width="460"/>
  <unicode hex="004C"/>
  <outline>
    <contour>
      <point x="258" y="10" type="move" name="commaaccent"/>
    </contour>
    <contour>
      <point x="230" y="700" type="move" name="top"/>
    </contour>
    <contour>
      <point x="440" y="700" type="move" name="topright"/>
    </contour>
    <contour>
      <point x="258" y="0" type="move" name="bottom"/>
    </contour>
    <contour>
      <point x="75" y="698" type="line"/>
      <point x="75" y="0" type="line"/>
      <point x="440" y="0" type="line"/>
      <point x="440" y="107" type="line"/>
      <point x="216" y="107" type="line"/>
      <point x="216" y="698" type="line"/>
    </contour>
  </outline>
</glyph>
<glyph name="M" format="1">
  <advance width="911"/>
  <unicode hex="004D"/>
  <outline>
    <contour>
      <point x="75" y="0" type="line"/>
      <point x="216" y="0" type="line"/>
      <point x="216" y="583" type="line"/>
      <point x="157" y="576" type="line"/>
      <point x="405" y="0" type="line"/>
      <point x="506" y="0" type="line"/>
      <point x="754" y="576" type="line"/>
      <point x="696" y="583" type="line"/>
      <point x="696" y="0" type="line"/>
      <point x="836" y="0" type="line"/>
      <point x="836" y="698" type="line"/>
      <point x="680" y="698" type="line"/>
      <point x="428" y="118" type="line"/>
      <point x="483" y="118" type="line"/>
      <point x="232" y="698" type="line"/>
      <point x="75" y="698" type="line"/>
    </contour>
  </outline>
</glyph>
<glyph name="N" format="1">
  <advance width="748"/>
  <unicode hex="004E"/>
  <outline>
    <contour>
      <point x="374" y="700" type="move" name="top"/>
    </contour>
    <contour>
      <point x="374" y="0" type="move" name="bottom"/>
    </contour>
    <contour>
      <point x="532" y="700" type="line"/>
      <point x="532" y="216" type="line"/>
      <point x="216" y="700" type="line"/>
      <point x="75" y="700" type="line"/>
      <point x="75" y="0" type="line"/>
      <point x="216" y="0" type="line"/>
      <point x="216" y="484" type="line"/>
      <point x="532" y="0" type="line"/>
      <point x="673" y="0" type="line"/>
      <point x="673" y="700" type="line"/>
    </contour>
  </outline>
</glyph>
<glyph name="O" format="1">
  <advance width="786"/>
  <unicode hex="004F"/>
  <outline>
    <contour>
      <point x="393" y="700" type="move" name="top"/>
    </contour>
    <contour>
      <point x="36" y="351" type="curve" smooth="yes"/>
      <point x="36" y="141"/>
      <point x="195" y="-7"/>
      <point x="393" y="-7" type="curve" smooth="yes"/>
      <point x="591" y="-7"/>
      <point x="750" y="141"/>
      <point x="750" y="351" type="curve" smooth="yes"/>
      <point x="750" y="560"/>
      <point x="592" y="708"/>
      <point x="393" y="708" type="curve" smooth="yes"/>
      <point x="195" y="708"/>
      <point x="36" y="560"/>
    </contour>
    <contour>
      <point x="606" y="351" type="curve" smooth="yes"/>
      <point x="606" y="212"/>
      <point x="519" y="122"/>
      <point x="393" y="122" type="curve" smooth="yes"/>
      <point x="267" y="122"/>
      <point x="179" y="212"/>
      <point x="179" y="351" type="curve" smooth="yes"/>
      <point x="179" y="490"/>
      <point x="267" y="579"/>
      <point x="393" y="579" type="curve" smooth="yes"/>
      <point x="519" y="579"/>
      <point x="606" y="490"/>
    </contour>
  </outline>
</glyph>
<glyph name="P" format="1">
  <advance width="615"/>
  <unicode hex="0050"/>
  <outline>
    <contour>
      <point x="216" y="386" type="line"/>
      <point x="216" y="590" type="line"/>
      <point x="332" y="590" type="line" smooth="yes"/>
      <point x="404" y="590"/>
      <point x="441" y="549"/>
      <point x="441" y="488" type="curve" smooth="yes"/>
      <point x="441" y="427"/>
      <point x="404" y="386"/>
      <point x="332" y="386" type="curve" smooth="yes"/>
    </contour>
    <contour>
      <point x="584" y="488" type="curve" smooth="yes"/>
      <point x="584" y="600"/>
      <point x="501" y="698"/>
      <point x="332" y="698" type="curve" smooth="yes"/>
      <point x="75" y="698" type="line"/>
      <point x="75" y="0" type="line"/>
      <point x="216" y="0" type="line"/>
      <point x="216" y="278" type="line"/>
      <point x="332" y="278" type="line" smooth="yes"/>
      <point x="525" y="278"/>
      <point x="584" y="397"/>
    </contour>
  </outline>
</glyph>
<glyph name="Q" format="1">
  <advance width="790"/>
  <unicode hex="0051"/>
  <outline>
    <contour>
      <point x="435" y="62" type="line"/>
      <point x="586" y="-121" type="line"/>
      <point x="760" y="-121" type="line"/>
      <point x="574" y="95" type="line"/>
    </contour>
    <component base="O"/>
  </outline>
</glyph>
<glyph name="R" format="1">
  <advance width="649"/>
  <unicode hex="0052"/>
  <outline>
    <contour>
      <point x="324" y="700" type="move" name="top"/>
    </contour>
    <contour>
      <point x="324" y="0" type="move" name="bottom"/>
    </contour>
    <contour>
      <point x="441" y="488" type="curve" smooth="yes"/>
      <point x="441" y="427"/>
      <point x="404" y="386"/>
      <point x="332" y="386" type="curve" smooth="yes"/>
      <point x="216" y="386" type="line"/>
      <point x="216" y="590" type="line"/>
      <point x="332" y="590" type="line" smooth="yes"/>
      <point x="404" y="590"/>
      <point x="441" y="549"/>
    </contour>
    <contour>
      <point x="75" y="698" type="line"/>
      <point x="75" y="0" type="line"/>
      <point x="216" y="0" type="line"/>
      <point x="216" y="278" type="line"/>
      <point x="332" y="278" type="line" smooth="yes"/>
      <point x="525" y="278"/>
      <point x="584" y="397"/>
      <point x="584" y="488" type="curve" smooth="yes"/>
      <point x="584" y="600"/>
      <point x="501" y="698"/>
      <point x="332" y="698" type="curve" smooth="yes"/>
    </contour>
    <contour>
      <point x="240" y="315" type="line"/>
      <point x="429" y="0" type="line"/>
      <point x="596" y="0" type="line"/>
      <point x="401" y="315" type="line"/>
    </contour>
  </outline>
</glyph>
<glyph name="S" format="1">
  <advance width="624"/>
  <unicode hex="0053"/>
  <outline>
    <contour>
      <point x="313" y="700" type="move" name="top"/>
    </contour>
    <contour>
      <point x="313" y="0" type="move" name="bottom"/>
    </contour>
    <contour>
      <point x="206" y="508" type="curve" smooth="yes"/>
      <point x="206" y="569"/>
      <point x="249" y="595"/>
      <point x="302" y="595" type="curve" smooth="yes"/>
      <point x="358" y="595"/>
      <point x="394" y="560"/>
      <point x="399" y="508" type="curve"/>
      <point x="553" y="508" type="line"/>
      <point x="545" y="647"/>
      <point x="445" y="708"/>
      <point x="306" y="708" type="curve" smooth="yes"/>
      <point x="164" y="708"/>
      <point x="60" y="627"/>
      <point x="60" y="499" type="curve" smooth="yes"/>
      <point x="60" y="246"/>
      <point x="419" y="352"/>
      <point x="419" y="195" type="curve" smooth="yes"/>
      <point x="419" y="143"/>
      <point x="380" y="105"/>
      <point x="315" y="105" type="curve" smooth="yes"/>
      <point x="250" y="105"/>
      <point x="215" y="138"/>
      <point x="210" y="197" type="curve"/>
      <point x="60" y="197" type="line"/>
      <point x="60" y="65"/>
      <point x="166" y="-7"/>
      <point x="315" y="-7" type="curve" smooth="yes"/>
      <point x="470" y="-7"/>
      <point x="564" y="93"/>
      <point x="564" y="203" type="curve" smooth="yes"/>
      <point x="564" y="458"/>
      <point x="206" y="347"/>
    </contour>
  </outline>
</glyph>
<glyph name="T" format="1">
  <advance width="584"/>
  <unicode hex="0054"/>
  <outline>
    <contour>
      <point x="292" y="700" type="move" name="top"/>
    </contour>
    <contour>
      <point x="292" y="0" type="move" name="bottom"/>
    </contour>
    <contour>
      <point x="34" y="590" type="line"/>
      <point x="222" y="590" type="line"/>
      <point x="222" y="0" type="line"/>
      <point x="362" y="0" type="line"/>
      <point x="362" y="590" type="line"/>
      <point x="551" y="590" type="line"/>
      <point x="551" y="698" type="line"/>
      <point x="34" y="698" type="line"/>
    </contour>
  </outline>
</glyph>
<glyph name="U" format="1">
  <advance width="709"/>
  <unicode hex="0055"/>
  <outline>
    <contour>
      <point x="355" y="700" type="move" name="top"/>
    </contour>
    <contour>
      <point x="505" y="0" type="move" name="ogonek"/>
    </contour>
    <contour>
      <point x="73" y="268" type="line"/>
      <point x="73" y="82"/>
      <point x="204" y="-7"/>
      <point x="352" y="-7" type="curve" smooth="yes"/>
      <point x="500" y="-7"/>
      <point x="637" y="82"/>
      <point x="637" y="268" type="curve" smooth="yes"/>
      <point x="637" y="698" type="line"/>
      <point x="497" y="698" type="line"/>
      <point x="497" y="268" type="line" smooth="yes"/>
      <point x="497" y="171"/>
      <point x="444" y="122"/>
      <point x="355" y="122" type="curve" smooth="yes"/>
      <point x="265" y="122"/>
      <point x="214" y="171"/>
      <point x="214" y="268" type="curve" smooth="yes"/>
      <point x="214" y="698" type="line"/>
      <point x="73" y="698" type="line"/>
    </contour>
  </outline>
</glyph>
<glyph name="V" format="1">
  <advance width="709"/>
  <unicode hex="0056"/>
  <outline>
    <contour>
      <point x="269" y="0" type="line"/>
      <point x="439" y="0" type="line"/>
      <point x="695" y="698" type="line"/>
      <point x="545" y="698" type="line"/>
      <point x="354" y="141" type="line"/>
      <point x="163" y="698" type="line"/>
      <point x="14" y="698" type="line"/>
    </contour>
  </outline>
</glyph>
<glyph name="W" format="1">
  <advance width="1020"/>
  <unicode hex="0057"/>
  <outline>
    <contour>
      <point x="211" y="0" type="line"/>
      <point x="371" y="0" type="line"/>
      <point x="524" y="537" type="line"/>
      <point x="496" y="537" type="line"/>
      <point x="645" y="0" type="line"/>
      <point x="805" y="0" type="line"/>
      <point x="1007" y="698" type="line"/>
      <point x="856" y="698" type="line"/>
      <point x="711" y="82" type="line"/>
      <point x="751" y="82" type="line"/>
      <point x="597" y="698" type="line"/>
      <point x="438" y="698" type="line"/>
      <point x="277" y="83" type="line"/>
      <point x="316" y="83" type="line"/>
      <point x="163" y="698" type="line"/>
      <point x="13" y="698" type="line"/>
    </contour>
  </outline>
</glyph>
<glyph name="X" format="1">
  <advance width="696"/>
  <unicode hex="0058"/>
  <outline>
    <contour>
      <point x="487" y="0" type="line"/>
      <point x="646" y="0" type="line"/>
      <point x="209" y="698" type="line"/>
      <point x="50" y="698" type="line"/>
    </contour>
    <contour>
      <point x="293" y="388" type="line"/>
      <point x="50" y="0" type="line"/>
      <point x="209" y="0" type="line"/>
      <point x="371" y="279" type="line"/>
    </contour>
    <contour>
      <point x="404" y="311" type="line"/>
      <point x="646" y="698" type="line"/>
      <point x="488" y="698" type="line"/>
      <point x="325" y="420" type="line"/>
    </contour>
  </outline>
</glyph>
<glyph name="Y" format="1">
  <advance width="643"/>
  <unicode hex="0059"/>
  <outline>
    <contour>
      <point x="322" y="700" type="move" name="top"/>
    </contour>
    <contour>
      <point x="251" y="240" type="line"/>
      <point x="251" y="0" type="line"/>
      <point x="392" y="0" type="line"/>
      <point x="392" y="240" type="line"/>
      <point x="628" y="698" type="line"/>
      <point x="470" y="698" type="line"/>
      <point x="291" y="302" type="line"/>
      <point x="352" y="302" type="line"/>
      <point x="173" y="698" type="line"/>
      <point x="15" y="698" type="line"/>
    </contour>
  </outline>
</glyph>
<glyph name="Z" format="1">
  <advance width="576"/>
  <unicode hex="005A"/>
  <outline>
    <contour>
      <point x="288" y="700" type="move" name="top"/>
    </contour>
    <contour>
      <point x="526" y="698" type="line"/>
      <point x="50" y="698" type="line"/>
      <point x="50" y="590" type="line"/>
      <point x="364" y="590" type="line"/>
      <point x="50" y="108" type="line"/>
      <point x="50" y="0" type="line"/>
      <point x="526" y="0" type="line"/>
      <point x="526" y="108" type="line"/>
      <point x="212" y="108" type="line"/>
      <point x="526" y="590" type="line"/>
    </contour>
  </outline>
</glyph>
<glyph name="bracketleft" format="1">
  <advance width="497"/>
  <unicode hex="005B"/>
  <outline>
    <contour>
      <point x="135" y="-181" type="line"/>
      <point x="386" y="-181" type="line"/>
      <point x="386" y="-66" type="line"/>
      <point x="267" y="-66" type="line"/>
      <point x="267" y="832" type="line"/>
      <point x="386" y="832" type="line"/>
      <point x="386" y="947" type="line"/>
      <point x="135" y="947" type="line"/>
    </contour>
  </outline>
</glyph>
<glyph name="backslash" format="1">
  <advance width="757"/>
  <unicode hex="005C"/>
  <outline>
    <contour>
      <point x="310" y="947" type="line"/>
      <point x="173" y="947" type="line"/>
      <point x="458" y="-181" type="line"/>
      <point x="594" y="-181" type="line"/>
    </contour>
  </outline>
</glyph>
<glyph name="bracketright" format="1">
  <advance width="495"/>
  <unicode hex="005D"/>
  <outline>
    <contour>
      <point x="361" y="947" type="line"/>
      <point x="110" y="947" type="line"/>
      <point x="110" y="832" type="line"/>
      <point x="229" y="832" type="line"/>
      <point x="229" y="-66" type="line"/>
      <point x="110" y="-66" type="line"/>
      <point x="110" y="-181" type="line"/>
      <point x="361" y="-181" type="line"/>
    </contour>
  </outline>
</glyph>
<glyph name="asciicircum" format="1">
  <advance width="680"/>
  <unicode hex="005E"/>
  <outline>
    <contour>
      <point x="503" y="167" type="line"/>
      <point x="647" y="167" type="line"/>
      <point x="408" y="700" type="line"/>
      <point x="273" y="700" type="line"/>
      <point x="33" y="167" type="line"/>
      <point x="176" y="167" type="line"/>
      <point x="340" y="534" type="line"/>
    </contour>
  </outline>
</glyph>
<glyph name="underscore" format="1">
  <advance width="790"/>
  <unicode hex="005F"/>
  <outline>
    <contour>
      <point x="107" y="-174" type="line"/>
      <point x="694" y="-174" type="line"/>
      <point x="694" y="-41" type="line"/>
      <point x="107" y="-41" type="line"/>
    </contour>
  </outline>
</glyph>
<glyph name="grave" format="1">
  <advance width="271"/>
  <unicode hex="0060"/>
  <outline>
    <contour>
      <point x="131" y="554" type="move" name="_top"/>
    </contour>
    <contour>
      <point x="10" y="698" type="line"/>
      <point x="240" y="593" type="line"/>
      <point x="240" y="692" type="line"/>
      <point x="10" y="812" type="line"/>
    </contour>
  </outline>
</glyph>
<glyph name="c" format="1">
  <advance width="600"/>
  <unicode hex="0063"/>
  <outline>
    <contour>
      <point x="300" y="554" type="move" name="top"/>
    </contour>
    <contour>
      <point x="300" y="0" type="move" name="bottom"/>
    </contour>
    <contour>
      <point x="36" y="277" type="curve" smooth="yes"/>
      <point x="36" y="103"/>
      <point x="150" y="-8"/>
      <point x="309" y="-8" type="curve" smooth="yes"/>
      <point x="444" y="-8"/>
      <point x="538" y="68"/>
      <point x="569" y="181" type="curve"/>
      <point x="417" y="181" type="line"/>
      <point x="398" y="133"/>
      <point x="366" y="111"/>
      <point x="309" y="111" type="curve" smooth="yes"/>
      <point x="228" y="111"/>
      <point x="179" y="175"/>
      <point x="179" y="277" type="curve" smooth="yes"/>
      <point x="179" y="379"/>
      <point x="228" y="443"/>
      <point x="309" y="443" type="curve" smooth="yes"/>
      <point x="366" y="443"/>
      <point x="401" y="415"/>
      <point x="417" y="374" type="curve"/>
      <point x="569" y="374" type="line"/>
      <point x="538" y="494"/>
      <point x="444" y="562"/>
      <point x="309" y="562" type="curve" smooth="yes"/>
      <point x="150" y="562"/>
      <point x="36" y="451"/>
    </contour>
  </outline>
</glyph>
<glyph name="e" format="1">
  <advance width="624"/>
  <unicode hex="0065"/>
  <outline>
    <contour>
      <point x="312" y="554" type="move" name="top"/>
    </contour>
    <contour>
      <point x="492" y="71" type="move" name="ogonek"/>
    </contour>
    <contour>
      <point x="312" y="0" type="move" name="bottom"/>
    </contour>
    <contour>
      <point x="163" y="231" type="line"/>
      <point x="584" y="231" type="line"/>
      <point x="587" y="250"/>
      <point x="588" y="268"/>
      <point x="588" y="285" type="curve" smooth="yes"/>
      <point x="588" y="456"/>
      <point x="470" y="562"/>
      <point x="311" y="562" type="curve" smooth="yes"/>
      <point x="150" y="562"/>
      <point x="36" y="452"/>
      <point x="36" y="278" type="curve" smooth="yes"/>
      <point x="36" y="104"/>
      <point x="150" y="-8"/>
      <point x="309" y="-8" type="curve" smooth="yes"/>
      <point x="444" y="-8"/>
      <point x="538" y="69"/>
      <point x="569" y="171" type="curve"/>
      <point x="417" y="171" type="line"/>
      <point x="398" y="138"/>
      <point x="369" y="111"/>
      <point x="309" y="111" type="curve" smooth="yes"/>
      <point x="231" y="111"/>
      <point x="179" y="166"/>
      <point x="179" y="246" type="curve" smooth="yes"/>
      <point x="179" y="301" type="line" smooth="yes"/>
      <point x="179" y="387"/>
      <point x="236" y="443"/>
      <point x="309" y="443" type="curve" smooth="yes"/>
      <point x="381" y="443"/>
      <point x="438" y="396"/>
      <point x="442" y="322" type="curve"/>
      <point x="164" y="322" type="line"/>
    </contour>
  </outline>
</glyph>
<glyph name="f" format="1">
  <advance width="334"/>
  <unicode hex="0066"/>
  <outline>
    <contour>
      <point x="84" y="0" type="line"/>
      <point x="224" y="0" type="line"/>
      <point x="224" y="585" type="line" smooth="yes"/>
      <point x="224" y="639"/>
      <point x="246" y="659"/>
      <point x="304" y="659" type="curve"/>
      <point x="304" y="777" type="line"/>
      <point x="153" y="777"/>
      <point x="84" y="719"/>
      <point x="84" y="585" type="curve" smooth="yes"/>
    </contour>
    <contour>
      <point x="24" y="439" type="line"/>
      <point x="312" y="439" type="line"/>
      <point x="312" y="554" type="line"/>
      <point x="24" y="554" type="line"/>
    </contour>
  </outline>
</glyph>
<glyph name="g" format="1">
  <advance width="687"/>
  <unicode hex="0067"/>
  <outline>
    <contour>
      <point x="344" y="554" type="move" name="top"/>
    </contour>
    <contour>
      <point x="472" y="277" type="curve" smooth="yes"/>
      <point x="472" y="170"/>
      <point x="398" y="114"/>
      <point x="325" y="114" type="curve" smooth="yes"/>
      <point x="253" y="114"/>
      <point x="179" y="171"/>
      <point x="179" y="278" type="curve" smooth="yes"/>
      <point x="179" y="385"/>
      <point x="253" y="440"/>
      <point x="325" y="440" type="curve" smooth="yes"/>
      <point x="398" y="440"/>
      <point x="472" y="384"/>
    </contour>
    <contour>
      <point x="36" y="278" type="curve" smooth="yes"/>
      <point x="36" y="108"/>
      <point x="151" y="-8"/>
      <point x="293" y="-8" type="curve" smooth="yes"/>
      <point x="375" y="-8"/>
      <point x="435" y="34"/>
      <point x="472" y="93" type="curve"/>
      <point x="472" y="-4" type="line" smooth="yes"/>
      <point x="472" y="-107"/>
      <point x="412" y="-152"/>
      <point x="338" y="-152" type="curve" smooth="yes"/>
      <point x="268" y="-152"/>
      <point x="215" y="-122"/>
      <point x="198" y="-72" type="curve"/>
      <point x="60" y="-72" type="line"/>
      <point x="74" y="-204"/>
      <point x="182" y="-274"/>
      <point x="338" y="-274" type="curve" smooth="yes"/>
      <point x="524" y="-274"/>
      <point x="612" y="-154"/>
      <point x="612" y="-4" type="curve" smooth="yes"/>
      <point x="612" y="554" type="line"/>
      <point x="472" y="554" type="line"/>
      <point x="472" y="468" type="line"/>
      <point x="436" y="524"/>
      <point x="375" y="562"/>
      <point x="293" y="562" type="curve" smooth="yes"/>
      <point x="151" y="562"/>
      <point x="36" y="448"/>
    </contour>
  </outline>
</glyph>
<glyph name="i" format="1">
  <advance width="291"/>
  <unicode hex="0069"/>
  <outline>
    <contour>
      <point x="216" y="0" type="move" name="ogonek"/>
    </contour>
    <contour>
      <point x="75" y="0" type="line"/>
      <point x="216" y="0" type="line"/>
      <point x="216" y="554" type="line"/>
      <point x="75" y="554" type="line"/>
    </contour>
    <contour>
      <point x="145" y="609" type="curve" smooth="yes"/>
      <point x="193" y="609"/>
      <point x="231" y="647"/>
      <point x="231" y="695" type="curve" smooth="yes"/>
      <point x="231" y="743"/>
      <point x="193" y="781"/>
      <point x="145" y="781" type="curve" smooth="yes"/>
      <point x="98" y="781"/>
      <point x="60" y="743"/>
      <point x="60" y="695" type="curve" smooth="yes"/>
      <point x="60" y="647"/>
      <point x="98" y="609"/>
    </contour>
  </outline>
</glyph>
<glyph name="j" format="1">
  <advance width="291"/>
  <unicode hex="006A"/>
  <outline>
    <contour>
      <point x="145" y="609" type="curve" smooth="yes"/>
      <point x="193" y="609"/>
      <point x="231" y="647"/>
      <point x="231" y="695" type="curve" smooth="yes"/>
      <point x="231" y="743"/>
      <point x="193" y="781"/>
      <point x="145" y="781" type="curve" smooth="yes"/>
      <point x="98" y="781"/>
      <point x="60" y="743"/>
      <point x="60" y="695" type="curve" smooth="yes"/>
      <point x="60" y="647"/>
      <point x="98" y="609"/>
    </contour>
    <contour>
      <point x="75" y="554" type="line"/>
      <point x="75" y="-96" type="line" smooth="yes"/>
      <point x="75" y="-130"/>
      <point x="60" y="-145"/>
      <point x="17" y="-145" type="curve" smooth="yes"/>
      <point x="-23" y="-145" type="line"/>
      <point x="-23" y="-264" type="line"/>
      <point x="39" y="-264" type="line" smooth="yes"/>
      <point x="146" y="-264"/>
      <point x="216" y="-222"/>
      <point x="216" y="-96" type="curve" smooth="yes"/>
      <point x="216" y="554" type="line"/>
    </contour>
  </outline>
</glyph>
<glyph name="k" format="1">
  <advance width="600"/>
  <unicode hex="006B"/>
  <outline>
    <contour>
      <point x="300" y="0" type="move" name="bottom"/>
    </contour>
    <contour>
      <point x="75" y="0" type="line"/>
      <point x="216" y="0" type="line"/>
      <point x="216" y="740" type="line"/>
      <point x="75" y="740" type="line"/>
    </contour>
    <contour>
      <point x="181" y="273" type="line"/>
      <point x="406" y="0" type="line"/>
      <point x="594" y="0" type="line"/>
      <point x="337" y="286" type="line"/>
      <point x="330" y="254" type="line"/>
      <point x="594" y="554" type="line"/>
      <point x="403" y="554" type="line"/>
    </contour>
  </outline>
</glyph>
<glyph name="l" format="1">
  <advance width="291"/>
  <unicode hex="006C"/>
  <outline>
    <contour>
      <point x="146" y="10" type="move" name="commaaccent"/>
    </contour>
    <contour>
      <point x="146" y="740" type="move" name="top"/>
    </contour>
    <contour>
      <point x="271" y="554" type="move" name="topright"/>
    </contour>
    <contour>
      <point x="146" y="0" type="move" name="bottom"/>
    </contour>
    <contour>
      <point x="75" y="0" type="line"/>
      <point x="216" y="0" type="line"/>
      <point x="216" y="740" type="line"/>
      <point x="75" y="740" type="line"/>
    </contour>
  </outline>
</glyph>
<glyph name="m" format="1">
  <advance width="1060"/>
  <unicode hex="006D"/>
  <outline>
    <contour>
      <point x="75" y="0" type="line"/>
      <point x="216" y="0" type="line"/>
      <point x="216" y="554" type="line"/>
      <point x="75" y="554" type="line"/>
    </contour>
    <contour>
      <point x="463" y="0" type="line"/>
      <point x="603" y="0" type="line"/>
      <point x="603" y="326" type="line" smooth="yes"/>
      <point x="603" y="478"/>
      <point x="510" y="562"/>
      <point x="388" y="562" type="curve" smooth="yes"/>
      <point x="290" y="562"/>
      <point x="216" y="507"/>
      <point x="194" y="415" type="curve"/>
      <point x="216" y="306" type="line"/>
      <point x="216" y="394"/>
      <point x="265" y="440"/>
      <point x="340" y="440" type="curve" smooth="yes"/>
      <point x="414" y="440"/>
      <point x="463" y="394"/>
      <point x="463" y="306" type="curve" smooth="yes"/>
    </contour>
    <contour>
      <point x="850" y="0" type="line"/>
      <point x="990" y="0" type="line"/>
      <point x="990" y="326" type="line" smooth="yes"/>
      <point x="990" y="478"/>
      <point x="899" y="562"/>
      <point x="770" y="562" type="curve" smooth="yes"/>
      <point x="664" y="562"/>
      <point x="584" y="493"/>
      <point x="555" y="399" type="curve"/>
      <point x="603" y="306" type="line"/>
      <point x="603" y="394"/>
      <point x="652" y="440"/>
      <point x="727" y="440" type="curve" smooth="yes"/>
      <point x="801" y="440"/>
      <point x="850" y="394"/>
      <point x="850" y="306" type="curve" smooth="yes"/>
    </contour>
  </outline>
</glyph>
<glyph name="n" format="1">
  <advance width="673"/>
  <unicode hex="006E"/>
  <outline>
    <contour>
      <point x="353" y="554" type="move" name="top"/>
    </contour>
    <contour>
      <point x="337" y="0" type="move" name="bottom"/>
    </contour>
    <contour>
      <point x="75" y="0" type="line"/>
      <point x="216" y="0" type="line"/>
      <point x="216" y="554" type="line"/>
      <point x="75" y="554" type="line"/>
    </contour>
    <contour>
      <point x="463" y="0" type="line"/>
      <point x="603" y="0" type="line"/>
      <point x="603" y="326" type="line" smooth="yes"/>
      <point x="603" y="478"/>
      <point x="510" y="562"/>
      <point x="388" y="562" type="curve" smooth="yes"/>
      <point x="290" y="562"/>
      <point x="216" y="507"/>
      <point x="194" y="415" type="curve"/>
      <point x="216" y="306" type="line"/>
      <point x="216" y="394"/>
      <point x="265" y="440"/>
      <point x="340" y="440" type="curve" smooth="yes"/>
      <point x="414" y="440"/>
      <point x="463" y="394"/>
      <point x="463" y="306" type="curve" smooth="yes"/>
    </contour>
  </outline>
</glyph>
<glyph name="o" format="1">
  <advance width="645"/>
  <unicode hex="006F"/>
  <outline>
    <contour>
      <point x="323" y="554" type="move" name="top"/>
    </contour>
    <contour>
      <point x="37" y="278" type="curve" smooth="yes"/>
      <point x="37" y="104"/>
      <point x="162" y="-8"/>
      <point x="321" y="-8" type="curve" smooth="yes"/>
      <point x="480" y="-8"/>
      <point x="608" y="104"/>
      <point x="608" y="278" type="curve" smooth="yes"/>
      <point x="608" y="452"/>
      <point x="481" y="562"/>
      <point x="323" y="562" type="curve" smooth="yes"/>
      <point x="164" y="562"/>
      <point x="37" y="452"/>
    </contour>
    <contour>
      <point x="465" y="277" type="curve" smooth="yes"/>
      <point x="465" y="165"/>
      <point x="393" y="111"/>
      <point x="321" y="111" type="curve" smooth="yes"/>
      <point x="248" y="111"/>
      <point x="180" y="165"/>
      <point x="180" y="277" type="curve" smooth="yes"/>
      <point x="180" y="390"/>
      <point x="248" y="443"/>
      <point x="322" y="443" type="curve" smooth="yes"/>
      <point x="394" y="443"/>
      <point x="465" y="390"/>
    </contour>
  </outline>
</glyph>
<glyph name="q" format="1">
  <advance width="687"/>
  <unicode hex="0071"/>
  <outline>
    <contour>
      <point x="36" y="278" type="curve" smooth="yes"/>
      <point x="36" y="108"/>
      <point x="151" y="-8"/>
      <point x="293" y="-8" type="curve" smooth="yes"/>
      <point x="375" y="-8"/>
      <point x="435" y="34"/>
      <point x="472" y="93" type="curve"/>
      <point x="472" y="-264" type="line"/>
      <point x="612" y="-264" type="line"/>
      <point x="612" y="554" type="line"/>
      <point x="472" y="554" type="line"/>
      <point x="472" y="468" type="line"/>
      <point x="436" y="524"/>
      <point x="375" y="562"/>
      <point x="293" y="562" type="curve" smooth="yes"/>
      <point x="151" y="562"/>
      <point x="36" y="448"/>
    </contour>
    <contour>
      <point x="472" y="277" type="curve" smooth="yes"/>
      <point x="472" y="170"/>
      <point x="398" y="114"/>
      <point x="325" y="114" type="curve" smooth="yes"/>
      <point x="253" y="114"/>
      <point x="179" y="171"/>
      <point x="179" y="278" type="curve" smooth="yes"/>
      <point x="179" y="385"/>
      <point x="253" y="440"/>
      <point x="325" y="440" type="curve" smooth="yes"/>
      <point x="398" y="440"/>
      <point x="472" y="384"/>
    </contour>
  </outline>
</glyph>
<glyph name="r" format="1">
  <advance width="403"/>
  <unicode hex="0072"/>
  <outline>
    <contour>
      <point x="256" y="554" type="move" name="top"/>
    </contour>
    <contour>
      <point x="144" y="0" type="move" name="bottom"/>
    </contour>
    <contour>
      <point x="216" y="278" type="line"/>
      <point x="216" y="386"/>
      <point x="264" y="418"/>
      <point x="343" y="418" type="curve" smooth="yes"/>
      <point x="378" y="418" type="line"/>
      <point x="378" y="562" type="line"/>
      <point x="249" y="562"/>
      <point x="176" y="430"/>
      <point x="176" y="278" type="curve"/>
    </contour>
    <contour>
      <point x="75" y="0" type="line"/>
      <point x="216" y="0" type="line"/>
      <point x="216" y="554" type="line"/>
      <point x="75" y="554" type="line"/>
    </contour>
  </outline>
</glyph>
<glyph name="s" format="1">
  <advance width="544"/>
  <unicode hex="0073"/>
  <outline>
    <contour>
      <point x="272" y="554" type="move" name="top"/>
    </contour>
    <contour>
      <point x="272" y="0" type="move" name="bottom"/>
    </contour>
    <contour>
      <point x="44" y="392" type="curve" smooth="yes"/>
      <point x="44" y="196"/>
      <point x="363" y="273"/>
      <point x="363" y="164" type="curve" smooth="yes"/>
      <point x="363" y="128"/>
      <point x="329" y="102"/>
      <point x="276" y="102" type="curve" smooth="yes"/>
      <point x="225" y="102"/>
      <point x="192" y="126"/>
      <point x="187" y="172" type="curve"/>
      <point x="43" y="172" type="line"/>
      <point x="51" y="52"/>
      <point x="146" y="-8"/>
      <point x="275" y="-8" type="curve" smooth="yes"/>
      <point x="403" y="-8"/>
      <point x="499" y="60"/>
      <point x="499" y="161" type="curve" smooth="yes"/>
      <point x="499" y="365"/>
      <point x="180" y="285"/>
      <point x="180" y="394" type="curve" smooth="yes"/>
      <point x="180" y="428"/>
      <point x="210" y="452"/>
      <point x="264" y="452" type="curve" smooth="yes"/>
      <point x="317" y="452"/>
      <point x="346" y="429"/>
      <point x="350" y="382" type="curve"/>
      <point x="494" y="382" type="line"/>
      <point x="488" y="494"/>
      <point x="398" y="562"/>
      <point x="273" y="562" type="curve" smooth="yes"/>
      <point x="125" y="562"/>
      <point x="44" y="483"/>
    </contour>
  </outline>
</glyph>
<glyph name="t" format="1">
  <advance width="392"/>
  <unicode hex="0074"/>
  <outline>
    <contour>
      <point x="223" y="856" type="move" name="topright"/>
    </contour>
    <contour>
      <point x="197" y="0" type="move" name="bottom"/>
    </contour>
    <contour>
      <point x="91" y="168" type="line"/>
      <point x="91" y="42"/>
      <point x="161" y="0"/>
      <point x="268" y="0" type="curve" smooth="yes"/>
      <point x="357" y="0" type="line"/>
      <point x="357" y="118" type="line"/>
      <point x="290" y="118" type="line" smooth="yes"/>
      <point x="247" y="118"/>
      <point x="232" y="133"/>
      <point x="232" y="168" type="curve" smooth="yes"/>
      <point x="232" y="691" type="line"/>
      <point x="91" y="691" type="line"/>
    </contour>
    <contour>
      <point x="356" y="439" type="line"/>
      <point x="356" y="554" type="line"/>
      <point x="32" y="554" type="line"/>
      <point x="32" y="439" type="line"/>
    </contour>
  </outline>
</glyph>
<glyph name="u" format="1">
  <advance width="673"/>
  <unicode hex="0075"/>
  <outline>
    <contour>
      <point x="337" y="554" type="move" name="top"/>
    </contour>
    <contour>
      <point x="598" y="-1" type="move" name="ogonek"/>
    </contour>
    <contour>
      <point x="598" y="554" type="line"/>
      <point x="457" y="554" type="line"/>
      <point x="457" y="0" type="line"/>
      <point x="598" y="0" type="line"/>
    </contour>
    <contour>
      <point x="210" y="554" type="line"/>
      <point x="70" y="554" type="line"/>
      <point x="70" y="229" type="line" smooth="yes"/>
      <point x="70" y="77"/>
      <point x="163" y="-7"/>
      <point x="284" y="-7" type="curve" smooth="yes"/>
      <point x="383" y="-7"/>
      <point x="457" y="48"/>
      <point x="479" y="140" type="curve"/>
      <point x="457" y="249" type="line"/>
      <point x="457" y="161"/>
      <point x="408" y="114"/>
      <point x="333" y="114" type="curve" smooth="yes"/>
      <point x="258" y="114"/>
      <point x="210" y="161"/>
      <point x="210" y="249" type="curve" smooth="yes"/>
    </contour>
  </outline>
</glyph>
<glyph name="v" format="1">
  <advance width="599"/>
  <unicode hex="0076"/>
  <outline>
    <contour>
      <point x="7" y="554" type="line"/>
      <point x="211" y="0" type="line"/>
      <point x="388" y="0" type="line"/>
      <point x="592" y="554" type="line"/>
      <point x="442" y="554" type="line"/>
      <point x="300" y="121" type="line"/>
      <point x="157" y="554" type="line"/>
    </contour>
  </outline>
</glyph>
<glyph name="w" format="1">
  <advance width="844"/>
  <unicode hex="0077"/>
  <outline>
    <contour>
      <point x="177" y="0" type="line"/>
      <point x="327" y="0" type="line"/>
      <point x="448" y="467" type="line"/>
      <point x="399" y="467" type="line"/>
      <point x="518" y="0" type="line"/>
      <point x="668" y="0" type="line"/>
      <point x="838" y="554" type="line"/>
      <point x="703" y="554" type="line"/>
      <point x="578" y="38" type="line"/>
      <point x="624" y="38" type="line"/>
      <point x="501" y="554" type="line"/>
      <point x="353" y="554" type="line"/>
      <point x="228" y="38" type="line"/>
      <point x="274" y="38" type="line"/>
      <point x="149" y="554" type="line"/>
      <point x="7" y="554" type="line"/>
    </contour>
  </outline>
</glyph>
<glyph name="x" format="1">
  <advance width="522"/>
  <unicode hex="0078"/>
  <outline>
    <contour>
      <point x="357" y="0" type="line"/>
      <point x="515" y="0" type="line"/>
      <point x="165" y="554" type="line"/>
      <point x="7" y="554" type="line"/>
    </contour>
    <contour>
      <point x="223" y="325" type="line"/>
      <point x="7" y="0" type="line"/>
      <point x="149" y="0" type="line"/>
      <point x="283" y="219" type="line"/>
    </contour>
    <contour>
      <point x="301" y="229" type="line"/>
      <point x="516" y="554" type="line"/>
      <point x="373" y="554" type="line"/>
      <point x="240" y="335" type="line"/>
    </contour>
  </outline>
</glyph>
<glyph name="y" format="1">
  <advance width="609"/>
  <unicode hex="0079"/>
  <outline>
    <contour>
      <point x="305" y="554" type="move" name="top"/>
    </contour>
    <contour>
      <point x="224" y="10" type="line"/>
      <point x="109" y="-262" type="line"/>
      <point x="256" y="-262" type="line"/>
      <point x="602" y="554" type="line"/>
      <point x="455" y="554" type="line"/>
      <point x="306" y="160" type="line"/>
      <point x="165" y="554" type="line"/>
      <point x="7" y="554" type="line"/>
    </contour>
  </outline>
</glyph>
<glyph name="z" format="1">
  <advance width="492"/>
  <unicode hex="007A"/>
  <outline>
    <contour>
      <point x="246" y="554" type="move" name="top"/>
    </contour>
    <contour>
      <point x="444" y="554" type="line"/>
      <point x="47" y="554" type="line"/>
      <point x="47" y="439" type="line"/>
      <point x="281" y="439" type="line"/>
      <point x="47" y="116" type="line"/>
      <point x="47" y="0" type="line"/>
      <point x="444" y="0" type="line"/>
      <point x="444" y="116" type="line"/>
      <point x="211" y="116" type="line"/>
      <point x="444" y="439" type="line"/>
    </contour>
  </outline>
</glyph>
<glyph name="braceleft" format="1">
  <advance width="536"/>
  <unicode hex="007B"/>
  <outline>
    <contour>
      <point x="235" y="373" type="line"/>
      <point x="308" y="387"/>
      <point x="340" y="432"/>
      <point x="340" y="498" type="curve" smooth="yes"/>
      <point x="340" y="563"/>
      <point x="324" y="612"/>
      <point x="324" y="690" type="curve" smooth="yes"/>
      <point x="324" y="826"/>
      <point x="379" y="916"/>
      <point x="457" y="945" type="curve"/>
      <point x="457" y="961" type="line"/>
      <point x="314" y="961" type="line"/>
      <point x="276" y="944"/>
      <point x="185" y="892"/>
      <point x="185" y="707" type="curve" smooth="yes"/>
      <point x="185" y="635"/>
      <point x="202" y="581"/>
      <point x="202" y="512" type="curve" smooth="yes"/>
      <point x="202" y="467"/>
      <point x="185" y="406"/>
      <point x="104" y="398" type="curve"/>
      <point x="104" y="346" type="line"/>
      <point x="185" y="337"/>
      <point x="202" y="277"/>
      <point x="202" y="232" type="curve" smooth="yes"/>
      <point x="202" y="163"/>
      <point x="185" y="109"/>
      <point x="185" y="37" type="curve" smooth="yes"/>
      <point x="185" y="-148"/>
      <point x="276" y="-200"/>
      <point x="314" y="-217" type="curve"/>
      <point x="457" y="-217" type="line"/>
      <point x="457" y="-201" type="line"/>
      <point x="379" y="-172"/>
      <point x="324" y="-82"/>
      <point x="324" y="54" type="curve" smooth="yes"/>
      <point x="324" y="132"/>
      <point x="340" y="181"/>
      <point x="340" y="246" type="curve" smooth="yes"/>
      <point x="340" y="312"/>
      <point x="309" y="357"/>
      <point x="235" y="371" type="curve"/>
    </contour>
  </outline>
</glyph>
<glyph name="bar" format="1">
  <advance width="351"/>
  <unicode hex="007C"/>
  <outline>
    <contour>
      <point x="105" y="808" type="line"/>
      <point x="105" y="-120" type="line"/>
      <point x="246" y="-120" type="line"/>
      <point x="246" y="808" type="line"/>
    </contour>
  </outline>
</glyph>
<glyph name="braceright" format="1">
  <advance width="525"/>
  <unicode hex="007D"/>
  <outline>
    <contour>
      <point x="302" y="371" type="line"/>
      <point x="228" y="357"/>
      <point x="197" y="312"/>
      <point x="197" y="246" type="curve" smooth="yes"/>
      <point x="197" y="181"/>
      <point x="213" y="132"/>
      <point x="213" y="54" type="curve" smooth="yes"/>
      <point x="213" y="-82"/>
      <point x="158" y="-172"/>
      <point x="80" y="-201" type="curve"/>
      <point x="80" y="-217" type="line"/>
      <point x="222" y="-217" type="line"/>
      <point x="260" y="-200"/>
      <point x="351" y="-148"/>
      <point x="351" y="37" type="curve" smooth="yes"/>
      <point x="351" y="109"/>
      <point x="334" y="163"/>
      <point x="334" y="232" type="curve" smooth="yes"/>
      <point x="334" y="277"/>
      <point x="352" y="337"/>
      <point x="432" y="346" type="curve"/>
      <point x="432" y="398" type="line"/>
      <point x="352" y="406"/>
      <point x="334" y="467"/>
      <point x="334" y="512" type="curve" smooth="yes"/>
      <point x="334" y="581"/>
      <point x="351" y="635"/>
      <point x="351" y="707" type="curve" smooth="yes"/>
      <point x="351" y="892"/>
      <point x="260" y="944"/>
      <point x="222" y="961" type="curve"/>
      <point x="80" y="961" type="line"/>
      <point x="80" y="945" type="line"/>
      <point x="158" y="916"/>
      <point x="213" y="826"/>
      <point x="213" y="690" type="curve" smooth="yes"/>
      <point x="213" y="612"/>
      <point x="197" y="563"/>
      <point x="197" y="498" type="curve" smooth="yes"/>
      <point x="197" y="432"/>
      <point x="229" y="387"/>
      <point x="302" y="373" type="curve"/>
    </contour>
  </outline>
</glyph>
<glyph name="asciitilde" format="1">
  <advance width="589"/>
  <unicode hex="007E"/>
  <outline>
    <contour>
      <point x="33" y="224" type="curve"/>
      <point x="133" y="224" type="line"/>
      <point x="139" y="267"/>
      <point x="166" y="288"/>
      <point x="199" y="288" type="curve"/>
      <point x="258" y="288"/>
      <point x="296" y="223"/>
      <point x="380" y="223" type="curve" smooth="yes"/>
      <point x="468" y="223"/>
      <point x="534" y="279"/>
      <point x="556" y="412" type="curve"/>
      <point x="455" y="412" type="line"/>
      <point x="449" y="369"/>
      <point x="422" y="348"/>
      <point x="389" y="348" type="curve" smooth="yes"/>
      <point x="331" y="348"/>
      <point x="292" y="413"/>
      <point x="208" y="413" type="curve" smooth="yes"/>
      <point x="120" y="413"/>
      <point x="55" y="358"/>
    </contour>
  </outline>
</glyph>
<glyph name="cent" format="1">
  <advance width="662"/>
  <unicode hex="00A2"/>
  <outline>
    <contour>
      <point x="328" y="405" type="curve" smooth="yes"/>
      <point x="390" y="405"/>
      <point x="427" y="378"/>
      <point x="440" y="334" type="curve"/>
      <point x="570" y="334" type="line"/>
      <point x="561" y="445"/>
      <point x="460" y="519"/>
      <point x="328" y="519" type="curve" smooth="yes"/>
      <point x="152" y="519"/>
      <point x="61" y="409"/>
      <point x="61" y="258" type="curve" smooth="yes"/>
      <point x="61" y="107"/>
      <point x="152" y="-4"/>
      <point x="328" y="-4" type="curve" smooth="yes"/>
      <point x="460" y="-4"/>
      <point x="561" y="71"/>
      <point x="570" y="181" type="curve"/>
      <point x="440" y="181" type="line"/>
      <point x="427" y="138"/>
      <point x="390" y="111"/>
      <point x="328" y="111" type="curve" smooth="yes"/>
      <point x="246" y="111"/>
      <point x="195" y="166"/>
      <point x="195" y="258" type="curve"/>
      <point x="195" y="350"/>
      <point x="246" y="405"/>
    </contour>
    <contour>
      <point x="291" y="432" type="line"/>
      <point x="363" y="432" type="line"/>
      <point x="363" y="602" type="line"/>
      <point x="291" y="602" type="line"/>
    </contour>
    <contour>
      <point x="291" y="-87" type="line"/>
      <point x="363" y="-87" type="line"/>
      <point x="363" y="84" type="line"/>
      <point x="291" y="84" type="line"/>
    </contour>
  </outline>
</glyph>
<glyph name="sterling" format="1">
  <advance width="654"/>
  <unicode hex="00A3"/>
  <outline>
    <contour>
      <point x="102" y="509" type="curve" smooth="yes"/>
      <point x="102" y="397"/>
      <point x="151" y="341"/>
      <point x="151" y="272" type="curve" smooth="yes"/>
      <point x="151" y="177"/>
      <point x="121" y="124"/>
      <point x="65" y="70" type="curve"/>
      <point x="87" y="-3" type="line"/>
      <point x="572" y="-3" type="line"/>
      <point x="572" y="109" type="line"/>
      <point x="218" y="109" type="line"/>
      <point x="266" y="156"/>
      <point x="285" y="216"/>
      <point x="285" y="271" type="curve"/>
      <point x="285" y="346"/>
      <point x="235" y="410"/>
      <point x="235" y="503" type="curve" smooth="yes"/>
      <point x="235" y="583"/>
      <point x="277" y="617"/>
      <point x="339" y="617" type="curve" smooth="yes"/>
      <point x="411" y="617"/>
      <point x="438" y="573"/>
      <point x="438" y="513" type="curve"/>
      <point x="567" y="513" type="line"/>
      <point x="566" y="632"/>
      <point x="496" y="733"/>
      <point x="340" y="733" type="curve" smooth="yes"/>
      <point x="199" y="733"/>
      <point x="102" y="655"/>
    </contour>
    <contour>
      <point x="39" y="391" type="line"/>
      <point x="39" y="295" type="line"/>
      <point x="446" y="295" type="line"/>
      <point x="446" y="391" type="line"/>
    </contour>
  </outline>
</glyph>
<glyph name="currency" format="1">
  <advance width="562"/>
  <unicode hex="00A4"/>
  <outline>
    <contour>
      <point x="86" y="378" type="curve" smooth="yes"/>
      <point x="86" y="268"/>
      <point x="166" y="198"/>
      <point x="280" y="198" type="curve" smooth="yes"/>
      <point x="394" y="198"/>
      <point x="476" y="268"/>
      <point x="476" y="378" type="curve" smooth="yes"/>
      <point x="476" y="488"/>
      <point x="395" y="556"/>
      <point x="281" y="556" type="curve" smooth="yes"/>
      <point x="167" y="556"/>
      <point x="86" y="488"/>
    </contour>
    <contour>
      <point x="366" y="377" type="curve" smooth="yes"/>
      <point x="366" y="309"/>
      <point x="323" y="277"/>
      <point x="280" y="277" type="curve" smooth="yes"/>
      <point x="237" y="277"/>
      <point x="195" y="309"/>
      <point x="195" y="377" type="curve" smooth="yes"/>
      <point x="195" y="446"/>
      <point x="237" y="478"/>
      <point x="281" y="478" type="curve" smooth="yes"/>
      <point x="324" y="478"/>
      <point x="366" y="446"/>
    </contour>
    <contour>
      <point x="352" y="250" type="line"/>
      <point x="444" y="158" type="line"/>
      <point x="502" y="216" type="line"/>
      <point x="413" y="305" type="line"/>
    </contour>
    <contour>
      <point x="153" y="309" type="line"/>
      <point x="60" y="216" type="line"/>
      <point x="118" y="158" type="line"/>
      <point x="221" y="261" type="line"/>
    </contour>
    <contour>
      <point x="216" y="502" type="line"/>
      <point x="118" y="600" type="line"/>
      <point x="60" y="541" type="line"/>
      <point x="151" y="451" type="line"/>
    </contour>
    <contour>
      <point x="403" y="443" type="line"/>
      <point x="502" y="541" type="line"/>
      <point x="444" y="600" type="line"/>
      <point x="346" y="502" type="line"/>
    </contour>
  </outline>
</glyph>
<glyph name="yen" format="1">
  <advance width="643"/>
  <unicode hex="00A5"/>
  <outline>
    <contour>
      <point x="392" y="311" type="line"/>
      <point x="592" y="312" type="line"/>
      <point x="592" y="409" type="line"/>
      <point x="400" y="409" type="line"/>
    </contour>
    <contour>
      <point x="51" y="139" type="line"/>
      <point x="592" y="139" type="line"/>
      <point x="592" y="237" type="line"/>
      <point x="51" y="237" type="line"/>
    </contour>
    <contour>
      <point x="251" y="240" type="line"/>
      <point x="251" y="0" type="line"/>
      <point x="392" y="0" type="line"/>
      <point x="392" y="240" type="line"/>
      <point x="628" y="698" type="line"/>
      <point x="470" y="698" type="line"/>
      <point x="291" y="302" type="line"/>
      <point x="352" y="302" type="line"/>
      <point x="173" y="698" type="line"/>
      <point x="15" y="698" type="line"/>
    </contour>
    <contour>
      <point x="51" y="312" type="line"/>
      <point x="280" y="311" type="line"/>
      <point x="273" y="409" type="line"/>
      <point x="51" y="409" type="line"/>
    </contour>
  </outline>
</glyph>
<glyph name="brokenbar" format="1">
  <advance width="351"/>
  <unicode hex="00A6"/>
  <outline>
    <contour>
      <point x="105" y="278" type="line"/>
      <point x="105" y="-120" type="line"/>
      <point x="246" y="-120" type="line"/>
      <point x="246" y="278" type="line"/>
    </contour>
    <contour>
      <point x="246" y="410" type="line"/>
      <point x="246" y="808" type="line"/>
      <point x="105" y="808" type="line"/>
      <point x="105" y="410" type="line"/>
    </contour>
  </outline>
</glyph>
<glyph name="section" format="1">
  <advance width="582"/>
  <unicode hex="00A7"/>
  <outline>
    <contour>
      <point x="71" y="531" type="curve" smooth="yes"/>
      <point x="71" y="451"/>
      <point x="128" y="403"/>
      <point x="215" y="364" type="curve"/>
      <point x="231" y="426" type="line"/>
      <point x="94" y="402"/>
      <point x="36" y="330"/>
      <point x="36" y="244" type="curve" smooth="yes"/>
      <point x="36" y="155"/>
      <point x="101" y="102"/>
      <point x="216" y="58" type="curve" smooth="yes"/>
      <point x="337" y="10"/>
      <point x="369" y="-12"/>
      <point x="369" y="-56" type="curve" smooth="yes"/>
      <point x="369" y="-100"/>
      <point x="341" y="-121"/>
      <point x="293" y="-121" type="curve" smooth="yes"/>
      <point x="245" y="-121"/>
      <point x="221" y="-93"/>
      <point x="217" y="-41" type="curve"/>
      <point x="74" y="-41" type="line"/>
      <point x="74" y="-156"/>
      <point x="164" y="-218"/>
      <point x="293" y="-218" type="curve" smooth="yes"/>
      <point x="427" y="-218"/>
      <point x="512" y="-136"/>
      <point x="512" y="-43" type="curve" smooth="yes"/>
      <point x="512" y="37"/>
      <point x="454" y="85"/>
      <point x="367" y="124" type="curve"/>
      <point x="351" y="55" type="line"/>
      <point x="489" y="94"/>
      <point x="547" y="159"/>
      <point x="547" y="244" type="curve"/>
      <point x="547" y="333"/>
      <point x="481" y="386"/>
      <point x="366" y="431" type="curve" smooth="yes"/>
      <point x="245" y="478"/>
      <point x="213" y="500"/>
      <point x="213" y="544" type="curve" smooth="yes"/>
      <point x="213" y="588"/>
      <point x="241" y="609"/>
      <point x="289" y="609" type="curve" smooth="yes"/>
      <point x="337" y="609"/>
      <point x="362" y="581"/>
      <point x="366" y="529" type="curve"/>
      <point x="509" y="529" type="line"/>
      <point x="509" y="644"/>
      <point x="418" y="706"/>
      <point x="289" y="706" type="curve" smooth="yes"/>
      <point x="155" y="706"/>
      <point x="71" y="624"/>
    </contour>
    <contour>
      <point x="400" y="244" type="curve" smooth="yes"/>
      <point x="400" y="194"/>
      <point x="360" y="152"/>
      <point x="292" y="152" type="curve" smooth="yes"/>
      <point x="224" y="152"/>
      <point x="183" y="194"/>
      <point x="183" y="244" type="curve"/>
      <point x="183" y="294"/>
      <point x="223" y="336"/>
      <point x="291" y="336" type="curve" smooth="yes"/>
      <point x="358" y="336"/>
      <point x="400" y="295"/>
    </contour>
  </outline>
</glyph>
<glyph name="dieresis" format="1">
  <advance width="337"/>
  <unicode hex="00A8"/>
  <outline>
    <contour>
      <point x="169" y="554" type="move" name="_top"/>
    </contour>
    <contour>
      <point x="76" y="620" type="curve" smooth="yes"/>
      <point x="113" y="620"/>
      <point x="142" y="649"/>
      <point x="142" y="686" type="curve" smooth="yes"/>
      <point x="142" y="723"/>
      <point x="113" y="752"/>
      <point x="76" y="752" type="curve" smooth="yes"/>
      <point x="39" y="752"/>
      <point x="10" y="723"/>
      <point x="10" y="686" type="curve" smooth="yes"/>
      <point x="10" y="649"/>
      <point x="39" y="620"/>
    </contour>
    <contour>
      <point x="261" y="620" type="curve" smooth="yes"/>
      <point x="298" y="620"/>
      <point x="327" y="649"/>
      <point x="327" y="686" type="curve" smooth="yes"/>
      <point x="327" y="723"/>
      <point x="298" y="752"/>
      <point x="261" y="752" type="curve" smooth="yes"/>
      <point x="224" y="752"/>
      <point x="195" y="723"/>
      <point x="195" y="686" type="curve" smooth="yes"/>
      <point x="195" y="649"/>
      <point x="224" y="620"/>
    </contour>
  </outline>
</glyph>
<glyph name="copyright" format="1">
  <advance width="789"/>
  <unicode hex="00A9"/>
  <outline>
    <contour>
      <point x="744" y="350" type="curve" smooth="yes"/>
      <point x="744" y="141"/>
      <point x="602" y="-8"/>
      <point x="394" y="-8" type="curve" smooth="yes"/>
      <point x="187" y="-8"/>
      <point x="44" y="141"/>
      <point x="44" y="350" type="curve" smooth="yes"/>
      <point x="44" y="560"/>
      <point x="187" y="708"/>
      <point x="394" y="708" type="curve" smooth="yes"/>
      <point x="602" y="708"/>
      <point x="744" y="560"/>
    </contour>
    <contour>
      <point x="99" y="350" type="curve" smooth="yes"/>
      <point x="99" y="165"/>
      <point x="212" y="41"/>
      <point x="394" y="41" type="curve" smooth="yes"/>
      <point x="576" y="41"/>
      <point x="690" y="165"/>
      <point x="690" y="350" type="curve" smooth="yes"/>
      <point x="690" y="537"/>
      <point x="576" y="658"/>
      <point x="394" y="658" type="curve" smooth="yes"/>
      <point x="212" y="658"/>
      <point x="99" y="537"/>
    </contour>
    <contour>
      <point x="171" y="351" type="curve" smooth="yes"/>
      <point x="171" y="211"/>
      <point x="265" y="123"/>
      <point x="390" y="123" type="curve" smooth="yes"/>
      <point x="495" y="123"/>
      <point x="573" y="183"/>
      <point x="598" y="273" type="curve"/>
      <point x="475" y="273" type="line"/>
      <point x="459" y="238"/>
      <point x="436" y="220"/>
      <point x="390" y="220" type="curve" smooth="yes"/>
      <point x="327" y="220"/>
      <point x="289" y="269"/>
      <point x="289" y="351" type="curve" smooth="yes"/>
      <point x="289" y="433"/>
      <point x="327" y="481"/>
      <point x="390" y="481" type="curve" smooth="yes"/>
      <point x="433" y="481"/>
      <point x="462" y="462"/>
      <point x="475" y="428" type="curve"/>
      <point x="598" y="428" type="line"/>
      <point x="573" y="524"/>
      <point x="495" y="578"/>
      <point x="390" y="578" type="curve" smooth="yes"/>
      <point x="265" y="578"/>
      <point x="171" y="491"/>
    </contour>
  </outline>
</glyph>
<glyph name="ordfeminine" format="1">
  <advance width="462"/>
  <unicode hex="00AA"/>
  <outline>
    <contour>
      <point x="28" y="529" type="curve" smooth="yes"/>
      <point x="28" y="423"/>
      <point x="105" y="347"/>
      <point x="198" y="347" type="curve" smooth="yes"/>
      <point x="257" y="347"/>
      <point x="297" y="372"/>
      <point x="318" y="409" type="curve"/>
      <point x="318" y="352" type="line"/>
      <point x="426" y="352" type="line"/>
      <point x="426" y="704" type="line"/>
      <point x="318" y="704" type="line"/>
      <point x="318" y="648" type="line"/>
      <point x="297" y="684"/>
      <point x="257" y="709"/>
      <point x="198" y="709" type="curve" smooth="yes"/>
      <point x="105" y="709"/>
      <point x="28" y="635"/>
    </contour>
    <contour>
      <point x="318" y="528" type="curve" smooth="yes"/>
      <point x="318" y="461"/>
      <point x="274" y="428"/>
      <point x="228" y="428" type="curve" smooth="yes"/>
      <point x="183" y="428"/>
      <point x="139" y="462"/>
      <point x="139" y="528" type="curve" smooth="yes"/>
      <point x="139" y="594"/>
      <point x="183" y="628"/>
      <point x="228" y="628" type="curve" smooth="yes"/>
      <point x="274" y="628"/>
      <point x="318" y="594"/>
    </contour>
  </outline>
</glyph>
<glyph name="guillemotleft" format="1">
  <advance width="520"/>
  <unicode hex="00AB"/>
  <outline>
    <contour>
      <point x="174" y="295" type="line"/>
      <point x="265" y="470" type="line"/>
      <point x="134" y="470" type="line"/>
      <point x="45" y="295" type="line"/>
      <point x="134" y="120" type="line"/>
      <point x="265" y="120" type="line"/>
    </contour>
    <contour>
      <point x="379" y="295" type="line"/>
      <point x="470" y="470" type="line"/>
      <point x="339" y="470" type="line"/>
      <point x="250" y="295" type="line"/>
      <point x="339" y="120" type="line"/>
      <point x="470" y="120" type="line"/>
    </contour>
  </outline>
</glyph>
<glyph name="logicalnot" format="1">
  <advance width="759"/>
  <unicode hex="00AC"/>
  <outline>
    <contour>
      <point x="36" y="330" type="line"/>
      <point x="562" y="330" type="line"/>
      <point x="562" y="195" type="line"/>
      <point x="702" y="195" type="line"/>
      <point x="702" y="438" type="line"/>
      <point x="36" y="438" type="line"/>
    </contour>
  </outline>
</glyph>
<glyph name="registered" format="1">
  <advance width="789"/>
  <unicode hex="00AE"/>
  <outline>
    <contour>
      <point x="767" y="350" type="curve" smooth="yes"/>
      <point x="767" y="141"/>
      <point x="620" y="-8"/>
      <point x="406" y="-8" type="curve" smooth="yes"/>
      <point x="191" y="-8"/>
      <point x="44" y="141"/>
      <point x="44" y="350" type="curve" smooth="yes"/>
      <point x="44" y="560"/>
      <point x="191" y="708"/>
      <point x="406" y="708" type="curve" smooth="yes"/>
      <point x="620" y="708"/>
      <point x="767" y="560"/>
    </contour>
    <contour>
      <point x="99" y="350" type="curve" smooth="yes"/>
      <point x="99" y="165"/>
      <point x="216" y="41"/>
      <point x="406" y="41" type="curve" smooth="yes"/>
      <point x="595" y="41"/>
      <point x="712" y="165"/>
      <point x="712" y="350" type="curve" smooth="yes"/>
      <point x="712" y="537"/>
      <point x="595" y="658"/>
      <point x="406" y="658" type="curve" smooth="yes"/>
      <point x="216" y="658"/>
      <point x="99" y="537"/>
    </contour>
    <contour>
      <point x="492" y="446" type="curve" smooth="yes"/>
      <point x="492" y="406"/>
      <point x="469" y="380"/>
      <point x="422" y="380" type="curve" smooth="yes"/>
      <point x="347" y="380" type="line"/>
      <point x="347" y="512" type="line"/>
      <point x="422" y="512" type="line" smooth="yes"/>
      <point x="469" y="512"/>
      <point x="492" y="486"/>
    </contour>
    <contour>
      <point x="259" y="581" type="line"/>
      <point x="259" y="134" type="line"/>
      <point x="347" y="134" type="line"/>
      <point x="347" y="312" type="line"/>
      <point x="422" y="312" type="line" smooth="yes"/>
      <point x="544" y="312"/>
      <point x="583" y="387"/>
      <point x="583" y="446" type="curve" smooth="yes"/>
      <point x="583" y="518"/>
      <point x="529" y="581"/>
      <point x="422" y="581" type="curve" smooth="yes"/>
    </contour>
    <contour>
      <point x="364" y="336" type="line"/>
      <point x="485" y="134" type="line"/>
      <point x="590" y="134" type="line"/>
      <point x="465" y="336" type="line"/>
    </contour>
  </outline>
</glyph>
<glyph name="macron" format="1">
  <advance width="402"/>
  <unicode hex="00AF"/>
  <outline>
    <contour>
      <point x="201" y="554" type="move" name="_top"/>
    </contour>
    <contour>
      <point x="10" y="632" type="line"/>
      <point x="392" y="632" type="line"/>
      <point x="392" y="732" type="line"/>
      <point x="10" y="732" type="line"/>
    </contour>
  </outline>
</glyph>
<glyph name="degree" format="1">
  <advance width="444"/>
  <unicode hex="00B0"/>
  <outline>
    <contour>
      <point x="27" y="527" type="curve" smooth="yes"/>
      <point x="27" y="417"/>
      <point x="107" y="347"/>
      <point x="221" y="347" type="curve" smooth="yes"/>
      <point x="335" y="347"/>
      <point x="417" y="417"/>
      <point x="417" y="527" type="curve" smooth="yes"/>
      <point x="417" y="637"/>
      <point x="336" y="705"/>
      <point x="222" y="705" type="curve" smooth="yes"/>
      <point x="108" y="705"/>
      <point x="27" y="637"/>
    </contour>
    <contour>
      <point x="307" y="526" type="curve" smooth="yes"/>
      <point x="307" y="458"/>
      <point x="264" y="426"/>
      <point x="221" y="426" type="curve" smooth="yes"/>
      <point x="177" y="426"/>
      <point x="136" y="458"/>
      <point x="136" y="526" type="curve" smooth="yes"/>
      <point x="136" y="595"/>
      <point x="178" y="628"/>
      <point x="222" y="628" type="curve" smooth="yes"/>
      <point x="265" y="628"/>
      <point x="307" y="595"/>
    </contour>
  </outline>
</glyph>
<glyph name="plusminus" format="1">
  <advance width="686"/>
  <unicode hex="00B1"/>
  <outline>
    <contour>
      <point x="276" y="618" type="line"/>
      <point x="276" y="161" type="line"/>
      <point x="410" y="161" type="line"/>
      <point x="410" y="618" type="line"/>
    </contour>
    <contour>
      <point x="88" y="363" type="line"/>
      <point x="598" y="363" type="line"/>
      <point x="598" y="489" type="line"/>
      <point x="88" y="489" type="line"/>
    </contour>
    <contour>
      <point x="88" y="117" type="line"/>
      <point x="598" y="117" type="line"/>
      <point x="598" y="243" type="line"/>
      <point x="88" y="243" type="line"/>
    </contour>
  </outline>
</glyph>
<glyph name="twosuperior" format="1">
  <advance width="360"/>
  <unicode hex="00B2"/>
  <outline>
    <contour>
      <point x="32" y="599" type="curve"/>
      <point x="140" y="599" type="line"/>
      <point x="142" y="620"/>
      <point x="154" y="633"/>
      <point x="174" y="633" type="curve" smooth="yes"/>
      <point x="195" y="633"/>
      <point x="210" y="618"/>
      <point x="210" y="593" type="curve" smooth="yes"/>
      <point x="210" y="561"/>
      <point x="187" y="538"/>
      <point x="148" y="512" type="curve"/>
      <point x="34" y="434" type="line"/>
      <point x="34" y="352" type="line"/>
      <point x="321" y="352" type="line"/>
      <point x="321" y="437" type="line"/>
      <point x="122" y="437" type="line"/>
      <point x="100" y="409" type="line"/>
      <point x="226" y="480" type="line"/>
      <point x="293" y="520"/>
      <point x="323" y="550"/>
      <point x="323" y="598" type="curve" smooth="yes"/>
      <point x="323" y="655"/>
      <point x="272" y="713"/>
      <point x="180" y="713" type="curve" smooth="yes"/>
      <point x="88" y="713"/>
      <point x="33" y="667"/>
    </contour>
  </outline>
</glyph>
<glyph name="threesuperior" format="1">
  <advance width="357"/>
  <unicode hex="00B3"/>
  <outline>
    <contour>
      <point x="22" y="601" type="curve"/>
      <point x="123" y="601" type="line"/>
      <point x="126" y="620"/>
      <point x="140" y="634"/>
      <point x="167" y="634" type="curve" smooth="yes"/>
      <point x="191" y="634"/>
      <point x="207" y="622"/>
      <point x="207" y="600" type="curve" smooth="yes"/>
      <point x="207" y="577"/>
      <point x="188" y="566"/>
      <point x="162" y="566" type="curve" smooth="yes"/>
      <point x="137" y="566" type="line"/>
      <point x="137" y="499" type="line"/>
      <point x="166" y="499" type="line" smooth="yes"/>
      <point x="194" y="499"/>
      <point x="212" y="485"/>
      <point x="212" y="463" type="curve" smooth="yes"/>
      <point x="212" y="440"/>
      <point x="194" y="425"/>
      <point x="170" y="425" type="curve" smooth="yes"/>
      <point x="145" y="425"/>
      <point x="128" y="438"/>
      <point x="124" y="463" type="curve"/>
      <point x="17" y="463" type="line"/>
      <point x="18" y="390"/>
      <point x="85" y="348"/>
      <point x="170" y="348" type="curve" smooth="yes"/>
      <point x="261" y="348"/>
      <point x="327" y="389"/>
      <point x="327" y="448" type="curve" smooth="yes"/>
      <point x="327" y="489"/>
      <point x="297" y="516"/>
      <point x="263" y="528" type="curve"/>
      <point x="263" y="531" type="line"/>
      <point x="297" y="541"/>
      <point x="323" y="563"/>
      <point x="323" y="605" type="curve" smooth="yes"/>
      <point x="323" y="663"/>
      <point x="262" y="713"/>
      <point x="177" y="713" type="curve" smooth="yes"/>
      <point x="81" y="713"/>
      <point x="24" y="664"/>
    </contour>
  </outline>
</glyph>
<glyph name="acute" format="1">
  <advance width="250"/>
  <unicode hex="00B4"/>
  <outline>
    <contour>
      <point x="131" y="554" type="move" name="_top"/>
    </contour>
    <contour>
      <point x="10" y="692" type="line"/>
      <point x="10" y="593" type="line"/>
      <point x="240" y="698" type="line"/>
      <point x="240" y="812" type="line"/>
    </contour>
  </outline>
</glyph>
<glyph name="mu.math" format="1">
  <advance width="678"/>
  <unicode hex="00B5"/>
  <outline>
    <contour>
      <point x="603" y="554" type="line"/>
      <point x="462" y="554" type="line"/>
      <point x="462" y="0" type="line"/>
      <point x="603" y="0" type="line"/>
    </contour>
    <contour>
      <point x="462" y="249" type="line"/>
      <point x="462" y="161"/>
      <point x="413" y="114"/>
      <point x="338" y="114" type="curve" smooth="yes"/>
      <point x="263" y="114"/>
      <point x="215" y="161"/>
      <point x="215" y="249" type="curve" smooth="yes"/>
      <point x="215" y="554" type="line"/>
      <point x="75" y="554" type="line"/>
      <point x="75" y="-264" type="line"/>
      <point x="215" y="-264" type="line"/>
      <point x="215" y="23" type="line"/>
      <point x="209" y="16" type="line"/>
      <point x="231" y="1"/>
      <point x="260" y="-7"/>
      <point x="289" y="-7" type="curve" smooth="yes"/>
      <point x="388" y="-7"/>
      <point x="462" y="48"/>
      <point x="484" y="140" type="curve"/>
    </contour>
  </outline>
</glyph>
<glyph name="paragraph" format="1">
  <advance width="666"/>
  <unicode hex="00B6"/>
  <outline>
    <contour>
      <point x="269" y="698" type="line"/>
      <point x="103" y="698"/>
      <point x="32" y="600"/>
      <point x="32" y="488" type="curve" smooth="yes"/>
      <point x="32" y="376"/>
      <point x="102" y="278"/>
      <point x="269" y="278" type="curve" smooth="yes"/>
      <point x="288" y="278" type="line"/>
      <point x="288" y="0" type="line"/>
      <point x="407" y="0" type="line"/>
      <point x="407" y="590" type="line"/>
      <point x="472" y="590" type="line"/>
      <point x="472" y="0" type="line"/>
      <point x="591" y="0" type="line"/>
      <point x="591" y="698" type="line"/>
    </contour>
  </outline>
</glyph>
<glyph name="cedilla" format="1">
  <advance width="295"/>
  <unicode hex="00B8"/>
  <outline>
    <contour>
      <point x="105" y="0" type="move" name="_bottom"/>
    </contour>
    <contour>
      <point x="155" y="7" type="line"/>
      <point x="67" y="7" type="line"/>
      <point x="67" y="-119" type="line"/>
      <point x="122" y="-119" type="line" smooth="yes"/>
      <point x="157" y="-119"/>
      <point x="178" y="-120"/>
      <point x="178" y="-150" type="curve" smooth="yes"/>
      <point x="178" y="-180"/>
      <point x="157" y="-182"/>
      <point x="122" y="-182" type="curve" smooth="yes"/>
      <point x="10" y="-182" type="line"/>
      <point x="10" y="-264" type="line"/>
      <point x="156" y="-264" type="line" smooth="yes"/>
      <point x="225" y="-264"/>
      <point x="285" y="-224"/>
      <point x="285" y="-150" type="curve" smooth="yes"/>
      <point x="285" y="-76"/>
      <point x="225" y="-43"/>
      <point x="155" y="-43" type="curve"/>
    </contour>
  </outline>
</glyph>
<glyph name="onesuperior" format="1">
  <advance width="227"/>
  <unicode hex="00B9"/>
  <outline>
    <contour>
      <point x="77" y="352" type="line"/>
      <point x="184" y="352" type="line"/>
      <point x="184" y="704" type="line"/>
      <point x="20" y="704" type="line"/>
      <point x="20" y="622" type="line"/>
      <point x="77" y="622" type="line"/>
    </contour>
  </outline>
</glyph>
<glyph name="ordmasculine" format="1">
  <advance width="453"/>
  <unicode hex="00BA"/>
  <outline>
    <contour>
      <point x="28" y="528" type="curve" smooth="yes"/>
      <point x="28" y="418"/>
      <point x="111" y="347"/>
      <point x="226" y="347" type="curve" smooth="yes"/>
      <point x="341" y="347"/>
      <point x="425" y="418"/>
      <point x="425" y="528" type="curve" smooth="yes"/>
      <point x="425" y="640"/>
      <point x="342" y="709"/>
      <point x="227" y="709" type="curve" smooth="yes"/>
      <point x="112" y="709"/>
      <point x="28" y="640"/>
    </contour>
    <contour>
      <point x="314" y="528" type="curve" smooth="yes"/>
      <point x="314" y="459"/>
      <point x="270" y="426"/>
      <point x="226" y="426" type="curve" smooth="yes"/>
      <point x="181" y="426"/>
      <point x="139" y="459"/>
      <point x="139" y="528" type="curve" smooth="yes"/>
      <point x="139" y="598"/>
      <point x="182" y="631"/>
      <point x="226" y="631" type="curve" smooth="yes"/>
      <point x="270" y="631"/>
      <point x="314" y="598"/>
    </contour>
  </outline>
</glyph>
<glyph name="guillemotright" format="1">
  <advance width="520"/>
  <unicode hex="00BB"/>
  <outline>
    <contour>
      <point x="387" y="120" type="line"/>
      <point x="475" y="295" type="line"/>
      <point x="387" y="470" type="line"/>
      <point x="255" y="470" type="line"/>
      <point x="347" y="295" type="line"/>
      <point x="255" y="120" type="line"/>
    </contour>
    <contour>
      <point x="182" y="120" type="line"/>
      <point x="270" y="295" type="line"/>
      <point x="182" y="470" type="line"/>
      <point x="50" y="470" type="line"/>
      <point x="142" y="295" type="line"/>
      <point x="50" y="120" type="line"/>
    </contour>
  </outline>
</glyph>
<glyph name="onequarter" format="1">
  <advance width="730"/>
  <unicode hex="00BC"/>
  <outline>
    <contour>
      <point x="75" y="0" type="line"/>
      <point x="209" y="0" type="line"/>
      <point x="592" y="700" type="line"/>
      <point x="458" y="700" type="line"/>
    </contour>
    <contour>
      <point x="653" y="128" type="line"/>
      <point x="653" y="353" type="line"/>
      <point x="499" y="353" type="line"/>
      <point x="355" y="123" type="line"/>
      <point x="355" y="65" type="line"/>
      <point x="545" y="65" type="line"/>
      <point x="545" y="0" type="line"/>
      <point x="653" y="0" type="line"/>
      <point x="653" y="65" type="line"/>
      <point x="696" y="65" type="line"/>
      <point x="696" y="128" type="line"/>
    </contour>
    <contour>
      <point x="460" y="128" type="line"/>
      <point x="549" y="282" type="line"/>
      <point x="549" y="128" type="line"/>
    </contour>
    <component base="onesuperior" xOffset="17"/>
  </outline>
</glyph>
<glyph name="onehalf" format="1">
  <advance width="757"/>
  <unicode hex="00BD"/>
  <outline>
    <contour>
      <point x="75" y="0" type="line"/>
      <point x="209" y="0" type="line"/>
      <point x="586" y="700" type="line"/>
      <point x="452" y="700" type="line"/>
    </contour>
    <component base="twosuperior" xOffset="382" yOffset="-353"/>
    <component base="onesuperior" xOffset="17"/>
  </outline>
</glyph>
<glyph name="threequarters" format="1">
  <advance width="811"/>
  <unicode hex="00BE"/>
  <outline>
    <contour>
      <point x="169" y="0" type="line"/>
      <point x="303" y="0" type="line"/>
      <point x="697" y="700" type="line"/>
      <point x="563" y="700" type="line"/>
    </contour>
    <contour>
      <point x="745" y="128" type="line"/>
      <point x="745" y="353" type="line"/>
      <point x="591" y="353" type="line"/>
      <point x="448" y="123" type="line"/>
      <point x="448" y="65" type="line"/>
      <point x="638" y="65" type="line"/>
      <point x="638" y="0" type="line"/>
      <point x="745" y="0" type="line"/>
      <point x="745" y="65" type="line"/>
      <point x="788" y="65" type="line"/>
      <point x="788" y="128" type="line"/>
    </contour>
    <contour>
      <point x="552" y="128" type="line"/>
      <point x="642" y="282" type="line"/>
      <point x="642" y="128" type="line"/>
    </contour>
    <component base="threesuperior" xOffset="25"/>
  </outline>
</glyph>
<glyph name="AE" format="1">
  <advance width="949"/>
  <unicode hex="00C6"/>
  <outline>
    <contour>
      <point x="154" y="131" type="line"/>
      <point x="545" y="131" type="line"/>
      <point x="545" y="239" type="line"/>
      <point x="215" y="239" type="line"/>
    </contour>
    <contour>
      <point x="881" y="592" type="line"/>
      <point x="881" y="700" type="line"/>
      <point x="381" y="700" type="line"/>
      <point x="11" y="0" type="line"/>
      <point x="164" y="0" type="line"/>
      <point x="478" y="605" type="line"/>
      <point x="478" y="0" type="line"/>
      <point x="881" y="0" type="line"/>
      <point x="881" y="108" type="line"/>
      <point x="619" y="108" type="line"/>
      <point x="619" y="301" type="line"/>
      <point x="851" y="301" type="line"/>
      <point x="851" y="409" type="line"/>
      <point x="619" y="409" type="line"/>
      <point x="619" y="592" type="line"/>
    </contour>
  </outline>
</glyph>
<glyph name="Eth" format="1">
  <advance width="729"/>
  <unicode hex="00D0"/>
  <outline>
    <contour>
      <point x="14" y="282" type="line"/>
      <point x="384" y="282" type="line"/>
      <point x="384" y="414" type="line"/>
      <point x="14" y="414" type="line"/>
    </contour>
    <contour>
      <point x="318" y="698" type="curve" smooth="yes"/>
      <point x="81" y="698" type="line"/>
      <point x="81" y="0" type="line"/>
      <point x="318" y="0" type="line" smooth="yes"/>
      <point x="541" y="0"/>
      <point x="693" y="136"/>
      <point x="693" y="348" type="curve" smooth="yes"/>
      <point x="693" y="560"/>
      <point x="541" y="698"/>
    </contour>
    <contour>
      <point x="222" y="107" type="line"/>
      <point x="222" y="589" type="line"/>
      <point x="318" y="589" type="line" smooth="yes"/>
      <point x="466" y="589"/>
      <point x="550" y="495"/>
      <point x="550" y="348" type="curve" smooth="yes"/>
      <point x="550" y="201"/>
      <point x="466" y="107"/>
      <point x="318" y="107" type="curve" smooth="yes"/>
    </contour>
  </outline>
</glyph>
<glyph name="multiply" format="1">
  <advance width="678"/>
  <unicode hex="00D7"/>
  <outline>
    <contour>
      <point x="106" y="502" type="line"/>
      <point x="484" y="123" type="line"/>
      <point x="576" y="214" type="line"/>
      <point x="197" y="593" type="line"/>
    </contour>
    <contour>
      <point x="193" y="124" type="line"/>
      <point x="571" y="502" type="line"/>
      <point x="480" y="593" type="line"/>
      <point x="102" y="215" type="line"/>
    </contour>
  </outline>
</glyph>
<glyph name="Oslash" format="1">
  <advance width="786"/>
  <unicode hex="00D8"/>
  <outline>
    <contour>
      <point x="25" y="0" type="line"/>
      <point x="122" y="0" type="line"/>
      <point x="761" y="700" type="line"/>
      <point x="664" y="700" type="line"/>
    </contour>
    <component base="O"/>
  </outline>
</glyph>
<glyph name="Thorn" format="1">
  <advance width="615"/>
  <unicode hex="00DE"/>
  <outline>
    <contour>
      <point x="216" y="248" type="line"/>
      <point x="216" y="453" type="line"/>
      <point x="332" y="453" type="line" smooth="yes"/>
      <point x="404" y="453"/>
      <point x="441" y="411"/>
      <point x="441" y="350" type="curve" smooth="yes"/>
      <point x="441" y="289"/>
      <point x="404" y="248"/>
      <point x="332" y="248" type="curve" smooth="yes"/>
    </contour>
    <contour>
      <point x="584" y="350" type="curve" smooth="yes"/>
      <point x="584" y="462"/>
      <point x="501" y="561"/>
      <point x="332" y="561" type="curve" smooth="yes"/>
      <point x="213" y="561" type="line"/>
      <point x="213" y="700" type="line"/>
      <point x="75" y="700" type="line"/>
      <point x="75" y="0" type="line"/>
      <point x="216" y="0" type="line"/>
      <point x="216" y="140" type="line"/>
      <point x="332" y="140" type="line" smooth="yes"/>
      <point x="525" y="140"/>
      <point x="584" y="259"/>
    </contour>
  </outline>
</glyph>
<glyph name="germandbls" format="1">
  <advance width="712"/>
  <unicode hex="00DF"/>
  <outline>
    <contour>
      <point x="75" y="528" type="curve" smooth="yes"/>
      <point x="75" y="0" type="line"/>
      <point x="216" y="0" type="line"/>
      <point x="215" y="529" type="line" smooth="yes"/>
      <point x="215" y="591"/>
      <point x="257" y="628"/>
      <point x="308" y="628" type="curve" smooth="yes"/>
      <point x="359" y="628"/>
      <point x="396" y="589"/>
      <point x="396" y="538" type="curve" smooth="yes"/>
      <point x="396" y="501"/>
      <point x="381" y="472"/>
      <point x="347" y="452" type="curve" smooth="yes"/>
      <point x="322" y="438" type="line"/>
      <point x="322" y="377" type="line"/>
      <point x="475" y="286" type="line" smooth="yes"/>
      <point x="524" y="257"/>
      <point x="544" y="231"/>
      <point x="544" y="194" type="curve" smooth="yes"/>
      <point x="544" y="153"/>
      <point x="513" y="114"/>
      <point x="468" y="114" type="curve" smooth="yes"/>
      <point x="424" y="114"/>
      <point x="395" y="140"/>
      <point x="390" y="184" type="curve"/>
      <point x="276" y="184" type="line"/>
      <point x="277" y="63"/>
      <point x="367" y="-8"/>
      <point x="475" y="-8" type="curve" smooth="yes"/>
      <point x="589" y="-8"/>
      <point x="688" y="73"/>
      <point x="688" y="194" type="curve" smooth="yes"/>
      <point x="688" y="285"/>
      <point x="648" y="340"/>
      <point x="551" y="397" type="curve" smooth="yes"/>
      <point x="421" y="473" type="line"/>
      <point x="376" y="409" type="line"/>
      <point x="428" y="432" type="line" smooth="yes"/>
      <point x="508" y="468"/>
      <point x="541" y="511"/>
      <point x="541" y="573" type="curve" smooth="yes"/>
      <point x="541" y="660"/>
      <point x="469" y="750"/>
      <point x="315" y="750" type="curve" smooth="yes"/>
      <point x="168" y="750"/>
      <point x="75" y="666"/>
    </contour>
  </outline>
</glyph>
<glyph name="ae" format="1">
  <advance width="1093"/>
  <unicode hex="00E6"/>
  <outline>
    <contour>
      <point x="620" y="231" type="line"/>
      <point x="1053" y="231" type="line"/>
      <point x="1056" y="250"/>
      <point x="1057" y="268"/>
      <point x="1057" y="285" type="curve" smooth="yes"/>
      <point x="1057" y="449"/>
      <point x="946" y="562"/>
      <point x="795" y="562" type="curve" smooth="yes"/>
      <point x="722" y="562"/>
      <point x="660" y="538"/>
      <point x="611" y="475" type="curve"/>
      <point x="611" y="554" type="line"/>
      <point x="471" y="554" type="line"/>
      <point x="471" y="475" type="line"/>
      <point x="431" y="534"/>
      <point x="372" y="562"/>
      <point x="296" y="562" type="curve" smooth="yes"/>
      <point x="151" y="562"/>
      <point x="36" y="448"/>
      <point x="36" y="278" type="curve" smooth="yes"/>
      <point x="36" y="108"/>
      <point x="151" y="-8"/>
      <point x="293" y="-8" type="curve" smooth="yes"/>
      <point x="372" y="-8"/>
      <point x="432" y="30"/>
      <point x="471" y="86" type="curve"/>
      <point x="471" y="0" type="line"/>
      <point x="611" y="0" type="line"/>
      <point x="611" y="86" type="line"/>
      <point x="646" y="29"/>
      <point x="721" y="-8"/>
      <point x="800" y="-8" type="curve" smooth="yes"/>
      <point x="921" y="-8"/>
      <point x="1008" y="69"/>
      <point x="1039" y="171" type="curve"/>
      <point x="887" y="171" type="line"/>
      <point x="869" y="137"/>
      <point x="831" y="111"/>
      <point x="774" y="111" type="curve" smooth="yes"/>
      <point x="711" y="111"/>
      <point x="633" y="155"/>
      <point x="633" y="263" type="curve" smooth="yes"/>
      <point x="633" y="298" type="line" smooth="yes"/>
      <point x="633" y="384"/>
      <point x="700" y="443"/>
      <point x="777" y="443" type="curve" smooth="yes"/>
      <point x="854" y="443"/>
      <point x="908" y="396"/>
      <point x="912" y="322" type="curve"/>
      <point x="613" y="322" type="line"/>
    </contour>
    <contour>
      <point x="179" y="278" type="curve" smooth="yes"/>
      <point x="179" y="385"/>
      <point x="253" y="440"/>
      <point x="325" y="440" type="curve" smooth="yes"/>
      <point x="398" y="440"/>
      <point x="472" y="384"/>
      <point x="472" y="277" type="curve" smooth="yes"/>
      <point x="472" y="170"/>
      <point x="398" y="114"/>
      <point x="325" y="114" type="curve" smooth="yes"/>
      <point x="253" y="114"/>
      <point x="179" y="171"/>
    </contour>
  </outline>
</glyph>
<glyph name="eth" format="1">
  <advance width="644"/>
  <unicode hex="00F0"/>
  <outline>
    <contour>
      <point x="464" y="277" type="curve" smooth="yes"/>
      <point x="464" y="165"/>
      <point x="393" y="111"/>
      <point x="320" y="111" type="curve" smooth="yes"/>
      <point x="247" y="111"/>
      <point x="179" y="165"/>
      <point x="179" y="277" type="curve" smooth="yes"/>
      <point x="179" y="390"/>
      <point x="248" y="443"/>
      <point x="321" y="443" type="curve" smooth="yes"/>
      <point x="393" y="443"/>
      <point x="464" y="390"/>
    </contour>
    <contour>
      <point x="36" y="278" type="curve" smooth="yes"/>
      <point x="36" y="104"/>
      <point x="161" y="-8"/>
      <point x="320" y="-8" type="curve" smooth="yes"/>
      <point x="481" y="-8"/>
      <point x="607" y="102"/>
      <point x="607" y="317" type="curve" smooth="yes"/>
      <point x="607" y="480"/>
      <point x="530" y="626"/>
      <point x="401" y="740" type="curve"/>
      <point x="266" y="740" type="line"/>
      <point x="353" y="669"/>
      <point x="412" y="597"/>
      <point x="447" y="517" type="curve"/>
      <point x="407" y="546"/>
      <point x="365" y="562"/>
      <point x="312" y="562" type="curve" smooth="yes"/>
      <point x="157" y="562"/>
      <point x="36" y="452"/>
    </contour>
    <contour>
      <point x="267" y="652" type="line"/>
      <point x="267" y="588" type="line"/>
      <point x="548" y="677" type="line"/>
      <point x="548" y="741" type="line"/>
    </contour>
  </outline>
</glyph>
<glyph name="divide" format="1">
  <advance width="646"/>
  <unicode hex="00F7"/>
  <outline>
    <contour>
      <point x="322" y="63" type="curve" smooth="yes"/>
      <point x="367" y="63"/>
      <point x="403" y="99"/>
      <point x="403" y="143" type="curve" smooth="yes"/>
      <point x="403" y="188"/>
      <point x="367" y="224"/>
      <point x="322" y="224" type="curve" smooth="yes"/>
      <point x="278" y="224"/>
      <point x="242" y="188"/>
      <point x="242" y="143" type="curve" smooth="yes"/>
      <point x="242" y="99"/>
      <point x="278" y="63"/>
    </contour>
    <contour>
      <point x="322" y="489" type="curve" smooth="yes"/>
      <point x="367" y="489"/>
      <point x="403" y="524"/>
      <point x="403" y="568" type="curve" smooth="yes"/>
      <point x="403" y="614"/>
      <point x="367" y="649"/>
      <point x="322" y="649" type="curve" smooth="yes"/>
      <point x="278" y="649"/>
      <point x="242" y="614"/>
      <point x="242" y="568" type="curve" smooth="yes"/>
      <point x="242" y="524"/>
      <point x="278" y="489"/>
    </contour>
    <contour>
      <point x="68" y="293" type="line"/>
      <point x="578" y="293" type="line"/>
      <point x="578" y="419" type="line"/>
      <point x="68" y="419" type="line"/>
    </contour>
  </outline>
</glyph>
<glyph name="oslash" format="1">
  <advance width="645"/>
  <unicode hex="00F8"/>
  <outline>
    <contour>
      <point x="27" y="0" type="line"/>
      <point x="112" y="0" type="line"/>
      <point x="618" y="554" type="line"/>
      <point x="533" y="554" type="line"/>
    </contour>
    <component base="o" xOffset="1"/>
  </outline>
</glyph>
<glyph name="thorn" format="1">
  <advance width="687"/>
  <unicode hex="00FE"/>
  <outline>
    <contour>
      <point x="216" y="468" type="curve"/>
      <point x="216" y="740" type="line"/>
      <point x="75" y="740" type="line"/>
      <point x="75" y="-264" type="line"/>
      <point x="216" y="-264" type="line"/>
      <point x="216" y="93" type="line"/>
      <point x="252" y="34"/>
      <point x="311" y="-8"/>
      <point x="394" y="-8" type="curve" smooth="yes"/>
      <point x="537" y="-8"/>
      <point x="651" y="108"/>
      <point x="651" y="278" type="curve" smooth="yes"/>
      <point x="651" y="448"/>
      <point x="537" y="562"/>
      <point x="394" y="562" type="curve" smooth="yes"/>
      <point x="311" y="562"/>
      <point x="251" y="524"/>
    </contour>
    <contour>
      <point x="508" y="278" type="curve" smooth="yes"/>
      <point x="508" y="171"/>
      <point x="435" y="114"/>
      <point x="362" y="114" type="curve" smooth="yes"/>
      <point x="289" y="114"/>
      <point x="216" y="170"/>
      <point x="216" y="277" type="curve" smooth="yes"/>
      <point x="216" y="384"/>
      <point x="289" y="440"/>
      <point x="362" y="440" type="curve" smooth="yes"/>
      <point x="435" y="440"/>
      <point x="508" y="385"/>
    </contour>
  </outline>
</glyph>
<glyph name="Aogonek" format="1">
  <advance width="705"/>
  <unicode hex="0104"/>
  <outline>
    <contour>
      <point x="126" y="131" type="line"/>
      <point x="568" y="131" type="line"/>
      <point x="532" y="239" type="line"/>
      <point x="162" y="239" type="line"/>
    </contour>
    <contour>
      <point x="22" y="0" type="line"/>
      <point x="171" y="0" type="line"/>
      <point x="363" y="561" type="line"/>
      <point x="342" y="561" type="line"/>
      <point x="542" y="-25" type="line"/>
      <point x="543" y="1" type="line"/>
      <point x="497" y="-12"/>
      <point x="467" y="-44"/>
      <point x="467" y="-95" type="curve" smooth="yes"/>
      <point x="467" y="-169"/>
      <point x="528" y="-208"/>
      <point x="596" y="-208" type="curve" smooth="yes"/>
      <point x="719" y="-208" type="line"/>
      <point x="719" y="-127" type="line"/>
      <point x="630" y="-127" type="line" smooth="yes"/>
      <point x="595" y="-127"/>
      <point x="574" y="-125"/>
      <point x="574" y="-95" type="curve" smooth="yes"/>
      <point x="574" y="-65"/>
      <point x="595" y="-64"/>
      <point x="630" y="-64" type="curve" smooth="yes"/>
      <point x="682" y="-64" type="line"/>
      <point x="682" y="1" type="line"/>
      <point x="436" y="700" type="line"/>
      <point x="269" y="700" type="line"/>
    </contour>
  </outline>
</glyph>
<glyph name="dcroat" format="1">
  <advance width="687"/>
  <unicode hex="0111"/>
  <outline>
    <contour>
      <point x="392" y="591" type="line"/>
      <point x="670" y="591" type="line"/>
      <point x="670" y="664" type="line"/>
      <point x="392" y="664" type="line"/>
    </contour>
    <component base="d"/>
  </outline>
</glyph>
<glyph name="eogonek" format="1">
  <advance width="624"/>
  <unicode hex="0119"/>
  <outline>
    <contour>
      <point x="36" y="278" type="curve" smooth="yes"/>
      <point x="36" y="115"/>
      <point x="136" y="7"/>
      <point x="279" y="-7" type="curve"/>
      <point x="278" y="-11"/>
      <point x="277" y="-17"/>
      <point x="277" y="-23" type="curve" smooth="yes"/>
      <point x="277" y="-97"/>
      <point x="338" y="-137"/>
      <point x="406" y="-137" type="curve" smooth="yes"/>
      <point x="529" y="-137" type="line"/>
      <point x="529" y="-55" type="line"/>
      <point x="440" y="-55" type="line" smooth="yes"/>
      <point x="405" y="-55"/>
      <point x="384" y="-53"/>
      <point x="384" y="-23" type="curve" smooth="yes"/>
      <point x="384" y="-6"/>
      <point x="395" y="3"/>
      <point x="421" y="12" type="curve" smooth="yes"/>
      <point x="483" y="36"/>
      <point x="545" y="91"/>
      <point x="569" y="171" type="curve"/>
      <point x="417" y="171" type="line"/>
      <point x="398" y="138"/>
      <point x="369" y="111"/>
      <point x="309" y="111" type="curve" smooth="yes"/>
      <point x="231" y="111"/>
      <point x="179" y="166"/>
      <point x="179" y="246" type="curve" smooth="yes"/>
      <point x="179" y="301" type="line" smooth="yes"/>
      <point x="179" y="387"/>
      <point x="236" y="443"/>
      <point x="309" y="443" type="curve" smooth="yes"/>
      <point x="381" y="443"/>
      <point x="438" y="396"/>
      <point x="442" y="322" type="curve"/>
      <point x="168" y="322" type="line"/>
      <point x="166" y="231" type="line"/>
      <point x="584" y="231" type="line"/>
      <point x="587" y="250"/>
      <point x="588" y="268"/>
      <point x="588" y="285" type="curve" smooth="yes"/>
      <point x="588" y="456"/>
      <point x="470" y="562"/>
      <point x="311" y="562" type="curve" smooth="yes"/>
      <point x="150" y="562"/>
      <point x="36" y="452"/>
    </contour>
  </outline>
</glyph>
<glyph name="dotlessi" format="1">
  <advance width="291"/>
  <unicode hex="0131"/>
  <outline>
    <contour>
      <point x="146" y="554" type="move" name="top"/>
    </contour>
    <contour>
      <point x="262" y="10" type="move" name="ogonek"/>
    </contour>
    <contour>
      <point x="75" y="0" type="line"/>
      <point x="216" y="0" type="line"/>
      <point x="216" y="554" type="line"/>
      <point x="75" y="554" type="line"/>
    </contour>
  </outline>
</glyph>
<glyph name="Lslash" format="1">
  <advance width="460"/>
  <unicode hex="0141"/>
  <outline>
    <contour>
      <point x="14" y="252" type="line"/>
      <point x="300" y="334" type="line"/>
      <point x="300" y="466" type="line"/>
      <point x="14" y="384" type="line"/>
    </contour>
    <contour>
      <point x="81" y="698" type="line"/>
      <point x="81" y="0" type="line"/>
      <point x="446" y="0" type="line"/>
      <point x="446" y="107" type="line"/>
      <point x="222" y="107" type="line"/>
      <point x="222" y="698" type="line"/>
    </contour>
  </outline>
</glyph>
<glyph name="lslash" format="1">
  <advance width="291"/>
  <unicode hex="0142"/>
  <outline>
    <contour>
      <point x="14" y="250" type="line"/>
      <point x="277" y="328" type="line"/>
      <point x="277" y="460" type="line"/>
      <point x="14" y="383" type="line"/>
    </contour>
    <contour>
      <point x="75" y="0" type="line"/>
      <point x="216" y="0" type="line"/>
      <point x="216" y="740" type="line"/>
      <point x="75" y="740" type="line"/>
    </contour>
  </outline>
</glyph>
<glyph name="OE" format="1">
  <advance width="1078"/>
  <unicode hex="0152"/>
  <outline>
    <contour>
      <point x="179" y="351" type="curve" smooth="yes"/>
      <point x="179" y="490"/>
      <point x="267" y="579"/>
      <point x="393" y="579" type="curve" smooth="yes"/>
      <point x="519" y="579"/>
      <point x="606" y="490"/>
      <point x="606" y="351" type="curve" smooth="yes"/>
      <point x="606" y="212"/>
      <point x="519" y="122"/>
      <point x="393" y="122" type="curve" smooth="yes"/>
      <point x="267" y="122"/>
      <point x="179" y="212"/>
    </contour>
    <contour>
      <point x="1009" y="590" type="line"/>
      <point x="1009" y="698" type="line"/>
      <point x="606" y="698" type="line"/>
      <point x="606" y="610" type="line"/>
      <point x="551" y="675"/>
      <point x="476" y="708"/>
      <point x="393" y="708" type="curve" smooth="yes"/>
      <point x="196" y="708"/>
      <point x="36" y="561"/>
      <point x="36" y="351" type="curve" smooth="yes"/>
      <point x="36" y="141"/>
      <point x="195" y="-7"/>
      <point x="393" y="-7" type="curve" smooth="yes"/>
      <point x="476" y="-7"/>
      <point x="551" y="26"/>
      <point x="606" y="89" type="curve"/>
      <point x="606" y="0" type="line"/>
      <point x="1009" y="0" type="line"/>
      <point x="1009" y="108" type="line"/>
      <point x="747" y="108" type="line"/>
      <point x="747" y="299" type="line"/>
      <point x="979" y="299" type="line"/>
      <point x="979" y="407" type="line"/>
      <point x="747" y="407" type="line"/>
      <point x="747" y="590" type="line"/>
    </contour>
  </outline>
</glyph>
<glyph name="oe" format="1">
  <advance width="1052"/>
  <unicode hex="0153"/>
  <outline>
    <contour>
      <point x="464" y="277" type="curve" smooth="yes"/>
      <point x="464" y="165"/>
      <point x="393" y="111"/>
      <point x="320" y="111" type="curve" smooth="yes"/>
      <point x="247" y="111"/>
      <point x="179" y="165"/>
      <point x="179" y="277" type="curve" smooth="yes"/>
      <point x="179" y="390"/>
      <point x="248" y="443"/>
      <point x="321" y="443" type="curve" smooth="yes"/>
      <point x="393" y="443"/>
      <point x="464" y="390"/>
    </contour>
    <contour>
      <point x="36" y="278" type="curve" smooth="yes"/>
      <point x="36" y="104"/>
      <point x="161" y="-8"/>
      <point x="320" y="-8" type="curve" smooth="yes"/>
      <point x="405" y="-8"/>
      <point x="482" y="30"/>
      <point x="533" y="96" type="curve"/>
      <point x="581" y="30"/>
      <point x="653" y="-8"/>
      <point x="738" y="-8" type="curve" smooth="yes"/>
      <point x="872" y="-8"/>
      <point x="967" y="69"/>
      <point x="998" y="171" type="curve"/>
      <point x="846" y="171" type="line"/>
      <point x="826" y="138"/>
      <point x="798" y="111"/>
      <point x="738" y="111" type="curve" smooth="yes"/>
      <point x="660" y="111"/>
      <point x="608" y="166"/>
      <point x="608" y="246" type="curve" smooth="yes"/>
      <point x="608" y="301" type="line" smooth="yes"/>
      <point x="608" y="387"/>
      <point x="664" y="443"/>
      <point x="737" y="443" type="curve" smooth="yes"/>
      <point x="810" y="443"/>
      <point x="867" y="396"/>
      <point x="870" y="322" type="curve"/>
      <point x="562" y="322" type="line"/>
      <point x="560" y="231" type="line"/>
      <point x="1012" y="231" type="line"/>
      <point x="1015" y="250"/>
      <point x="1016" y="268"/>
      <point x="1016" y="285" type="curve" smooth="yes"/>
      <point x="1016" y="456"/>
      <point x="898" y="562"/>
      <point x="740" y="562" type="curve" smooth="yes"/>
      <point x="653" y="562"/>
      <point x="580" y="525"/>
      <point x="533" y="458" type="curve"/>
      <point x="482" y="525"/>
      <point x="407" y="562"/>
      <point x="322" y="562" type="curve" smooth="yes"/>
      <point x="163" y="562"/>
      <point x="36" y="452"/>
    </contour>
  </outline>
</glyph>
<glyph name="Tcedilla" format="1">
  <advance width="584"/>
  <unicode hex="0162"/>
  <outline>
    <contour>
      <point x="34" y="590" type="line"/>
      <point x="222" y="590" type="line"/>
      <point x="222" y="-76" type="line"/>
      <point x="315" y="-76" type="line" smooth="yes"/>
      <point x="349" y="-76"/>
      <point x="364" y="-87"/>
      <point x="364" y="-111" type="curve" smooth="yes"/>
      <point x="364" y="-134"/>
      <point x="349" y="-145"/>
      <point x="315" y="-145" type="curve" smooth="yes"/>
      <point x="166" y="-145" type="line"/>
      <point x="166" y="-226" type="line"/>
      <point x="342" y="-226" type="line" smooth="yes"/>
      <point x="417" y="-226"/>
      <point x="471" y="-185"/>
      <point x="471" y="-111" type="curve" smooth="yes"/>
      <point x="471" y="-34"/>
      <point x="412" y="3"/>
      <point x="332" y="0" type="curve"/>
      <point x="362" y="-18" type="line"/>
      <point x="362" y="590" type="line"/>
      <point x="551" y="590" type="line"/>
      <point x="551" y="698" type="line"/>
      <point x="34" y="698" type="line"/>
    </contour>
  </outline>
</glyph>
<glyph name="tcedilla" format="1">
  <advance width="392"/>
  <unicode hex="0163"/>
  <outline>
    <contour>
      <point x="91" y="168" type="line"/>
      <point x="91" y="42"/>
      <point x="161" y="0"/>
      <point x="268" y="0" type="curve" smooth="yes"/>
      <point x="357" y="0" type="line"/>
      <point x="357" y="118" type="line"/>
      <point x="290" y="118" type="line" smooth="yes"/>
      <point x="247" y="118"/>
      <point x="232" y="133"/>
      <point x="232" y="168" type="curve" smooth="yes"/>
      <point x="232" y="691" type="line"/>
      <point x="91" y="691" type="line"/>
    </contour>
    <contour>
      <point x="356" y="439" type="line"/>
      <point x="356" y="554" type="line"/>
      <point x="32" y="554" type="line"/>
      <point x="32" y="439" type="line"/>
    </contour>
    <contour>
      <point x="246" y="67" type="line"/>
      <point x="158" y="67" type="line"/>
      <point x="158" y="-119" type="line"/>
      <point x="213" y="-119" type="line" smooth="yes"/>
      <point x="248" y="-119"/>
      <point x="269" y="-120"/>
      <point x="269" y="-150" type="curve" smooth="yes"/>
      <point x="269" y="-180"/>
      <point x="248" y="-182"/>
      <point x="213" y="-182" type="curve" smooth="yes"/>
      <point x="101" y="-182" type="line"/>
      <point x="101" y="-264" type="line"/>
      <point x="248" y="-264" type="line" smooth="yes"/>
      <point x="316" y="-264"/>
      <point x="376" y="-224"/>
      <point x="376" y="-150" type="curve" smooth="yes"/>
      <point x="376" y="-76"/>
      <point x="316" y="-43"/>
      <point x="246" y="-43" type="curve"/>
    </contour>
  </outline>
</glyph>
<glyph name="Uogonek" format="1">
  <advance width="709"/>
  <unicode hex="0172"/>
  <outline>
    <contour>
      <point x="73" y="268" type="line"/>
      <point x="73" y="107"/>
      <point x="171" y="19"/>
      <point x="294" y="-2" type="curve"/>
      <point x="292" y="-11"/>
      <point x="290" y="-21"/>
      <point x="290" y="-31" type="curve" smooth="yes"/>
      <point x="290" y="-105"/>
      <point x="351" y="-144"/>
      <point x="419" y="-144" type="curve" smooth="yes"/>
      <point x="542" y="-144" type="line"/>
      <point x="542" y="-63" type="line"/>
      <point x="441" y="-63" type="line" smooth="yes"/>
      <point x="410" y="-63"/>
      <point x="397" y="-52"/>
      <point x="397" y="-32" type="curve" smooth="yes"/>
      <point x="397" y="-14"/>
      <point x="411" y="-4"/>
      <point x="451" y="7" type="curve" smooth="yes"/>
      <point x="539" y="33"/>
      <point x="637" y="110"/>
      <point x="637" y="268" type="curve" smooth="yes"/>
      <point x="637" y="698" type="line"/>
      <point x="497" y="698" type="line"/>
      <point x="497" y="268" type="line" smooth="yes"/>
      <point x="497" y="171"/>
      <point x="444" y="122"/>
      <point x="355" y="122" type="curve" smooth="yes"/>
      <point x="265" y="122"/>
      <point x="214" y="171"/>
      <point x="214" y="268" type="curve" smooth="yes"/>
      <point x="214" y="698" type="line"/>
      <point x="73" y="698" type="line"/>
    </contour>
  </outline>
</glyph>
<glyph name="florin" format="1">
  <advance width="334"/>
  <unicode hex="0192"/>
  <outline>
    <contour>
      <point x="1" y="439" type="line"/>
      <point x="288" y="439" type="line"/>
      <point x="300" y="554" type="line"/>
      <point x="12" y="554" type="line"/>
    </contour>
    <contour>
      <point x="75" y="585" type="curve" smooth="yes"/>
      <point x="5" y="-72" type="line" smooth="yes"/>
      <point x="2" y="-107"/>
      <point x="-12" y="-122"/>
      <point x="-39" y="-122" type="curve" smooth="yes"/>
      <point x="-56" y="-122" type="line"/>
      <point x="-68" y="-240" type="line"/>
      <point x="-48" y="-240" type="line" smooth="yes"/>
      <point x="58" y="-240"/>
      <point x="133" y="-199"/>
      <point x="146" y="-72" type="curve" smooth="yes"/>
      <point x="216" y="585" type="line" smooth="yes"/>
      <point x="222" y="639"/>
      <point x="244" y="659"/>
      <point x="303" y="659" type="curve"/>
      <point x="315" y="777" type="line"/>
      <point x="164" y="777"/>
      <point x="89" y="719"/>
    </contour>
  </outline>
</glyph>
<glyph name="circumflex" format="1">
  <advance width="317"/>
  <unicode hex="02C6"/>
  <outline>
    <contour>
      <point x="159" y="554" type="move" name="_top"/>
    </contour>
    <contour>
      <point x="307" y="698" type="line"/>
      <point x="159" y="781" type="line"/>
      <point x="10" y="698" type="line"/>
      <point x="10" y="595" type="line"/>
      <point x="159" y="682" type="line"/>
      <point x="307" y="595" type="line"/>
    </contour>
  </outline>
</glyph>
<glyph name="caron" format="1">
  <advance width="317"/>
  <unicode hex="02C7"/>
  <outline>
    <contour>
      <point x="159" y="554" type="move" name="_top"/>
    </contour>
    <contour>
      <point x="159" y="695" type="line"/>
      <point x="10" y="781" type="line"/>
      <point x="10" y="679" type="line"/>
      <point x="159" y="595" type="line"/>
      <point x="307" y="679" type="line"/>
      <point x="307" y="781" type="line"/>
    </contour>
  </outline>
</glyph>
<glyph name="breve" format="1">
  <advance width="339"/>
  <unicode hex="02D8"/>
  <outline>
    <contour>
      <point x="170" y="554" type="move" name="_top"/>
    </contour>
    <contour>
      <point x="329" y="756" type="curve" smooth="yes"/>
      <point x="329" y="782" type="line"/>
      <point x="255" y="782" type="line"/>
      <point x="255" y="738"/>
      <point x="235" y="712"/>
      <point x="170" y="712" type="curve" smooth="yes"/>
      <point x="105" y="712"/>
      <point x="85" y="738"/>
      <point x="85" y="782" type="curve"/>
      <point x="10" y="782" type="line"/>
      <point x="10" y="756" type="line" smooth="yes"/>
      <point x="10" y="662"/>
      <point x="73" y="606"/>
      <point x="170" y="606" type="curve" smooth="yes"/>
      <point x="267" y="606"/>
      <point x="329" y="662"/>
    </contour>
  </outline>
</glyph>
<glyph name="dotaccent" format="1">
  <advance width="152"/>
  <unicode hex="02D9"/>
  <outline>
    <contour>
      <point x="77" y="554" type="move" name="_top"/>
    </contour>
    <contour>
      <point x="76" y="620" type="curve" smooth="yes"/>
      <point x="113" y="620"/>
      <point x="142" y="649"/>
      <point x="142" y="686" type="curve" smooth="yes"/>
      <point x="142" y="723"/>
      <point x="113" y="752"/>
      <point x="76" y="752" type="curve" smooth="yes"/>
      <point x="39" y="752"/>
      <point x="10" y="723"/>
      <point x="10" y="686" type="curve" smooth="yes"/>
      <point x="10" y="649"/>
      <point x="39" y="620"/>
    </contour>
  </outline>
</glyph>
<glyph name="ring" format="1">
  <advance width="249"/>
  <unicode hex="02DA"/>
  <outline>
    <contour>
      <point x="125" y="554" type="move" name="_top"/>
    </contour>
    <contour>
      <point x="10" y="717" type="curve" smooth="yes"/>
      <point x="10" y="646"/>
      <point x="61" y="602"/>
      <point x="125" y="602" type="curve" smooth="yes"/>
      <point x="188" y="602"/>
      <point x="239" y="646"/>
      <point x="239" y="717" type="curve" smooth="yes"/>
      <point x="239" y="788"/>
      <point x="188" y="832"/>
      <point x="125" y="832" type="curve" smooth="yes"/>
      <point x="61" y="832"/>
      <point x="10" y="788"/>
    </contour>
    <contour>
      <point x="175" y="718" type="curve" smooth="yes"/>
      <point x="175" y="688"/>
      <point x="153" y="668"/>
      <point x="125" y="668" type="curve" smooth="yes"/>
      <point x="97" y="668"/>
      <point x="75" y="688"/>
      <point x="75" y="718" type="curve" smooth="yes"/>
      <point x="75" y="748"/>
      <point x="97" y="768"/>
      <point x="125" y="768" type="curve" smooth="yes"/>
      <point x="153" y="768"/>
      <point x="175" y="748"/>
    </contour>
  </outline>
</glyph>
<glyph name="ogonek" format="1">
  <advance width="278"/>
  <unicode hex="02DB"/>
  <outline>
    <contour>
      <point x="225" y="0" type="move" name="_ogonek"/>
    </contour>
    <contour>
      <point x="10" y="-95" type="curve" smooth="yes"/>
      <point x="10" y="-169"/>
      <point x="71" y="-208"/>
      <point x="139" y="-208" type="curve" smooth="yes"/>
      <point x="262" y="-208" type="line"/>
      <point x="262" y="-127" type="line"/>
      <point x="173" y="-127" type="line" smooth="yes"/>
      <point x="138" y="-127"/>
      <point x="117" y="-125"/>
      <point x="117" y="-95" type="curve" smooth="yes"/>
      <point x="117" y="-65"/>
      <point x="138" y="-64"/>
      <point x="173" y="-64" type="curve" smooth="yes"/>
      <point x="225" y="-64" type="line"/>
      <point x="225" y="13" type="line"/>
      <point x="140" y="13" type="line"/>
      <point x="71" y="13"/>
      <point x="10" y="-21"/>
    </contour>
  </outline>
</glyph>
<glyph name="tilde" format="1">
  <advance width="381"/>
  <unicode hex="02DC"/>
  <outline>
    <contour>
      <point x="188" y="554" type="move" name="_top"/>
    </contour>
    <contour>
      <point x="10" y="609" type="curve"/>
      <point x="82" y="609" type="line"/>
      <point x="87" y="639"/>
      <point x="103" y="653"/>
      <point x="126" y="653" type="curve" smooth="yes"/>
      <point x="166" y="653"/>
      <point x="192" y="608"/>
      <point x="249" y="608" type="curve" smooth="yes"/>
      <point x="312" y="608"/>
      <point x="357" y="648"/>
      <point x="371" y="739" type="curve"/>
      <point x="298" y="739" type="line"/>
      <point x="294" y="709"/>
      <point x="278" y="696"/>
      <point x="255" y="696" type="curve" smooth="yes"/>
      <point x="215" y="696"/>
      <point x="189" y="740"/>
      <point x="132" y="740" type="curve" smooth="yes"/>
      <point x="70" y="740"/>
      <point x="24" y="700"/>
    </contour>
  </outline>
</glyph>
<glyph name="hungarumlaut" format="1">
  <advance width="401"/>
  <unicode hex="02DD"/>
  <outline>
    <contour>
      <point x="154" y="554" type="move" name="_top"/>
    </contour>
    <contour>
      <point x="276" y="789" type="line"/>
      <point x="187" y="601" type="line"/>
      <point x="275" y="601" type="line"/>
      <point x="391" y="789" type="line"/>
    </contour>
    <contour>
      <point x="82" y="789" type="line"/>
      <point x="10" y="601" type="line"/>
      <point x="99" y="601" type="line"/>
      <point x="198" y="789" type="line"/>
    </contour>
  </outline>
</glyph>
<glyph name="pi" format="1">
  <advance width="707"/>
  <unicode hex="03C0"/>
  <outline>
    <contour>
      <point x="26" y="446" type="line"/>
      <point x="99" y="446" type="line"/>
      <point x="99" y="0" type="line"/>
      <point x="240" y="0" type="line"/>
      <point x="240" y="446" type="line"/>
      <point x="464" y="446" type="line"/>
      <point x="464" y="0" type="line"/>
      <point x="604" y="0" type="line"/>
      <point x="604" y="446" type="line"/>
      <point x="678" y="446" type="line"/>
      <point x="678" y="554" type="line"/>
      <point x="26" y="554" type="line"/>
    </contour>
  </outline>
</glyph>
<glyph name="dvCandrabindu" format="1">
  <advance width="0"/>
  <unicode hex="0901"/>
  <outline>
    <contour>
      <point x="-83" y="740" type="move" name="_abvm.e"/>
    </contour>
    <contour>
      <point x="66" y="1013" type="curve"/>
      <point x="-45" y="1013" type="line"/>
      <point x="-45" y="959"/>
      <point x="-80" y="912"/>
      <point x="-154" y="912" type="curve" smooth="yes"/>
      <point x="-229" y="912"/>
      <point x="-265" y="959"/>
      <point x="-265" y="1013" type="curve"/>
      <point x="-374" y="1013" type="line"/>
      <point x="-374" y="896"/>
      <point x="-304" y="813"/>
      <point x="-154" y="813" type="curve" smooth="yes"/>
      <point x="-5" y="813"/>
      <point x="66" y="896"/>
    </contour>
    <contour>
      <point x="-155" y="978" type="curve" smooth="yes"/>
      <point x="-120" y="978"/>
      <point x="-94" y="1005"/>
      <point x="-94" y="1039" type="curve" smooth="yes"/>
      <point x="-94" y="1073"/>
      <point x="-120" y="1100"/>
      <point x="-155" y="1100" type="curve" smooth="yes"/>
      <point x="-188" y="1100"/>
      <point x="-216" y="1073"/>
      <point x="-216" y="1039" type="curve" smooth="yes"/>
      <point x="-216" y="1005"/>
      <point x="-188" y="978"/>
    </contour>
  </outline>
</glyph>
<glyph name="dvAnusvara" format="1">
  <advance width="0"/>
  <unicode hex="0902"/>
  <outline>
    <contour>
      <point x="-83" y="740" type="move" name="_abvm.e"/>
    </contour>
    <contour>
      <point x="-150" y="839" type="curve" smooth="yes"/>
      <point x="-105" y="839"/>
      <point x="-69" y="875"/>
      <point x="-69" y="919" type="curve" smooth="yes"/>
      <point x="-69" y="965"/>
      <point x="-105" y="1001"/>
      <point x="-150" y="1001" type="curve" smooth="yes"/>
      <point x="-195" y="1001"/>
      <point x="-231" y="965"/>
      <point x="-231" y="919" type="curve" smooth="yes"/>
      <point x="-231" y="875"/>
      <point x="-195" y="839"/>
    </contour>
  </outline>
</glyph>
<glyph name="dvVisarga" format="1">
  <advance width="208"/>
  <unicode hex="0903"/>
  <outline>
    <contour>
      <point x="103" y="417" type="curve" smooth="yes"/>
      <point x="142" y="417"/>
      <point x="172" y="448"/>
      <point x="172" y="485" type="curve" smooth="yes"/>
      <point x="172" y="523"/>
      <point x="142" y="554"/>
      <point x="103" y="554" type="curve" smooth="yes"/>
      <point x="66" y="554"/>
      <point x="36" y="523"/>
      <point x="36" y="485" type="curve" smooth="yes"/>
      <point x="36" y="448"/>
      <point x="66" y="417"/>
    </contour>
    <contour>
      <point x="103" y="128" type="curve" smooth="yes"/>
      <point x="142" y="128"/>
      <point x="172" y="158"/>
      <point x="172" y="196" type="curve" smooth="yes"/>
      <point x="172" y="234"/>
      <point x="142" y="264"/>
      <point x="103" y="264" type="curve" smooth="yes"/>
      <point x="66" y="264"/>
      <point x="36" y="234"/>
      <point x="36" y="196" type="curve" smooth="yes"/>
      <point x="36" y="158"/>
      <point x="66" y="128"/>
    </contour>
  </outline>
</glyph>
<glyph name="dvA" format="1">
  <advance width="852"/>
  <unicode hex="0905"/>
  <outline>
    <contour>
      <point x="635" y="0" type="line"/>
      <point x="770" y="0" type="line"/>
      <point x="770" y="624" type="line"/>
      <point x="878" y="624" type="line"/>
      <point x="878" y="740" type="line"/>
      <point x="635" y="740" type="line"/>
      <point x="635" y="397" type="line"/>
      <point x="407" y="397" type="line"/>
      <point x="415" y="284" type="line"/>
      <point x="635" y="284" type="line"/>
    </contour>
    <contour>
      <point x="251" y="473" type="line"/>
      <point x="251" y="354" type="line"/>
      <point x="251" y="354"/>
      <point x="276" y="354"/>
      <point x="282" y="354" type="curve" smooth="yes"/>
      <point x="356" y="354"/>
      <point x="397" y="325"/>
      <point x="397" y="265" type="curve" smooth="yes"/>
      <point x="397" y="211"/>
      <point x="364" y="174"/>
      <point x="307" y="174" type="curve" smooth="yes"/>
      <point x="251" y="174"/>
      <point x="215" y="212"/>
      <point x="215" y="266" type="curve"/>
      <point x="87" y="266" type="line"/>
      <point x="87" y="135"/>
      <point x="177" y="58"/>
      <point x="306" y="58" type="curve" smooth="yes"/>
      <point x="433" y="58"/>
      <point x="524" y="130"/>
      <point x="524" y="265" type="curve" smooth="yes"/>
      <point x="524" y="330"/>
      <point x="486" y="391"/>
      <point x="419" y="415" type="curve"/>
      <point x="419" y="419" type="line"/>
      <point x="478" y="441"/>
      <point x="514" y="494"/>
      <point x="514" y="564" type="curve" smooth="yes"/>
      <point x="514" y="677"/>
      <point x="430" y="749"/>
      <point x="307" y="749" type="curve" smooth="yes"/>
      <point x="184" y="749"/>
      <point x="93" y="671"/>
      <point x="93" y="553" type="curve"/>
      <point x="221" y="553" type="line"/>
      <point x="223" y="601"/>
      <point x="254" y="633"/>
      <point x="305" y="633" type="curve" smooth="yes"/>
      <point x="358" y="633"/>
      <point x="384" y="598"/>
      <point x="384" y="554" type="curve" smooth="yes"/>
      <point x="384" y="499"/>
      <point x="341" y="473"/>
      <point x="283" y="473" type="curve" smooth="yes"/>
    </contour>
  </outline>
</glyph>
<glyph name="dvI" format="1">
  <advance width="588"/>
  <unicode hex="0907"/>
  <outline>
    <contour>
      <point x="614" y="624" type="line"/>
      <point x="614" y="740" type="line"/>
      <point x="-26" y="740" type="line"/>
      <point x="-26" y="624" type="line"/>
    </contour>
    <contour>
      <point x="347" y="501" type="line"/>
      <point x="482" y="501" type="line"/>
      <point x="482" y="718" type="line"/>
      <point x="347" y="718" type="line"/>
    </contour>
    <contour>
      <point x="93" y="-82" type="line"/>
      <point x="221" y="-82" type="line"/>
      <point x="221" y="32" type="line"/>
      <point x="248" y="0"/>
      <point x="298" y="-16"/>
      <point x="350" y="-16" type="curve" smooth="yes"/>
      <point x="468" y="-16"/>
      <point x="543" y="57"/>
      <point x="543" y="160" type="curve" smooth="yes"/>
      <point x="543" y="304"/>
      <point x="431" y="330"/>
      <point x="324" y="330" type="curve" smooth="yes"/>
      <point x="263" y="330"/>
      <point x="220" y="335"/>
      <point x="220" y="384" type="curve" smooth="yes"/>
      <point x="220" y="429"/>
      <point x="265" y="438"/>
      <point x="324" y="438" type="curve" smooth="yes"/>
      <point x="482" y="438" type="line"/>
      <point x="482" y="524" type="line"/>
      <point x="367" y="547" type="line"/>
      <point x="290" y="547" type="line" smooth="yes"/>
      <point x="182" y="547"/>
      <point x="84" y="505"/>
      <point x="84" y="392" type="curve" smooth="yes"/>
      <point x="84" y="246"/>
      <point x="202" y="225"/>
      <point x="303" y="225" type="curve" smooth="yes"/>
      <point x="362" y="225"/>
      <point x="411" y="216"/>
      <point x="411" y="160" type="curve" smooth="yes"/>
      <point x="411" y="112"/>
      <point x="375" y="90"/>
      <point x="323" y="90" type="curve" smooth="yes"/>
      <point x="258" y="90"/>
      <point x="223" y="126"/>
      <point x="221" y="186" type="curve"/>
      <point x="93" y="186" type="line"/>
    </contour>
  </outline>
</glyph>
<glyph name="dvU" format="1">
  <advance width="572"/>
  <unicode hex="0909"/>
  <outline>
    <contour>
      <point x="492" y="706" type="line"/>
      <point x="365" y="702" type="line"/>
      <point x="365" y="600" type="line"/>
      <point x="365" y="506"/>
      <point x="346" y="451"/>
      <point x="260" y="451" type="curve" smooth="yes"/>
      <point x="224" y="451" type="line"/>
      <point x="224" y="333" type="line"/>
      <point x="224" y="333"/>
      <point x="260" y="333"/>
      <point x="267" y="333" type="curve" smooth="yes"/>
      <point x="340" y="333"/>
      <point x="394" y="301"/>
      <point x="394" y="228" type="curve" smooth="yes"/>
      <point x="394" y="167"/>
      <point x="355" y="126"/>
      <point x="294" y="126" type="curve" smooth="yes"/>
      <point x="226" y="126"/>
      <point x="179" y="177"/>
      <point x="179" y="246" type="curve"/>
      <point x="53" y="246" type="line"/>
      <point x="53" y="101"/>
      <point x="148" y="9"/>
      <point x="292" y="9" type="curve" smooth="yes"/>
      <point x="430" y="9"/>
      <point x="519" y="92"/>
      <point x="519" y="226" type="curve" smooth="yes"/>
      <point x="519" y="310"/>
      <point x="471" y="370"/>
      <point x="403" y="393" type="curve"/>
      <point x="403" y="397" type="line"/>
      <point x="477" y="430"/>
      <point x="492" y="500"/>
      <point x="492" y="602" type="curve"/>
    </contour>
    <contour>
      <point x="598" y="624" type="line"/>
      <point x="598" y="740" type="line"/>
      <point x="-31" y="740" type="line"/>
      <point x="-31" y="624" type="line"/>
    </contour>
  </outline>
</glyph>
<glyph name="dvUU" format="1">
  <advance width="851"/>
  <unicode hex="090A"/>
  <outline>
    <contour>
      <point x="492" y="706" type="line"/>
      <point x="364" y="702" type="line"/>
      <point x="364" y="600" type="line" smooth="yes"/>
      <point x="364" y="506"/>
      <point x="346" y="451"/>
      <point x="259" y="451" type="curve" smooth="yes"/>
      <point x="224" y="451" type="line"/>
      <point x="224" y="333" type="line"/>
      <point x="224" y="333"/>
      <point x="259" y="333"/>
      <point x="266" y="333" type="curve" smooth="yes"/>
      <point x="339" y="333"/>
      <point x="394" y="301"/>
      <point x="394" y="228" type="curve" smooth="yes"/>
      <point x="394" y="166"/>
      <point x="355" y="126"/>
      <point x="293" y="126" type="curve" smooth="yes"/>
      <point x="226" y="126"/>
      <point x="179" y="177"/>
      <point x="179" y="246" type="curve"/>
      <point x="53" y="246" type="line"/>
      <point x="53" y="101"/>
      <point x="148" y="9"/>
      <point x="292" y="9" type="curve" smooth="yes"/>
      <point x="429" y="9"/>
      <point x="519" y="92"/>
      <point x="519" y="226" type="curve" smooth="yes"/>
      <point x="519" y="308"/>
      <point x="467" y="364"/>
      <point x="402" y="389" type="curve"/>
      <point x="402" y="395" type="line"/>
      <point x="475" y="429"/>
      <point x="492" y="498"/>
      <point x="492" y="602" type="curve" smooth="yes"/>
    </contour>
    <contour>
      <point x="876" y="624" type="line"/>
      <point x="876" y="740" type="line"/>
      <point x="-26" y="740" type="line"/>
      <point x="-26" y="624" type="line"/>
    </contour>
    <contour>
      <point x="395" y="389" type="line"/>
      <point x="427" y="278" type="line"/>
      <point x="566" y="278" type="line"/>
      <point x="580" y="278" type="line"/>
      <point x="638" y="278"/>
      <point x="681" y="261"/>
      <point x="681" y="200" type="curve" smooth="yes"/>
      <point x="681" y="135"/>
      <point x="636" y="118"/>
      <point x="556" y="125" type="curve"/>
      <point x="556" y="21" type="line"/>
      <point x="712" y="5"/>
      <point x="812" y="61"/>
      <point x="812" y="202" type="curve"/>
      <point x="812" y="335"/>
      <point x="722" y="389"/>
      <point x="581" y="389" type="curve"/>
      <point x="565" y="389" type="line"/>
    </contour>
  </outline>
</glyph>
<glyph name="dvvR" format="1">
  <advance width="1019"/>
  <unicode hex="090B"/>
  <outline>
    <contour>
      <point x="474" y="0" type="line"/>
      <point x="608" y="0" type="line"/>
      <point x="608" y="102"/>
      <point x="608" y="624"/>
      <point x="608" y="624" type="curve"/>
      <point x="1045" y="624" type="line"/>
      <point x="1045" y="740" type="line"/>
      <point x="-26" y="740" type="line"/>
      <point x="-26" y="624" type="line"/>
      <point x="474" y="624" type="line"/>
    </contour>
    <contour>
      <point x="197" y="274" type="line"/>
      <point x="197" y="363"/>
      <point x="247" y="427"/>
      <point x="334" y="427" type="curve" smooth="yes"/>
      <point x="423" y="427"/>
      <point x="474" y="369"/>
      <point x="474" y="280" type="curve"/>
      <point x="537" y="249" type="line"/>
      <point x="543" y="403"/>
      <point x="481" y="542"/>
      <point x="310" y="542" type="curve" smooth="yes"/>
      <point x="155" y="542"/>
      <point x="63" y="431"/>
      <point x="63" y="274" type="curve"/>
    </contour>
    <contour>
      <point x="98" y="6" type="curve"/>
      <point x="98" y="0" type="line"/>
      <point x="273" y="0" type="line"/>
      <point x="526" y="265" type="line"/>
      <point x="467" y="350" type="line"/>
      <point x="467" y="350"/>
      <point x="132" y="39"/>
    </contour>
    <contour>
      <point x="817" y="544" type="line"/>
      <point x="817" y="209" type="line"/>
      <point x="936" y="212" type="line"/>
      <point x="936" y="544" type="line"/>
    </contour>
    <contour>
      <point x="931" y="298" type="line"/>
      <point x="893" y="298" type="line" smooth="yes"/>
      <point x="770" y="298"/>
      <point x="686" y="235"/>
      <point x="686" y="124" type="curve" smooth="yes"/>
      <point x="686" y="2"/>
      <point x="780" y="-59"/>
      <point x="902" y="-59" type="curve" smooth="yes"/>
      <point x="926" y="-59"/>
      <point x="953" y="-57"/>
      <point x="977" y="-51" type="curve"/>
      <point x="977" y="55" type="line"/>
      <point x="956" y="50"/>
      <point x="935" y="48"/>
      <point x="915" y="48" type="curve" smooth="yes"/>
      <point x="860" y="48"/>
      <point x="814" y="71"/>
      <point x="814" y="127" type="curve" smooth="yes"/>
      <point x="814" y="178"/>
      <point x="844" y="207"/>
      <point x="915" y="209" type="curve" smooth="yes"/>
      <point x="918" y="209"/>
      <point x="932" y="209"/>
      <point x="936" y="209" type="curve"/>
    </contour>
    <contour>
      <point x="765" y="358" type="line"/>
      <point x="892" y="358"/>
      <point x="936" y="398"/>
      <point x="936" y="522" type="curve" smooth="yes"/>
      <point x="936" y="557" type="line"/>
      <point x="817" y="557" type="line"/>
      <point x="817" y="523" type="line" smooth="yes"/>
      <point x="817" y="482"/>
      <point x="808" y="469"/>
      <point x="765" y="469" type="curve" smooth="yes"/>
      <point x="571" y="469" type="line"/>
      <point x="571" y="358" type="line"/>
    </contour>
  </outline>
</glyph>
<glyph name="dvvL" format="1">
  <advance width="910"/>
  <unicode hex="090C"/>
  <outline>
    <contour>
      <point x="819" y="-75" type="curve" smooth="yes"/>
      <point x="843" y="-75"/>
      <point x="870" y="-72"/>
      <point x="894" y="-67" type="curve"/>
      <point x="894" y="40" type="line"/>
      <point x="873" y="35"/>
      <point x="852" y="32"/>
      <point x="833" y="32" type="curve" smooth="yes"/>
      <point x="777" y="32"/>
      <point x="731" y="56"/>
      <point x="731" y="112" type="curve"/>
      <point x="731" y="163"/>
      <point x="760" y="194"/>
      <point x="834" y="194" type="curve" smooth="yes"/>
      <point x="837" y="194"/>
      <point x="847" y="194"/>
      <point x="850" y="194" type="curve"/>
      <point x="856" y="220"/>
      <point x="859" y="246"/>
      <point x="859" y="274" type="curve" smooth="yes"/>
      <point x="859" y="414"/>
      <point x="787" y="492"/>
      <point x="686" y="510" type="curve"/>
      <point x="686" y="624" type="line"/>
      <point x="936" y="624" type="line"/>
      <point x="936" y="740" type="line"/>
      <point x="-26" y="740" type="line"/>
      <point x="-26" y="624" type="line"/>
      <point x="556" y="624" type="line"/>
      <point x="556" y="494" type="line"/>
      <point x="513" y="480"/>
      <point x="482" y="449"/>
      <point x="466" y="406" type="curve"/>
      <point x="437" y="474"/>
      <point x="376" y="514"/>
      <point x="289" y="514" type="curve" smooth="yes"/>
      <point x="158" y="514"/>
      <point x="70" y="429"/>
      <point x="70" y="270" type="curve" smooth="yes"/>
      <point x="70" y="103"/>
      <point x="180" y="1"/>
      <point x="364" y="15" type="curve"/>
      <point x="364" y="133" type="line"/>
      <point x="265" y="127"/>
      <point x="205" y="171"/>
      <point x="205" y="271" type="curve" smooth="yes"/>
      <point x="205" y="343"/>
      <point x="233" y="395"/>
      <point x="304" y="395" type="curve" smooth="yes"/>
      <point x="398" y="395"/>
      <point x="409" y="303"/>
      <point x="402" y="214" type="curve"/>
      <point x="526" y="214" type="line"/>
      <point x="519" y="303"/>
      <point x="530" y="395"/>
      <point x="628" y="395" type="curve"/>
      <point x="706" y="395"/>
      <point x="728" y="332"/>
      <point x="727" y="267" type="curve"/>
      <point x="653" y="248"/>
      <point x="604" y="189"/>
      <point x="604" y="107" type="curve" smooth="yes"/>
      <point x="604" y="-15"/>
      <point x="697" y="-75"/>
    </contour>
  </outline>
</glyph>
<glyph name="dvEcandra" format="1">
  <advance width="663"/>
  <unicode hex="090D"/>
  <outline>
    <contour>
      <point x="460" y="1017" type="curve"/>
      <point x="346" y="1017" type="line"/>
      <point x="346" y="950"/>
      <point x="342" y="898"/>
      <point x="336" y="898" type="curve" smooth="yes"/>
      <point x="330" y="898"/>
      <point x="326" y="950"/>
      <point x="326" y="1017" type="curve"/>
      <point x="212" y="1017" type="line"/>
      <point x="212" y="906"/>
      <point x="252" y="830"/>
      <point x="336" y="830" type="curve" smooth="yes"/>
      <point x="423" y="830"/>
      <point x="460" y="906"/>
    </contour>
    <component base="dvE" xOffset="-11"/>
  </outline>
</glyph>
<glyph name="dvE" format="1">
  <advance width="675"/>
  <unicode hex="090F"/>
  <outline>
    <contour>
      <point x="701" y="624" type="line"/>
      <point x="701" y="740" type="line"/>
      <point x="-26" y="740" type="line"/>
      <point x="-26" y="624" type="line"/>
    </contour>
    <contour>
      <point x="598" y="673" type="line"/>
      <point x="462" y="673" type="line"/>
      <point x="462" y="512" type="line" smooth="yes"/>
      <point x="462" y="437"/>
      <point x="438" y="418"/>
      <point x="367" y="419" type="curve"/>
      <point x="367" y="296" type="line"/>
      <point x="525" y="292"/>
      <point x="598" y="354"/>
      <point x="598" y="512" type="curve" smooth="yes"/>
    </contour>
    <contour>
      <point x="105" y="266" type="line"/>
      <point x="105" y="122"/>
      <point x="182" y="19"/>
      <point x="355" y="19" type="curve" smooth="yes"/>
      <point x="499" y="19"/>
      <point x="593" y="99"/>
      <point x="593" y="238" type="curve"/>
      <point x="462" y="238" type="line"/>
      <point x="462" y="170"/>
      <point x="423" y="135"/>
      <point x="352" y="135" type="curve" smooth="yes"/>
      <point x="279" y="135"/>
      <point x="240" y="176"/>
      <point x="240" y="258" type="curve" smooth="yes"/>
      <point x="240" y="723" type="line"/>
      <point x="104" y="723" type="line"/>
    </contour>
  </outline>
</glyph>
<glyph name="dvOcandra" format="1">
  <advance width="1168"/>
  <unicode hex="0911"/>
  <outline>
    <contour>
      <point x="1102" y="1013" type="curve"/>
      <point x="988" y="1013" type="line"/>
      <point x="988" y="959"/>
      <point x="959" y="913"/>
      <point x="885" y="913" type="curve"/>
      <point x="811" y="913"/>
      <point x="782" y="959"/>
      <point x="782" y="1013" type="curve"/>
      <point x="668" y="1013" type="line"/>
      <point x="668" y="896"/>
      <point x="729" y="813"/>
      <point x="885" y="813" type="curve"/>
      <point x="1040" y="813"/>
      <point x="1102" y="896"/>
    </contour>
    <component base="dvA" xOffset="16"/>
    <component base="dvmAA" xOffset="868"/>
  </outline>
</glyph>
<glyph name="dvKHA" format="1">
  <advance width="942"/>
  <unicode hex="0916"/>
  <outline>
    <contour>
      <point x="211" y="314" type="line"/>
      <point x="356" y="328"/>
      <point x="387" y="393"/>
      <point x="387" y="589" type="curve" smooth="yes"/>
      <point x="387" y="633" type="line"/>
      <point x="252" y="634" type="line"/>
      <point x="252" y="588" type="line" smooth="yes"/>
      <point x="252" y="434"/>
      <point x="229" y="409"/>
      <point x="103" y="407" type="curve" smooth="yes"/>
      <point x="98" y="407"/>
      <point x="81" y="407"/>
      <point x="75" y="407" type="curve"/>
      <point x="75" y="262" type="line" smooth="yes"/>
      <point x="75" y="92"/>
      <point x="179" y="-3"/>
      <point x="343" y="-3" type="curve" smooth="yes"/>
      <point x="495" y="-3"/>
      <point x="606" y="82"/>
      <point x="603" y="226" type="curve"/>
      <point x="477" y="226" type="line"/>
      <point x="474" y="156"/>
      <point x="429" y="113"/>
      <point x="342" y="113" type="curve" smooth="yes"/>
      <point x="250" y="113"/>
      <point x="211" y="165"/>
      <point x="211" y="250" type="curve" smooth="yes"/>
    </contour>
    <contour>
      <point x="632" y="430" type="curve" smooth="yes"/>
      <point x="693" y="430"/>
      <point x="730" y="392"/>
      <point x="730" y="330" type="curve"/>
      <point x="757" y="347" type="line"/>
      <point x="776" y="456"/>
      <point x="718" y="536"/>
      <point x="599" y="536" type="curve" smooth="yes"/>
      <point x="486" y="536"/>
      <point x="409" y="449"/>
      <point x="409" y="331" type="curve" smooth="yes"/>
      <point x="409" y="214"/>
      <point x="485" y="125"/>
      <point x="599" y="125" type="curve" smooth="yes"/>
      <point x="715" y="125"/>
      <point x="776" y="205"/>
      <point x="757" y="315" type="curve"/>
      <point x="730" y="332" type="line"/>
      <point x="730" y="269"/>
      <point x="691" y="232"/>
      <point x="632" y="232" type="curve" smooth="yes"/>
      <point x="571" y="232"/>
      <point x="531" y="269"/>
      <point x="531" y="331" type="curve" smooth="yes"/>
      <point x="531" y="392"/>
      <point x="571" y="430"/>
    </contour>
    <contour>
      <point x="730" y="0" type="line"/>
      <point x="860" y="0" type="line"/>
      <point x="860" y="102"/>
      <point x="860" y="624"/>
      <point x="860" y="624" type="curve"/>
      <point x="968" y="624" type="line"/>
      <point x="968" y="740" type="line"/>
      <point x="-26" y="740" type="line"/>
      <point x="-26" y="624" type="line"/>
      <point x="730" y="624" type="line"/>
    </contour>
  </outline>
</glyph>
<glyph name="dvGA" format="1">
  <advance width="777"/>
  <unicode hex="0917"/>
  <outline>
    <contour>
      <point x="401" y="656" type="line"/>
      <point x="274" y="641" type="line"/>
      <point x="274" y="408" type="line"/>
      <point x="274" y="355"/>
      <point x="274" y="303"/>
      <point x="222" y="303" type="curve" smooth="yes"/>
      <point x="170" y="303"/>
      <point x="166" y="350"/>
      <point x="166" y="401" type="curve"/>
      <point x="32" y="401" type="line"/>
      <point x="29" y="262"/>
      <point x="86" y="187"/>
      <point x="219" y="187" type="curve"/>
      <point x="356" y="187"/>
      <point x="401" y="269"/>
      <point x="401" y="410" type="curve"/>
    </contour>
    <contour>
      <point x="803" y="624" type="line"/>
      <point x="803" y="740" type="line"/>
      <point x="-26" y="740" type="line"/>
      <point x="-26" y="624" type="line"/>
      <point x="560" y="624" type="line"/>
      <point x="560" y="0" type="line"/>
      <point x="694" y="0" type="line"/>
      <point x="694" y="624" type="line"/>
    </contour>
  </outline>
</glyph>
<glyph name="dvGHA" format="1">
  <advance width="697"/>
  <unicode hex="0918"/>
  <outline>
    <contour>
      <point x="723" y="740" type="line"/>
      <point x="-26" y="740" type="line"/>
      <point x="-26" y="624" type="line"/>
      <point x="723" y="624" type="line"/>
    </contour>
    <contour>
      <point x="614" y="0" type="line"/>
      <point x="614" y="642" type="line"/>
      <point x="479" y="645" type="line"/>
      <point x="479" y="0" type="line"/>
    </contour>
    <contour>
      <point x="522" y="277" type="curve"/>
      <point x="479" y="357" type="line"/>
      <point x="479" y="267"/>
      <point x="406" y="213"/>
      <point x="317" y="213" type="curve"/>
      <point x="259" y="213"/>
      <point x="205" y="235"/>
      <point x="205" y="294" type="curve" smooth="yes"/>
      <point x="205" y="346"/>
      <point x="246" y="374"/>
      <point x="314" y="374" type="curve" smooth="yes"/>
      <point x="360" y="374" type="line"/>
      <point x="360" y="484" type="line"/>
      <point x="317" y="484" type="line" smooth="yes"/>
      <point x="233" y="484"/>
      <point x="219" y="529"/>
      <point x="219" y="614" type="curve" smooth="yes"/>
      <point x="219" y="663" type="line"/>
      <point x="83" y="641" type="line"/>
      <point x="83" y="614" type="line" smooth="yes"/>
      <point x="83" y="511"/>
      <point x="105" y="460"/>
      <point x="166" y="432" type="curve"/>
      <point x="166" y="426" type="line"/>
      <point x="114" y="404"/>
      <point x="70" y="355"/>
      <point x="70" y="282" type="curve" smooth="yes"/>
      <point x="70" y="160"/>
      <point x="185" y="102"/>
      <point x="290" y="102" type="curve" smooth="yes"/>
      <point x="418" y="102"/>
      <point x="503" y="162"/>
    </contour>
  </outline>
</glyph>
<glyph name="dvNGA" format="1">
  <advance width="695"/>
  <unicode hex="0919"/>
  <outline>
    <contour>
      <point x="390" y="-35" type="move" name="blwm.virama"/>
    </contour>
    <contour>
      <point x="473" y="740" type="move" name="abvm.e"/>
    </contour>
    <contour>
      <point x="400" y="-119" type="move" name="blwm.u"/>
    </contour>
    <contour>
      <point x="721" y="624" type="line"/>
      <point x="721" y="740" type="line"/>
      <point x="-26" y="740" type="line"/>
      <point x="-26" y="624" type="line"/>
    </contour>
    <contour>
      <point x="338" y="501" type="line"/>
      <point x="473" y="501" type="line"/>
      <point x="473" y="718" type="line"/>
      <point x="338" y="718" type="line"/>
    </contour>
    <contour>
      <point x="62" y="186" type="line"/>
      <point x="67" y="55"/>
      <point x="171" y="-17"/>
      <point x="311" y="-17" type="curve" smooth="yes"/>
      <point x="451" y="-17"/>
      <point x="535" y="55"/>
      <point x="535" y="160" type="curve" smooth="yes"/>
      <point x="535" y="302"/>
      <point x="422" y="330"/>
      <point x="315" y="330" type="curve" smooth="yes"/>
      <point x="254" y="330"/>
      <point x="211" y="335"/>
      <point x="211" y="384" type="curve" smooth="yes"/>
      <point x="211" y="429"/>
      <point x="256" y="438"/>
      <point x="316" y="438" type="curve" smooth="yes"/>
      <point x="473" y="438" type="line"/>
      <point x="473" y="515" type="line"/>
      <point x="368" y="547" type="line"/>
      <point x="281" y="547" type="line" smooth="yes"/>
      <point x="173" y="547"/>
      <point x="75" y="505"/>
      <point x="75" y="392" type="curve" smooth="yes"/>
      <point x="75" y="246"/>
      <point x="193" y="224"/>
      <point x="294" y="224" type="curve" smooth="yes"/>
      <point x="357" y="224"/>
      <point x="402" y="215"/>
      <point x="402" y="160" type="curve" smooth="yes"/>
      <point x="402" y="111"/>
      <point x="364" y="90"/>
      <point x="310" y="90" type="curve"/>
      <point x="240" y="90"/>
      <point x="200" y="124"/>
      <point x="195" y="186" type="curve"/>
    </contour>
    <contour>
      <point x="591" y="290" type="curve" smooth="yes"/>
      <point x="633" y="290"/>
      <point x="666" y="323"/>
      <point x="666" y="364" type="curve" smooth="yes"/>
      <point x="666" y="406"/>
      <point x="633" y="439"/>
      <point x="591" y="439" type="curve" smooth="yes"/>
      <point x="550" y="439"/>
      <point x="516" y="406"/>
      <point x="516" y="364" type="curve" smooth="yes"/>
      <point x="516" y="323"/>
      <point x="550" y="290"/>
    </contour>
  </outline>
</glyph>
<glyph name="dvCA" format="1">
  <advance width="743"/>
  <unicode hex="091A"/>
  <outline>
    <contour>
      <point x="418" y="517" type="line"/>
      <point x="50" y="517" type="line"/>
      <point x="50" y="410" type="line"/>
      <point x="418" y="410" type="line"/>
    </contour>
    <contour>
      <point x="526" y="362" type="line"/>
      <point x="526" y="269"/>
      <point x="473" y="202"/>
      <point x="388" y="202" type="curve" smooth="yes"/>
      <point x="317" y="202"/>
      <point x="265" y="238"/>
      <point x="265" y="306" type="curve" smooth="yes"/>
      <point x="265" y="373"/>
      <point x="316" y="410"/>
      <point x="382" y="410" type="curve"/>
      <point x="343" y="454" type="line"/>
      <point x="245" y="470"/>
      <point x="137" y="406"/>
      <point x="137" y="284" type="curve" smooth="yes"/>
      <point x="137" y="161"/>
      <point x="239" y="89"/>
      <point x="362" y="89" type="curve" smooth="yes"/>
      <point x="508" y="89"/>
      <point x="565" y="185"/>
      <point x="560" y="295" type="curve"/>
    </contour>
    <contour>
      <point x="526" y="0" type="line"/>
      <point x="661" y="0" type="line"/>
      <point x="661" y="624" type="line"/>
      <point x="769" y="624" type="line"/>
      <point x="769" y="740" type="line"/>
      <point x="-26" y="740" type="line"/>
      <point x="-26" y="624" type="line"/>
      <point x="526" y="624" type="line"/>
    </contour>
  </outline>
</glyph>
<glyph name="dvCHA" format="1">
  <advance width="826"/>
  <unicode hex="091B"/>
  <outline>
    <contour>
      <point x="504" y="-12" type="move" name="blwm.virama"/>
    </contour>
    <contour>
      <point x="663" y="740" type="move" name="abvm.e"/>
    </contour>
    <contour>
      <point x="517" y="-89" type="move" name="blwm.u"/>
    </contour>
    <contour>
      <point x="852" y="624" type="line"/>
      <point x="852" y="740" type="line"/>
      <point x="-26" y="740" type="line"/>
      <point x="-26" y="624" type="line"/>
    </contour>
    <contour>
      <point x="663" y="624" type="line"/>
      <point x="535" y="624" type="line"/>
      <point x="533" y="476" type="line"/>
      <point x="663" y="470" type="line"/>
    </contour>
    <contour>
      <point x="585" y="450" type="curve" smooth="yes"/>
      <point x="632" y="450"/>
      <point x="659" y="409"/>
      <point x="659" y="340" type="curve" smooth="yes"/>
      <point x="659" y="204"/>
      <point x="564" y="145"/>
      <point x="409" y="145" type="curve" smooth="yes"/>
      <point x="308" y="145"/>
      <point x="213" y="175"/>
      <point x="213" y="255" type="curve" smooth="yes"/>
      <point x="213" y="317"/>
      <point x="261" y="348"/>
      <point x="322" y="348" type="curve"/>
      <point x="340" y="348" type="line"/>
      <point x="340" y="459" type="line"/>
      <point x="327" y="459" type="line" smooth="yes"/>
      <point x="238" y="459"/>
      <point x="223" y="503"/>
      <point x="223" y="601" type="curve" smooth="yes"/>
      <point x="223" y="637" type="line"/>
      <point x="88" y="640" type="line"/>
      <point x="88" y="604" type="line" smooth="yes"/>
      <point x="88" y="500"/>
      <point x="106" y="437"/>
      <point x="179" y="407" type="curve"/>
      <point x="179" y="401" type="line"/>
      <point x="117" y="373"/>
      <point x="77" y="319"/>
      <point x="77" y="242" type="curve" smooth="yes"/>
      <point x="77" y="93"/>
      <point x="241" y="31"/>
      <point x="412" y="31" type="curve" smooth="yes"/>
      <point x="653" y="31"/>
      <point x="774" y="151"/>
      <point x="774" y="337" type="curve" smooth="yes"/>
      <point x="774" y="469"/>
      <point x="710" y="552"/>
      <point x="581" y="552" type="curve"/>
      <point x="453" y="551"/>
      <point x="382" y="492"/>
      <point x="394" y="276" type="curve"/>
      <point x="508" y="276" type="line"/>
      <point x="503" y="410"/>
      <point x="529" y="450"/>
    </contour>
  </outline>
</glyph>
<glyph name="dvJHA" format="1">
  <advance width="860"/>
  <unicode hex="091D"/>
  <outline>
    <contour>
      <point x="886" y="624" type="line"/>
      <point x="886" y="740" type="line"/>
      <point x="-26" y="740" type="line"/>
      <point x="-26" y="624" type="line"/>
    </contour>
    <contour>
      <point x="644" y="0" type="line"/>
      <point x="778" y="0" type="line"/>
      <point x="778" y="718" type="line"/>
      <point x="644" y="718" type="line"/>
    </contour>
    <contour>
      <point x="340" y="511" type="line"/>
      <point x="475" y="511" type="line"/>
      <point x="475" y="718" type="line"/>
      <point x="340" y="718" type="line"/>
    </contour>
    <contour>
      <point x="684" y="245" type="line"/>
      <point x="698" y="352" type="line"/>
      <point x="303" y="352" type="line"/>
      <point x="250" y="352"/>
      <point x="213" y="355"/>
      <point x="213" y="401" type="curve" smooth="yes"/>
      <point x="213" y="445"/>
      <point x="258" y="448"/>
      <point x="318" y="448" type="curve" smooth="yes"/>
      <point x="475" y="448" type="line"/>
      <point x="475" y="525" type="line"/>
      <point x="370" y="557" type="line"/>
      <point x="283" y="557" type="line" smooth="yes"/>
      <point x="176" y="557"/>
      <point x="77" y="523"/>
      <point x="77" y="408" type="curve" smooth="yes"/>
      <point x="77" y="261"/>
      <point x="196" y="248"/>
      <point x="295" y="248" type="curve" smooth="yes"/>
      <point x="354" y="248"/>
      <point x="398" y="247"/>
      <point x="398" y="192" type="curve" smooth="yes"/>
      <point x="398" y="147"/>
      <point x="366" y="124"/>
      <point x="314" y="124" type="curve" smooth="yes"/>
      <point x="254" y="124"/>
      <point x="216" y="155"/>
      <point x="215" y="212" type="curve"/>
      <point x="87" y="212" type="line"/>
      <point x="87" y="-51" type="line"/>
      <point x="215" y="-51" type="line"/>
      <point x="215" y="65" type="line"/>
      <point x="241" y="35"/>
      <point x="292" y="18"/>
      <point x="340" y="18" type="curve" smooth="yes"/>
      <point x="460" y="18"/>
      <point x="523" y="92"/>
      <point x="523" y="188" type="curve" smooth="yes"/>
      <point x="523" y="216"/>
      <point x="510" y="237"/>
      <point x="499" y="245" type="curve"/>
    </contour>
  </outline>
</glyph>
<glyph name="dvTTA" format="1">
  <advance width="653"/>
  <unicode hex="091F"/>
  <outline>
    <contour>
      <point x="421" y="-7" type="move" name="blwm.virama"/>
    </contour>
    <contour>
      <point x="455" y="740" type="move" name="abvm.e"/>
    </contour>
    <contour>
      <point x="450" y="-90" type="move" name="blwm.u"/>
    </contour>
    <contour>
      <point x="455" y="435" type="line"/>
      <point x="455" y="624" type="line"/>
      <point x="679" y="624" type="line"/>
      <point x="679" y="740" type="line"/>
      <point x="-26" y="740" type="line"/>
      <point x="-26" y="624" type="line"/>
      <point x="321" y="624" type="line"/>
      <point x="321" y="549" type="line"/>
      <point x="168" y="538"/>
      <point x="60" y="446"/>
      <point x="60" y="287" type="curve" smooth="yes"/>
      <point x="60" y="127"/>
      <point x="177" y="27"/>
      <point x="342" y="27" type="curve" smooth="yes"/>
      <point x="507" y="27"/>
      <point x="614" y="123"/>
      <point x="614" y="289" type="curve"/>
      <point x="486" y="289" type="line"/>
      <point x="486" y="201"/>
      <point x="434" y="144"/>
      <point x="341" y="144" type="curve" smooth="yes"/>
      <point x="253" y="144"/>
      <point x="192" y="200"/>
      <point x="192" y="285" type="curve" smooth="yes"/>
      <point x="192" y="392"/>
      <point x="272" y="434"/>
      <point x="378" y="435" type="curve" smooth="yes"/>
    </contour>
  </outline>
</glyph>
<glyph name="dvTTHA" format="1">
  <advance width="670"/>
  <unicode hex="0920"/>
  <outline>
    <contour>
      <point x="415" y="0" type="move" name="blwm.virama"/>
    </contour>
    <contour>
      <point x="406" y="740" type="move" name="abvm.e"/>
    </contour>
    <contour>
      <point x="438" y="-81" type="move" name="blwm.u"/>
    </contour>
    <contour>
      <point x="406" y="543" type="curve"/>
      <point x="406" y="624" type="line"/>
      <point x="696" y="624" type="line"/>
      <point x="696" y="740" type="line"/>
      <point x="-26" y="740" type="line"/>
      <point x="-26" y="624" type="line"/>
      <point x="272" y="624" type="line"/>
      <point x="272" y="543" type="line"/>
      <point x="148" y="519"/>
      <point x="61" y="427"/>
      <point x="61" y="293" type="curve" smooth="yes"/>
      <point x="61" y="135"/>
      <point x="181" y="36"/>
      <point x="339" y="36" type="curve" smooth="yes"/>
      <point x="498" y="36"/>
      <point x="617" y="135"/>
      <point x="617" y="293" type="curve" smooth="yes"/>
      <point x="617" y="427"/>
      <point x="531" y="519"/>
    </contour>
    <contour>
      <point x="339" y="436" type="curve" smooth="yes"/>
      <point x="427" y="436"/>
      <point x="485" y="378"/>
      <point x="485" y="293" type="curve" smooth="yes"/>
      <point x="485" y="208"/>
      <point x="427" y="150"/>
      <point x="339" y="150" type="curve" smooth="yes"/>
      <point x="252" y="150"/>
      <point x="194" y="208"/>
      <point x="194" y="293" type="curve" smooth="yes"/>
      <point x="194" y="378"/>
      <point x="252" y="436"/>
    </contour>
  </outline>
</glyph>
<glyph name="dvDDHA" format="1">
  <advance width="641"/>
  <unicode hex="0922"/>
  <outline>
    <contour>
      <point x="449" y="-35" type="move" name="blwm.virama"/>
    </contour>
    <contour>
      <point x="487" y="740" type="move" name="abvm.e"/>
    </contour>
    <contour>
      <point x="446" y="-122" type="move" name="blwm.u"/>
    </contour>
    <contour>
      <point x="353" y="442" type="line"/>
      <point x="487" y="442" type="line"/>
      <point x="487" y="624" type="line"/>
      <point x="667" y="624" type="line"/>
      <point x="667" y="740" type="line"/>
      <point x="-26" y="740" type="line"/>
      <point x="-26" y="624" type="line"/>
      <point x="353" y="624" type="line"/>
    </contour>
    <contour>
      <point x="261" y="194" type="curve"/>
      <point x="375" y="194" type="line"/>
      <point x="375" y="230"/>
      <point x="389" y="263"/>
      <point x="434" y="263" type="curve" smooth="yes"/>
      <point x="479" y="263"/>
      <point x="495" y="233"/>
      <point x="495" y="197" type="curve" smooth="yes"/>
      <point x="495" y="144"/>
      <point x="451" y="111"/>
      <point x="375" y="111" type="curve" smooth="yes"/>
      <point x="256" y="111"/>
      <point x="189" y="170"/>
      <point x="189" y="268" type="curve" smooth="yes"/>
      <point x="189" y="386"/>
      <point x="274" y="442"/>
      <point x="393" y="442" type="curve"/>
      <point x="391" y="555" type="line"/>
      <point x="202" y="557"/>
      <point x="57" y="468"/>
      <point x="57" y="272" type="curve" smooth="yes"/>
      <point x="57" y="94"/>
      <point x="194" y="-3"/>
      <point x="370" y="-3" type="curve" smooth="yes"/>
      <point x="509" y="-3"/>
      <point x="619" y="66"/>
      <point x="619" y="201" type="curve" smooth="yes"/>
      <point x="619" y="304"/>
      <point x="539" y="368"/>
      <point x="434" y="368" type="curve" smooth="yes"/>
      <point x="315" y="368"/>
      <point x="258" y="301"/>
    </contour>
  </outline>
</glyph>
<glyph name="dvNNA" format="1">
  <advance width="884"/>
  <unicode hex="0923"/>
  <outline>
    <contour>
      <point x="524" y="383" type="curve" smooth="yes"/>
      <point x="524" y="684" type="line"/>
      <point x="391" y="684" type="line"/>
      <point x="391" y="377" type="line" smooth="yes"/>
      <point x="391" y="311"/>
      <point x="372" y="264"/>
      <point x="306" y="264" type="curve"/>
      <point x="241" y="264"/>
      <point x="222" y="311"/>
      <point x="222" y="377" type="curve" smooth="yes"/>
      <point x="222" y="684" type="line"/>
      <point x="89" y="684" type="line"/>
      <point x="89" y="383" type="line" smooth="yes"/>
      <point x="89" y="242"/>
      <point x="151" y="148"/>
      <point x="306" y="148" type="curve"/>
      <point x="461" y="148"/>
      <point x="524" y="242"/>
    </contour>
    <contour>
      <point x="910" y="624" type="line"/>
      <point x="910" y="740" type="line"/>
      <point x="-26" y="740" type="line"/>
      <point x="-26" y="624" type="line"/>
      <point x="667" y="624" type="line"/>
      <point x="667" y="0" type="line"/>
      <point x="801" y="0" type="line"/>
      <point x="801" y="624" type="line"/>
    </contour>
  </outline>
</glyph>
<glyph name="dvTA" format="1">
  <advance width="691"/>
  <unicode hex="0924"/>
  <outline>
    <contour>
      <point x="349" y="107" type="line"/>
      <point x="238" y="107"/>
      <point x="196" y="158"/>
      <point x="196" y="243" type="curve" smooth="yes"/>
      <point x="196" y="338"/>
      <point x="259" y="377"/>
      <point x="348" y="377" type="curve" smooth="yes"/>
      <point x="376" y="377" type="line"/>
      <point x="474" y="377" type="line"/>
      <point x="474" y="0" type="line"/>
      <point x="608" y="0" type="line"/>
      <point x="608" y="624" type="line"/>
      <point x="717" y="624" type="line"/>
      <point x="717" y="740" type="line"/>
      <point x="-26" y="740" type="line"/>
      <point x="-26" y="624" type="line"/>
      <point x="474" y="624" type="line"/>
      <point x="474" y="493" type="line"/>
      <point x="377" y="493" type="line"/>
      <point x="346" y="493" type="line" smooth="yes"/>
      <point x="188" y="493"/>
      <point x="61" y="427"/>
      <point x="61" y="243" type="curve" smooth="yes"/>
      <point x="61" y="79"/>
      <point x="160" y="-1"/>
      <point x="324" y="-1" type="curve" smooth="yes"/>
      <point x="349" y="-1" type="line"/>
    </contour>
  </outline>
</glyph>
<glyph name="dvTHA" format="1">
  <advance width="778"/>
  <unicode hex="0925"/>
  <outline>
    <contour>
      <point x="804" y="624" type="line"/>
      <point x="804" y="740" type="line"/>
      <point x="561" y="740" type="line"/>
      <point x="561" y="410" type="line"/>
      <point x="559" y="278"/>
      <point x="480" y="200"/>
      <point x="372" y="200" type="curve" smooth="yes"/>
      <point x="258" y="200"/>
      <point x="206" y="270"/>
      <point x="213" y="360" type="curve"/>
      <point x="371" y="359"/>
      <point x="480" y="420"/>
      <point x="480" y="555" type="curve" smooth="yes"/>
      <point x="480" y="683"/>
      <point x="391" y="748"/>
      <point x="283" y="748" type="curve" smooth="yes"/>
      <point x="170" y="748"/>
      <point x="82" y="674"/>
      <point x="87" y="542" type="curve"/>
      <point x="211" y="542" type="line"/>
      <point x="208" y="597"/>
      <point x="232" y="632"/>
      <point x="281" y="632" type="curve" smooth="yes"/>
      <point x="323" y="632"/>
      <point x="351" y="605"/>
      <point x="351" y="559" type="curve" smooth="yes"/>
      <point x="351" y="482"/>
      <point x="283" y="461"/>
      <point x="182" y="461" type="curve" smooth="yes"/>
      <point x="173" y="461"/>
      <point x="85" y="461"/>
      <point x="75" y="461" type="curve"/>
      <point x="45" y="238"/>
      <point x="148" y="84"/>
      <point x="353" y="84" type="curve" smooth="yes"/>
      <point x="463" y="84"/>
      <point x="532" y="135"/>
      <point x="561" y="184" type="curve"/>
      <point x="561" y="0" type="line"/>
      <point x="695" y="0" type="line"/>
      <point x="695" y="624" type="line"/>
    </contour>
  </outline>
</glyph>
<glyph name="dvDA" format="1">
  <advance width="607"/>
  <unicode hex="0926"/>
  <outline>
    <contour>
      <point x="541" y="-43" type="move" name="blwm.virama"/>
    </contour>
    <contour>
      <point x="507" y="740" type="move" name="abvm.e"/>
    </contour>
    <contour>
      <point x="540" y="-17" type="move" name="blwm.u"/>
    </contour>
    <contour>
      <point x="540" y="-17" type="line"/>
      <point x="540" y="275" type="line"/>
      <point x="418" y="275" type="line"/>
      <point x="418" y="213"/>
      <point x="376" y="184"/>
      <point x="317" y="184" type="curve"/>
      <point x="242" y="184"/>
      <point x="194" y="221"/>
      <point x="194" y="298" type="curve" smooth="yes"/>
      <point x="194" y="389"/>
      <point x="261" y="424"/>
      <point x="354" y="424" type="curve" smooth="yes"/>
      <point x="507" y="424" type="line"/>
      <point x="507" y="624" type="line"/>
      <point x="633" y="624" type="line"/>
      <point x="633" y="740" type="line"/>
      <point x="-26" y="740" type="line"/>
      <point x="-26" y="624" type="line"/>
      <point x="373" y="624" type="line"/>
      <point x="373" y="543" type="line"/>
      <point x="343" y="543" type="line" smooth="yes"/>
      <point x="181" y="543"/>
      <point x="60" y="469"/>
      <point x="60" y="303" type="curve" smooth="yes"/>
      <point x="60" y="146"/>
      <point x="165" y="70"/>
      <point x="290" y="70" type="curve" smooth="yes"/>
      <point x="344" y="70"/>
      <point x="386" y="86"/>
      <point x="406" y="110" type="curve"/>
      <point x="406" y="-17" type="line"/>
    </contour>
  </outline>
</glyph>
<glyph name="dvPA" format="1">
  <advance width="678"/>
  <unicode hex="092A"/>
  <outline>
    <contour>
      <point x="461" y="0" type="line"/>
      <point x="596" y="0" type="line"/>
      <point x="596" y="624" type="line"/>
      <point x="704" y="624" type="line"/>
      <point x="704" y="740" type="line"/>
      <point x="-26" y="740" type="line"/>
      <point x="-26" y="624" type="line"/>
      <point x="84" y="624" type="line"/>
      <point x="84" y="435" type="line" smooth="yes"/>
      <point x="84" y="291"/>
      <point x="160" y="179"/>
      <point x="305" y="179" type="curve" smooth="yes"/>
      <point x="441" y="179"/>
      <point x="488" y="269"/>
      <point x="495" y="346" type="curve"/>
      <point x="461" y="429" type="line"/>
      <point x="461" y="347"/>
      <point x="415" y="294"/>
      <point x="341" y="294" type="curve" smooth="yes"/>
      <point x="251" y="294"/>
      <point x="219" y="350"/>
      <point x="219" y="433" type="curve" smooth="yes"/>
      <point x="219" y="624" type="line"/>
      <point x="461" y="624" type="line"/>
    </contour>
  </outline>
</glyph>
<glyph name="dvPHA" format="1">
  <advance width="979"/>
  <unicode hex="092B"/>
  <outline>
    <contour>
      <point x="576" y="0" type="move" name="blwm.virama"/>
    </contour>
    <contour>
      <point x="576" y="740" type="move" name="abvm.e"/>
    </contour>
    <contour>
      <point x="576" y="0" type="move" name="blwm.u"/>
    </contour>
    <contour>
      <point x="441" y="0" type="line"/>
      <point x="576" y="0" type="line"/>
      <point x="576" y="624" type="line"/>
      <point x="1005" y="624" type="line"/>
      <point x="1005" y="740" type="line"/>
      <point x="-26" y="740" type="line"/>
      <point x="-26" y="624" type="line"/>
      <point x="84" y="624" type="line"/>
      <point x="84" y="462" type="line" smooth="yes"/>
      <point x="84" y="318"/>
      <point x="151" y="204"/>
      <point x="297" y="204" type="curve" smooth="yes"/>
      <point x="425" y="204"/>
      <point x="471" y="293"/>
      <point x="477" y="383" type="curve"/>
      <point x="441" y="464" type="line"/>
      <point x="441" y="380"/>
      <point x="407" y="319"/>
      <point x="332" y="319" type="curve" smooth="yes"/>
      <point x="242" y="319"/>
      <point x="219" y="376"/>
      <point x="219" y="460" type="curve" smooth="yes"/>
      <point x="219" y="624" type="line"/>
      <point x="441" y="624" type="line"/>
    </contour>
    <contour>
      <point x="671" y="88" type="line"/>
      <point x="831" y="71"/>
      <point x="934" y="160"/>
      <point x="934" y="311" type="curve" smooth="yes"/>
      <point x="934" y="438"/>
      <point x="855" y="535"/>
      <point x="724" y="535" type="curve" smooth="yes"/>
      <point x="583" y="535"/>
      <point x="523" y="427"/>
      <point x="543" y="308" type="curve"/>
      <point x="576" y="289" type="line"/>
      <point x="576" y="362"/>
      <point x="619" y="418"/>
      <point x="693" y="418" type="curve" smooth="yes"/>
      <point x="764" y="418"/>
      <point x="805" y="375"/>
      <point x="805" y="308" type="curve" smooth="yes"/>
      <point x="805" y="231"/>
      <point x="753" y="194"/>
      <point x="670" y="199" type="curve"/>
    </contour>
  </outline>
</glyph>
<glyph name="dvBA" format="1">
  <advance width="669"/>
  <unicode hex="092C"/>
  <outline>
    <contour>
      <point x="290" y="66" type="curve" smooth="yes"/>
      <point x="363" y="66"/>
      <point x="422" y="93"/>
      <point x="457" y="139" type="curve"/>
      <point x="457" y="0" type="line"/>
      <point x="586" y="0" type="line"/>
      <point x="586" y="624" type="line"/>
      <point x="695" y="624" type="line"/>
      <point x="695" y="740" type="line"/>
      <point x="-26" y="740" type="line"/>
      <point x="-26" y="624" type="line"/>
      <point x="457" y="624" type="line"/>
      <point x="457" y="488" type="line"/>
      <point x="422" y="534"/>
      <point x="363" y="562"/>
      <point x="290" y="562" type="curve" smooth="yes"/>
      <point x="148" y="562"/>
      <point x="43" y="460"/>
      <point x="43" y="314" type="curve" smooth="yes"/>
      <point x="43" y="168"/>
      <point x="148" y="66"/>
    </contour>
    <contour>
      <point x="162" y="314" type="curve" smooth="yes"/>
      <point x="162" y="402"/>
      <point x="228" y="459"/>
      <point x="316" y="459" type="curve" smooth="yes"/>
      <point x="401" y="459"/>
      <point x="463" y="399"/>
      <point x="463" y="314" type="curve"/>
      <point x="463" y="228"/>
      <point x="400" y="169"/>
      <point x="316" y="169" type="curve" smooth="yes"/>
      <point x="228" y="169"/>
      <point x="162" y="223"/>
    </contour>
    <contour>
      <point x="435" y="183" type="line"/>
      <point x="507" y="230" type="line"/>
      <point x="162" y="475" type="line"/>
      <point x="114" y="412" type="line"/>
    </contour>
  </outline>
</glyph>
<glyph name="dvBHA" format="1">
  <advance width="843"/>
  <unicode hex="092D"/>
  <outline>
    <contour>
      <point x="626" y="0" type="line"/>
      <point x="761" y="0" type="line"/>
      <point x="761" y="725" type="line"/>
      <point x="626" y="725" type="line"/>
    </contour>
    <contour>
      <point x="869" y="624" type="line"/>
      <point x="869" y="740" type="line"/>
      <point x="626" y="740" type="line"/>
      <point x="626" y="624" type="line"/>
    </contour>
    <contour>
      <point x="363" y="298" type="line"/>
      <point x="363" y="232"/>
      <point x="347" y="188"/>
      <point x="285" y="188" type="curve" smooth="yes"/>
      <point x="238" y="188"/>
      <point x="203" y="218"/>
      <point x="203" y="266" type="curve" smooth="yes"/>
      <point x="203" y="329"/>
      <point x="252" y="349"/>
      <point x="315" y="349" type="curve" smooth="yes"/>
      <point x="748" y="349" type="line"/>
      <point x="748" y="461" type="line"/>
      <point x="316" y="461" type="line" smooth="yes"/>
      <point x="171" y="461"/>
      <point x="77" y="403"/>
      <point x="77" y="270" type="curve" smooth="yes"/>
      <point x="77" y="151"/>
      <point x="170" y="74"/>
      <point x="288" y="74" type="curve" smooth="yes"/>
      <point x="426" y="74"/>
      <point x="490" y="159"/>
      <point x="490" y="302" type="curve" smooth="yes"/>
      <point x="490" y="519" type="line"/>
      <point x="490" y="658"/>
      <point x="440" y="749"/>
      <point x="300" y="749" type="curve" smooth="yes"/>
      <point x="155" y="749"/>
      <point x="106" y="656"/>
      <point x="107" y="519" type="curve"/>
      <point x="241" y="519" type="line"/>
      <point x="241" y="578"/>
      <point x="247" y="631"/>
      <point x="302" y="631" type="curve" smooth="yes"/>
      <point x="357" y="631"/>
      <point x="363" y="577"/>
      <point x="363" y="521" type="curve"/>
    </contour>
  </outline>
</glyph>
<glyph name="dvYA" format="1">
  <advance width="746"/>
  <unicode hex="092F"/>
  <outline>
    <contour>
      <point x="233" y="635" type="line"/>
      <point x="233" y="602" type="line"/>
      <point x="233" y="496"/>
      <point x="227" y="442"/>
      <point x="64" y="442" type="curve"/>
      <point x="53" y="235"/>
      <point x="145" y="89"/>
      <point x="342" y="89" type="curve" smooth="yes"/>
      <point x="497" y="89"/>
      <point x="574" y="194"/>
      <point x="563" y="314" type="curve"/>
      <point x="529" y="382" type="line"/>
      <point x="529" y="277"/>
      <point x="470" y="205"/>
      <point x="365" y="205" type="curve" smooth="yes"/>
      <point x="260" y="205"/>
      <point x="203" y="271"/>
      <point x="204" y="364" type="curve"/>
      <point x="341" y="378"/>
      <point x="365" y="451"/>
      <point x="365" y="597" type="curve"/>
      <point x="365" y="637" type="line"/>
    </contour>
    <contour>
      <point x="529" y="624" type="line"/>
      <point x="529" y="0" type="line"/>
      <point x="664" y="0" type="line"/>
      <point x="664" y="624" type="line"/>
      <point x="772" y="624" type="line"/>
      <point x="772" y="740" type="line"/>
      <point x="-26" y="740" type="line"/>
      <point x="-26" y="624" type="line"/>
    </contour>
  </outline>
</glyph>
<glyph name="dvRA" format="1">
  <advance width="525"/>
  <unicode hex="0930"/>
  <outline>
    <contour>
      <point x="205" y="309" type="line"/>
      <point x="415" y="313"/>
      <point x="462" y="379"/>
      <point x="462" y="586" type="curve" smooth="yes"/>
      <point x="462" y="633" type="line"/>
      <point x="327" y="634" type="line"/>
      <point x="327" y="587" type="line"/>
      <point x="327" y="415"/>
      <point x="300" y="417"/>
      <point x="69" y="417" type="curve"/>
      <point x="69" y="211" type="line" smooth="yes"/>
      <point x="69" y="73"/>
      <point x="144" y="-3"/>
      <point x="280" y="-3" type="curve" smooth="yes"/>
      <point x="414" y="-3"/>
      <point x="485" y="72"/>
      <point x="484" y="211" type="curve"/>
      <point x="352" y="211" type="line"/>
      <point x="352" y="157"/>
      <point x="334" y="113"/>
      <point x="280" y="113" type="curve" smooth="yes"/>
      <point x="221" y="113"/>
      <point x="205" y="157"/>
      <point x="205" y="212" type="curve" smooth="yes"/>
    </contour>
    <contour>
      <point x="551" y="624" type="line"/>
      <point x="551" y="740" type="line"/>
      <point x="-26" y="740" type="line"/>
      <point x="-26" y="624" type="line"/>
    </contour>
  </outline>
</glyph>
<glyph name="dvLA" format="1">
  <advance width="910"/>
  <unicode hex="0932"/>
  <outline>
    <contour>
      <point x="691" y="-26" type="move" name="blwm.virama"/>
    </contour>
    <contour>
      <point x="686" y="740" type="move" name="abvm.e"/>
    </contour>
    <contour>
      <point x="695" y="-97" type="move" name="blwm.u"/>
    </contour>
    <contour>
      <point x="526" y="214" type="line"/>
      <point x="519" y="303"/>
      <point x="532" y="395"/>
      <point x="626" y="395" type="curve" smooth="yes"/>
      <point x="696" y="395"/>
      <point x="725" y="343"/>
      <point x="725" y="271" type="curve" smooth="yes"/>
      <point x="725" y="171"/>
      <point x="665" y="127"/>
      <point x="565" y="133" type="curve"/>
      <point x="565" y="15" type="line"/>
      <point x="750" y="1"/>
      <point x="860" y="103"/>
      <point x="860" y="270" type="curve" smooth="yes"/>
      <point x="860" y="409"/>
      <point x="792" y="492"/>
      <point x="686" y="510" type="curve"/>
      <point x="686" y="624" type="line"/>
      <point x="936" y="624" type="line"/>
      <point x="936" y="740" type="line"/>
      <point x="-26" y="740" type="line"/>
      <point x="-26" y="624" type="line"/>
      <point x="556" y="624" type="line"/>
      <point x="556" y="494" type="line"/>
      <point x="513" y="480"/>
      <point x="482" y="449"/>
      <point x="466" y="406" type="curve"/>
      <point x="437" y="474"/>
      <point x="376" y="514"/>
      <point x="289" y="514" type="curve" smooth="yes"/>
      <point x="158" y="514"/>
      <point x="70" y="429"/>
      <point x="70" y="270" type="curve" smooth="yes"/>
      <point x="70" y="103"/>
      <point x="180" y="1"/>
      <point x="364" y="15" type="curve"/>
      <point x="364" y="133" type="line"/>
      <point x="265" y="127"/>
      <point x="205" y="171"/>
      <point x="205" y="271" type="curve" smooth="yes"/>
      <point x="205" y="343"/>
      <point x="233" y="395"/>
      <point x="304" y="395" type="curve" smooth="yes"/>
      <point x="398" y="395"/>
      <point x="409" y="303"/>
      <point x="402" y="214" type="curve"/>
    </contour>
  </outline>
</glyph>
<glyph name="dvVA" format="1">
  <advance width="646"/>
  <unicode hex="0935"/>
  <outline>
    <contour>
      <point x="271" y="72" type="curve" smooth="yes"/>
      <point x="407" y="72"/>
      <point x="484" y="168"/>
      <point x="474" y="302" type="curve"/>
      <point x="434" y="314" type="line"/>
      <point x="434" y="236"/>
      <point x="384" y="185"/>
      <point x="306" y="185" type="curve" smooth="yes"/>
      <point x="226" y="185"/>
      <point x="175" y="237"/>
      <point x="175" y="314" type="curve"/>
      <point x="175" y="391"/>
      <point x="226" y="442"/>
      <point x="306" y="442" type="curve" smooth="yes"/>
      <point x="384" y="442"/>
      <point x="434" y="392"/>
      <point x="434" y="315" type="curve"/>
      <point x="474" y="326" type="line"/>
      <point x="482" y="461"/>
      <point x="407" y="555"/>
      <point x="271" y="555" type="curve" smooth="yes"/>
      <point x="140" y="555"/>
      <point x="44" y="449"/>
      <point x="44" y="314" type="curve"/>
      <point x="44" y="179"/>
      <point x="140" y="72"/>
    </contour>
    <contour>
      <point x="672" y="740" type="line"/>
      <point x="-26" y="740" type="line"/>
      <point x="-26" y="624" type="line"/>
      <point x="434" y="624" type="line"/>
      <point x="434" y="0" type="line"/>
      <point x="564" y="0" type="line"/>
      <point x="564" y="102"/>
      <point x="564" y="624"/>
      <point x="564" y="624" type="curve"/>
      <point x="672" y="624" type="line"/>
    </contour>
  </outline>
</glyph>
